<svg width="21" height="21" viewBox="0 0 21 21" fill="none" xmlns="http://www.w3.org/2000/svg">
<path d="M13.5428 7.3597C13.6851 7.50182 13.6306 7.82782 13.5611 8.20017C13.4918 8.57253 13.2738 9.0656 13.2119 9.12061C13.1498 9.17562 12.9776 9.10661 12.9776 9.10661C12.9776 9.10661 12.8525 9.82712 12.3297 10.4756C12.3152 10.4936 12.3004 10.5115 12.2854 10.5293C12.2719 10.5453 12.2579 10.5611 12.2441 10.5772C12.2143 10.6108 12.1837 10.6439 12.1516 10.6765C12.142 10.6864 12.132 10.6966 12.1221 10.7066C12.1122 10.7165 12.102 10.7264 12.0918 10.7364C11.3675 11.4342 10.7799 11.6227 10.3225 11.5952C10.312 11.5944 10.3013 11.5936 10.2904 11.5926C10.28 11.5916 10.2693 11.5906 10.2586 11.5893C10.2471 11.588 10.2354 11.5865 10.2237 11.5847C10.2204 11.5845 10.2168 11.584 10.2135 11.5832C10.2058 11.5822 10.1982 11.5809 10.1903 11.5794C10.1895 11.5794 10.1883 11.5791 10.1875 11.5789C10.1755 11.5768 10.1633 11.5745 10.1511 11.5722C10.1401 11.5702 10.1294 11.5677 10.1182 11.5654C10.1167 11.5651 10.1152 11.5646 10.1136 11.5643C10.0632 11.5534 10.0105 11.5394 9.95624 11.5223C9.94249 11.5182 9.92874 11.5137 9.91498 11.5088C9.91345 11.5083 9.91218 11.5078 9.91065 11.5073C9.89843 11.503 9.88595 11.4986 9.87321 11.494C9.8452 11.4841 9.81693 11.4734 9.7884 11.4617C9.77414 11.4561 9.75988 11.45 9.74536 11.4436C9.74511 11.4436 9.7446 11.4431 9.74434 11.4431C9.73033 11.437 9.71607 11.4306 9.70206 11.4243C9.6878 11.4179 9.67354 11.411 9.65928 11.4044C9.65902 11.4044 9.65877 11.4041 9.65851 11.4041C9.65164 11.4008 9.64451 11.3973 9.63737 11.3937C9.63024 11.3901 9.62311 11.3866 9.61598 11.383C9.60172 11.3759 9.58746 11.3685 9.57345 11.3608C9.57243 11.3603 9.57166 11.3598 9.5709 11.3593C9.55613 11.3517 9.54136 11.3435 9.52684 11.3351C9.51945 11.331 9.51232 11.327 9.50468 11.3226C9.4973 11.3186 9.49016 11.3142 9.48278 11.3099C9.46826 11.3012 9.45323 11.2923 9.43872 11.2834C9.42929 11.2778 9.41987 11.2717 9.41045 11.2656C9.40535 11.2623 9.40001 11.259 9.39491 11.2557C9.38243 11.2475 9.3697 11.2394 9.35722 11.2304C9.35543 11.2294 9.35391 11.2284 9.35212 11.2271C9.34958 11.2254 9.34678 11.2236 9.34423 11.2215C9.33557 11.2157 9.32666 11.2096 9.31825 11.2034C9.29864 11.1894 9.27903 11.1752 9.25967 11.1604C9.24745 11.1512 9.23522 11.1418 9.223 11.1321C9.22198 11.1311 9.22096 11.1306 9.2202 11.1298C9.2095 11.1214 9.19906 11.113 9.18861 11.1041C9.18454 11.1011 9.18046 11.0975 9.17639 11.0942C9.16442 11.0843 9.1527 11.0743 9.14099 11.0639C9.13895 11.0621 9.1364 11.0601 9.13437 11.0583C9.10839 11.0356 9.08266 11.0122 9.05745 10.9877C9.05643 10.987 9.05567 10.9862 9.05465 10.9849C9.04803 10.9788 9.04166 10.9724 9.03529 10.9661C9.02867 10.9597 9.0223 10.9533 9.01594 10.9467C8.99862 10.9291 8.9813 10.9113 8.96449 10.893C8.95583 10.8838 8.94768 10.8746 8.93928 10.8652C8.93087 10.8561 8.92272 10.8464 8.91457 10.837C8.90642 10.8275 8.89827 10.8179 8.89012 10.8082C8.88197 10.7985 8.87382 10.7886 8.86618 10.7786C8.85013 10.7588 8.8346 10.7384 8.81932 10.7178C8.7885 10.6765 8.75921 10.6335 8.7312 10.5886C8.72356 10.5764 8.71591 10.5642 8.70878 10.552C8.70293 10.5423 8.69707 10.5326 8.69172 10.5232C8.68968 10.5199 8.68764 10.5163 8.68586 10.513C8.68077 10.5038 8.67542 10.4949 8.67058 10.4855C8.65275 10.4534 8.63569 10.4205 8.61964 10.3869C8.61531 10.3783 8.61124 10.3693 8.60691 10.3607C8.59596 10.3378 8.58526 10.3151 8.57456 10.2924C8.56081 10.2631 8.54757 10.2341 8.53458 10.2053C8.20501 9.47845 8.10365 8.97926 8.10365 8.97926C8.10365 8.97926 7.90906 9.08521 7.82986 9.03351C7.75039 8.98181 7.6964 8.70776 7.56906 8.47676C7.44171 8.24551 7.30367 7.60191 7.39994 7.37218C7.49596 7.14246 7.69233 7.00645 7.84845 7.14857C7.74454 6.92215 7.43153 6.13873 7.47508 5.7646C7.51863 5.39072 7.49851 4.35414 8.08785 3.94231C8.6772 3.53073 9.05032 3.19989 9.66717 3.50756C9.66717 3.50756 10.4544 2.74273 11.4884 3.15787C12.5227 3.57276 13.2381 4.00394 13.4506 4.58132C13.663 5.1587 13.6867 5.96529 13.5529 6.43392C13.421 6.89515 13.2909 7.33067 13.287 7.34417C13.2944 7.33678 13.4067 7.22243 13.545 7.35996L13.5428 7.3597Z" fill="white"/>
<path d="M9.78789 11.462C9.81667 11.4734 9.84469 11.4844 9.87271 11.4943C9.84469 11.4844 9.81642 11.4737 9.78789 11.462Z" fill="white"/>
<path d="M9.95573 11.5226C10.01 11.5396 10.063 11.5536 10.1131 11.5646C10.0627 11.5536 10.01 11.5396 9.95573 11.5226Z" fill="white"/>
<path d="M20.1746 6.41278C19.6458 5.16251 18.8886 4.0396 17.9244 3.07535C16.9601 2.1111 15.8372 1.35392 14.587 0.825187C13.2924 0.277609 11.9173 0 10.5 0C9.08266 0 7.70735 0.277609 6.41278 0.825187C5.16251 1.35392 4.0396 2.11085 3.07535 3.07535C2.1111 4.0396 1.35417 5.16251 0.825187 6.41278C0.277609 7.70735 0 9.08266 0 10.5C0 11.9173 0.277609 13.2926 0.825187 14.5872C1.28261 15.6691 1.91117 16.6555 2.69714 17.5263C2.72312 17.5554 2.74935 17.5844 2.77635 17.6129C2.87338 17.7186 2.97322 17.8223 3.07535 17.9246C4.0396 18.8889 5.16251 19.6458 6.41278 20.1748C7.70735 20.7224 9.08266 21 10.5 21C11.9173 21 13.2924 20.7224 14.5872 20.1748C15.8375 19.6461 16.9604 18.8889 17.9246 17.9246C18.0268 17.8225 18.1264 17.7186 18.2237 17.6129C18.2506 17.5841 18.2769 17.5554 18.3029 17.5263C19.0888 16.6555 19.7174 15.6689 20.1748 14.5872C20.7224 13.2926 21 11.9173 21 10.5C21 9.08266 20.7224 7.70761 20.1748 6.41278H20.1746ZM18.1518 16.8211C17.8689 17.1631 17.5632 17.4858 17.2378 17.7871C15.4662 19.4263 13.0981 20.4292 10.5 20.4292C7.90193 20.4292 5.53359 19.4263 3.76199 17.7871C3.4365 17.4858 3.13087 17.1629 2.84792 16.8211C1.426 15.1027 0.5705 12.8992 0.5705 10.4997C0.5705 5.02473 5.02473 0.5705 10.5 0.5705C15.9753 0.5705 20.4295 5.02473 20.4295 10.5C20.4295 12.8994 19.574 15.103 18.1521 16.8213L18.1518 16.8211Z" fill="white"/>
<path d="M18.1518 16.8211C17.8689 17.1631 17.5632 17.4858 17.2378 17.7871C15.4662 19.4263 13.0981 20.4292 10.5 20.4292C7.90193 20.4292 5.53359 19.4263 3.76199 17.7871C3.4365 17.4858 3.13087 17.1629 2.84792 16.8211C3.01932 16.0333 3.24472 15.0528 3.37665 14.6866C3.57021 14.1499 3.8198 13.882 4.14478 13.6612C4.61825 13.4511 5.49768 13.0963 6.1288 12.8413C6.32618 12.78 6.50115 12.73 6.63002 12.699C7.1585 12.5711 7.82094 12.2181 8.28626 11.8855C8.64486 11.629 8.64638 10.9136 8.66829 10.4857C8.67338 10.4952 8.67848 10.5041 8.68382 10.5132C8.68561 10.5166 8.68764 10.5201 8.68968 10.5234C8.69529 10.5331 8.70089 10.5428 8.70675 10.5522C8.71413 10.5644 8.72152 10.5769 8.72916 10.5889C8.75717 10.6337 8.78672 10.6765 8.81728 10.718C8.83256 10.7386 8.8481 10.759 8.86414 10.7789C8.87204 10.7888 8.87993 10.7987 8.88808 10.8084C8.89623 10.8181 8.90438 10.8278 8.91253 10.8372C8.92068 10.8469 8.92883 10.8563 8.93724 10.8655C8.94564 10.8749 8.95405 10.8843 8.96245 10.8932C8.97926 10.9116 8.99658 10.9297 9.0139 10.947C9.02027 10.9536 9.02663 10.96 9.03326 10.9663C9.03962 10.9727 9.04599 10.9791 9.05261 10.9852C9.05363 10.9862 9.05465 10.9872 9.05541 10.988C9.08063 11.0124 9.10635 11.0359 9.13233 11.0585C9.13437 11.0606 9.13691 11.0624 9.13895 11.0641C9.15067 11.0746 9.16238 11.0845 9.17435 11.0944C9.17843 11.0978 9.1825 11.1013 9.18658 11.1044C9.19702 11.113 9.20772 11.1217 9.21816 11.1301C9.21918 11.1309 9.21994 11.1316 9.22096 11.1324C9.23293 11.1421 9.24515 11.1512 9.25763 11.1607C9.27699 11.1752 9.2966 11.1897 9.31621 11.2037C9.32487 11.2101 9.33353 11.2159 9.34219 11.2218C9.34499 11.2238 9.34754 11.2256 9.35009 11.2274C9.35187 11.2287 9.3534 11.2297 9.35518 11.2307C9.36766 11.2394 9.38039 11.2475 9.39287 11.2559C9.39797 11.2592 9.40332 11.2628 9.40841 11.2658C9.41783 11.272 9.42726 11.2778 9.43668 11.2837C9.4512 11.2928 9.46622 11.3018 9.48074 11.3102C9.48813 11.3147 9.49526 11.3188 9.50264 11.3229C9.51003 11.3272 9.51742 11.3316 9.5248 11.3354C9.53932 11.3438 9.55409 11.3517 9.56886 11.3596C9.56963 11.3601 9.57039 11.3606 9.57141 11.3611C9.58542 11.3685 9.59968 11.3761 9.61394 11.3833C9.62107 11.3871 9.62821 11.3906 9.63534 11.394C9.64247 11.3975 9.6496 11.4008 9.65648 11.4044C9.65648 11.4044 9.65673 11.4044 9.65724 11.4047C9.6715 11.4115 9.68576 11.4181 9.70003 11.4245C9.71403 11.4309 9.7283 11.4373 9.7423 11.4434C9.74256 11.4434 9.74307 11.4434 9.74332 11.4439C9.75784 11.4502 9.7721 11.4561 9.78637 11.462C9.81515 11.4737 9.84316 11.4846 9.87118 11.4943C9.88391 11.4989 9.89639 11.5032 9.90862 11.5075C9.91014 11.5078 9.91142 11.5086 9.91295 11.5091C9.9267 11.5139 9.94045 11.5182 9.95421 11.5226C10.0085 11.5396 10.0612 11.5536 10.1116 11.5646C10.1131 11.5648 10.1147 11.5654 10.1162 11.5656C10.1271 11.5682 10.1381 11.5705 10.149 11.5725C10.1613 11.575 10.1735 11.5771 10.1855 11.5791C10.1865 11.5791 10.1875 11.5794 10.1883 11.5796C10.1962 11.5811 10.2038 11.5824 10.2114 11.5834C10.2148 11.584 10.2183 11.5845 10.2216 11.585C10.2333 11.5868 10.2451 11.5883 10.2565 11.5896C10.2675 11.5908 10.2779 11.5918 10.2884 11.5929C10.2993 11.5939 10.31 11.5946 10.3204 11.5954C10.7776 11.6229 11.3654 11.4344 12.0898 10.7366C12.1002 10.7269 12.1101 10.7167 12.1201 10.7068C12.13 10.6969 12.1399 10.6869 12.1496 10.6768C12.1814 10.6442 12.2123 10.611 12.2421 10.5774C12.2558 10.5616 12.2698 10.5456 12.2833 10.5295C12.2986 10.5117 12.3134 10.4936 12.3276 10.4758C12.3427 10.8999 12.307 11.6092 12.7117 11.8852C13.1842 12.2077 13.8392 12.5709 14.3677 12.6987C14.4966 12.7298 14.6715 12.7797 14.8689 12.8411C15.4998 13.0963 16.3792 13.4511 16.8529 13.6609C17.1779 13.8817 17.4275 14.1497 17.6211 14.6863C17.7532 15.0525 17.9784 16.0331 18.15 16.8208L18.1518 16.8211Z" fill="white"/>
</svg>
