<svg width="21" height="21" viewBox="0 0 21 21" fill="none" xmlns="http://www.w3.org/2000/svg">
<path d="M13.4938 7.49524C13.6414 7.62135 13.5847 7.91122 13.5128 8.24215C13.4411 8.57309 13.2156 9.01107 13.1513 9.05995C13.087 9.10883 12.9089 9.04748 12.9089 9.04748C12.9089 9.04748 12.7795 9.68784 12.2382 10.2639C12.2232 10.2798 12.2079 10.2957 12.1924 10.3116C12.1784 10.3257 12.1642 10.3399 12.1494 10.3541C12.1189 10.3839 12.087 10.4132 12.0541 10.4423C12.0338 10.4602 12.0132 10.4778 11.9921 10.4954C11.2427 11.1154 10.6346 11.2829 10.1616 11.2587C9.70783 11.2352 8.8807 10.9426 8.45093 10.2727C8.43275 10.2441 8.41509 10.215 8.39823 10.1852C8.39375 10.1774 8.38953 10.1696 8.38505 10.162C8.37372 10.1417 8.36265 10.1214 8.35185 10.1014C8.33762 10.0752 8.32365 10.0496 8.31022 10.0239C7.96898 9.37817 7.86437 8.93457 7.86437 8.93457C7.86437 8.93457 7.66306 9.02891 7.58111 8.98272C7.49916 8.93677 7.44303 8.69333 7.31128 8.48803C7.17953 8.28248 7.03671 7.71056 7.13631 7.50673C7.23565 7.30264 7.43881 7.18191 7.60061 7.30802C7.4931 7.10687 7.16925 6.41055 7.21405 6.07815C7.25884 5.746 7.23803 4.82482 7.84803 4.45894C8.45778 4.09306 8.84355 3.79928 9.48201 4.07253C9.48201 4.07253 10.2962 3.39307 11.3663 3.76188C12.4364 4.13045 13.1766 4.51369 13.3963 5.02695C13.6164 5.53996 13.6409 6.25657 13.5023 6.67304C13.3658 7.08292 13.2311 7.46982 13.2269 7.4818C13.2346 7.4752 13.351 7.37377 13.4938 7.49573V7.49524Z" fill="white"/>
<path d="M14.0163 11.3268C13.4621 11.733 12.7779 11.4309 12.1644 11.4394C12.1326 11.4374 12.1005 11.4356 12.0684 11.4336C11.957 11.4274 11.8458 11.4221 11.7342 11.4182C11.5904 11.4132 11.4463 11.4099 11.3015 11.4094C11.1734 11.4084 11.0432 11.4077 10.9098 11.4057H10.1844C10.0641 11.4067 9.9449 11.4072 9.82722 11.4084C9.6516 11.4092 9.47599 11.4152 9.30038 11.4244C9.18609 11.4304 9.07206 11.4379 8.95803 11.4461C8.89697 11.4503 8.83539 11.4548 8.77433 11.4596C8.44555 11.4855 8.12434 11.52 7.7979 11.5499C7.50774 11.5796 7.16565 11.5896 6.95847 11.3518C6.76146 11.124 6.77189 10.8216 6.834 10.5391C6.95298 10.0288 7.11894 9.56797 7.18626 9.06744C7.2121 8.92971 7.22775 8.79671 7.24002 8.65798C7.25463 8.50328 7.2635 8.35282 7.26976 8.20261C7.33656 7.36298 7.23819 6.5256 7.23819 5.68822C7.24341 5.21738 7.48165 4.78147 7.8133 4.41468C8.14782 4.04265 8.63029 3.87073 9.11277 3.8867C9.11303 3.8867 9.11355 3.8867 9.11381 3.8867C9.26959 3.89169 9.42563 3.91664 9.57619 3.96055C9.60516 3.96904 9.63412 3.97827 9.66283 3.98825C9.68083 3.99449 9.69857 4.00073 9.71606 4.00746C9.7792 3.9391 9.84887 3.87572 9.92324 3.81733C9.95612 3.79138 9.98978 3.76643 10.0245 3.74272C10.5905 3.35398 11.384 3.23071 12.0423 3.47C12.2002 3.52739 12.3507 3.60599 12.4862 3.70654C12.827 3.95656 13.1075 4.27769 13.3152 4.63849C13.5482 5.04221 13.6896 5.49584 13.722 5.95296C13.7254 6.00086 13.7277 6.04877 13.7285 6.09693C13.6891 6.78809 13.7669 7.47701 13.7872 8.16793C13.7893 8.28869 13.793 8.40921 13.799 8.52973C13.8047 8.65 13.813 8.77051 13.8232 8.89053C13.8707 9.47865 14.0158 10.0436 14.1661 10.6332C14.2282 10.8759 14.2436 11.1584 14.0158 11.3268H14.0163Z" fill="white"/>
<path d="M12.0417 10.5213C12.0321 10.7857 11.9975 11.1734 11.9917 11.5503C11.884 11.5429 11.7765 11.5367 11.6685 11.5319C11.5295 11.526 11.3902 11.5221 11.2501 11.5215C11.1262 11.5203 11.0003 11.5195 10.8714 11.5171H10.1699C10.0536 11.5183 9.93824 11.5189 9.82444 11.5203C9.65462 11.5212 9.4848 11.5284 9.31498 11.5394C9.20446 11.5465 9.09419 11.5554 8.98392 11.5652C8.98468 11.2461 8.96752 10.9182 8.95969 10.6636C8.95591 10.5427 8.9544 10.4387 8.95793 10.3597C9.36948 11.2393 9.87592 11.3166 10.3104 11.3472C10.5216 11.362 10.7051 11.389 10.9138 11.3308C11.018 11.302 11.1285 11.2518 11.2514 11.1683C11.4106 11.0605 11.5915 10.8971 11.8078 10.652C11.828 10.6291 11.8476 10.606 11.8671 10.5822C11.8986 10.5442 11.9292 10.5056 11.9587 10.4663C11.9726 10.4479 11.9862 10.4292 11.9996 10.4105C12.0147 10.3897 12.0293 10.3686 12.0435 10.3478C12.045 10.3965 12.044 10.4551 12.0414 10.521L12.0417 10.5213Z" fill="white"/>
<path d="M20.1748 6.41278C19.6461 5.16251 18.8889 4.0396 17.9246 3.07535C16.9604 2.1111 15.8374 1.35392 14.5871 0.825187C13.2926 0.277609 11.9175 0 10.4999 0C9.08226 0 7.70745 0.277609 6.41285 0.825187C5.16258 1.35392 4.03965 2.11085 3.07539 3.07535C2.11113 4.0396 1.35419 5.16251 0.825198 6.41278C0.277613 7.70735 0 9.08266 0 10.5C0 11.9173 0.277613 13.2926 0.825198 14.5872C1.35394 15.8375 2.11113 16.9604 3.07539 17.9246C4.03965 18.8889 5.16258 19.6458 6.41285 20.1748C7.70745 20.7224 9.08252 21 10.4999 21C11.9172 21 13.2926 20.7224 14.5871 20.1748C15.8374 19.6461 16.9604 18.8889 17.9246 17.9246C18.8889 16.9604 19.6461 15.8375 20.1748 14.5872C20.7224 13.2926 21 11.9173 21 10.5C21 9.08266 20.7224 7.70761 20.1748 6.41278ZM17.7443 17.2841C17.5815 17.4578 17.4127 17.6256 17.238 17.7874C15.4663 19.4265 13.098 20.4295 10.4999 20.4295C7.90177 20.4295 5.53366 19.4265 3.76203 17.7874C3.58299 17.6218 3.41005 17.4497 3.24348 17.2714C1.58596 15.4962 0.570252 13.1144 0.570252 10.5C0.570252 5.02498 5.02454 0.5705 10.4999 0.5705C15.9752 0.5705 20.4295 5.02473 20.4295 10.5C20.4295 13.1207 19.4089 15.5077 17.7443 17.2841Z" fill="white"/>
<path d="M17.9117 17.183C17.7454 17.3601 17.5727 17.5313 17.3941 17.6963C15.5831 19.3683 13.162 20.3913 10.5061 20.3913C7.85016 20.3913 5.42934 19.3683 3.61829 17.6963C3.43525 17.5274 3.25847 17.3518 3.0882 17.17C3.09262 17.1284 3.09757 17.0855 3.10252 17.0416C3.18791 16.2784 3.33007 15.1852 3.47978 14.7708C3.67765 14.2235 3.9328 13.9502 4.26502 13.7249C4.74903 13.5106 5.35878 13.2355 6.01385 13.0022C6.21276 12.9313 8.22482 12.6092 8.70023 12.2696C8.88665 12.1366 8.93065 11.729 8.93169 11.303C9.04573 11.2944 9.1595 11.2866 9.27328 11.2804C9.4485 11.2708 9.62372 11.2643 9.79894 11.2637C9.91637 11.2624 10.0356 11.2619 10.1554 11.2609H10.8792C11.0122 11.263 11.1421 11.264 11.27 11.2648C11.4145 11.2653 11.5582 11.2687 11.7016 11.2739C11.8131 11.278 11.924 11.2835 12.0352 11.29C12.0276 11.716 12.0695 12.1265 12.2796 12.2696C12.7629 12.5985 14.7517 12.9778 14.9504 13.049C15.6057 13.2823 16.1999 13.5111 16.6839 13.7252C17.0161 13.9504 17.271 14.224 17.4691 14.7711C17.6188 15.1855 17.787 16.2786 17.8922 17.0419C17.899 17.0905 17.9052 17.1378 17.9115 17.1832L17.9117 17.183Z" fill="white"/>
</svg>
