<svg width="16" height="16" viewBox="0 0 16 16" fill="none" xmlns="http://www.w3.org/2000/svg">
<g clip-path="url(#clip0_81_39965)">
<path d="M4.92383 6.24216L6.85391 8.94392C6.93336 9.05515 7.03726 9.14668 7.15761 9.21149C7.27797 9.27629 7.41158 9.31263 7.54818 9.31772C7.68478 9.32282 7.82072 9.29652 7.94557 9.24086C8.07042 9.1852 8.18084 9.10166 8.26836 8.99666L14.5918 1.40759" stroke="white" stroke-width="1.5" stroke-linecap="round" stroke-linejoin="round"/>
<path d="M13.7129 7.12109V12.834C13.7129 13.3002 13.5277 13.7473 13.198 14.0769C12.8684 14.4066 12.4213 14.5918 11.9551 14.5918H3.16602C2.69981 14.5918 2.25271 14.4066 1.92305 14.0769C1.5934 13.7473 1.4082 13.3002 1.4082 12.834V4.04492C1.4082 3.57872 1.5934 3.13161 1.92305 2.80196C2.25271 2.47231 2.69981 2.28711 3.16602 2.28711H10.6367" stroke="white" stroke-width="1.5" stroke-linecap="round" stroke-linejoin="round"/>
</g>
<defs>
<clipPath id="clip0_81_39965">
<rect width="15" height="15" fill="white" transform="translate(0.5 0.5)"/>
</clipPath>
</defs>
</svg>
