<svg width="33" height="33" viewBox="0 0 33 33" fill="none" xmlns="http://www.w3.org/2000/svg">
<path d="M0 8C0 3.58172 3.58172 0 8 0H25C29.4183 0 33 3.58172 33 8V25C33 29.4183 29.4183 33 25 33H8C3.58172 33 0 29.4183 0 25V8Z" fill="#EA600E"/>
<path d="M5 22.207C5 24.9684 7.23858 27.207 10 27.207L23 27.207C25.7614 27.207 28 24.9684 28 22.207L28 10.0001C28 7.23865 25.7614 5.00008 23 5.00008L10 5.00008C7.23857 5.00008 5 7.23865 5 10.0001L5 22.207Z" fill="#FDFDFD"/>
<path fill-rule="evenodd" clip-rule="evenodd" d="M5 22.207C5 24.9684 7.23858 27.207 10 27.207L23 27.207C25.7614 27.207 28 24.9684 28 22.207L28 10.0001C28 7.23865 25.7614 5.00008 23 5.00008L10 5.00008C7.23857 5.00008 5 7.23865 5 10.0001L5 22.207ZM12.8882 25.707L23 25.707C24.933 25.707 26.5 24.14 26.5 22.207L26.5 10.0001C26.5 8.06713 24.933 6.50013 23 6.50013L12.8882 6.50013L12.8882 25.707ZM11.3882 25.707H10C8.067 25.707 6.5 24.14 6.5 22.207L6.5 10.0001C6.5 8.06714 8.067 6.50013 10 6.50013H11.3882L11.3882 25.707Z" fill="#EA600E"/>
<path d="M19.2758 12.9312L16.1671 15.5763C16.1469 15.5935 16.1309 15.6139 16.1199 15.6363C16.109 15.6587 16.1034 15.6828 16.1034 15.7071C16.1034 15.7314 16.109 15.7554 16.1199 15.7779C16.1309 15.8003 16.1469 15.8207 16.1671 15.8379L19.2758 18.4829" fill="#FDFDFD"/>
<path fill-rule="evenodd" clip-rule="evenodd" d="M19.847 18.969C20.1154 18.6535 20.0773 18.1802 19.7618 17.9117L17.1707 15.7071L19.7618 13.5024C20.0773 13.234 20.1154 12.7607 19.847 12.4452C19.5786 12.1297 19.1052 12.0916 18.7897 12.36L15.6815 15.0048C15.5874 15.0847 15.5047 15.1866 15.4457 15.3078C15.3863 15.4296 15.3534 15.5657 15.3534 15.7071C15.3534 15.8484 15.3863 15.9845 15.4457 16.1064C15.5047 16.2275 15.587 16.3291 15.6811 16.4091L18.7897 19.0542C19.1052 19.3226 19.5786 19.2844 19.847 18.969Z" fill="#EA600E"/>
</svg>
