<svg width="33" height="33" viewBox="0 0 33 33" fill="none" xmlns="http://www.w3.org/2000/svg">
<path d="M25 0H8C3.58172 0 0 3.58172 0 8V25C0 29.4183 3.58172 33 8 33H25C29.4183 33 33 29.4183 33 25V8C33 3.58172 29.4183 0 25 0Z" fill="white"/>
<mask id="mask0_8_3" style="mask-type:luminance" maskUnits="userSpaceOnUse" x="9" y="3" width="18" height="23">
<path d="M27 3H9V25.8058H27V3Z" fill="white"/>
</mask>
<g mask="url(#mask0_8_3)">
<mask id="mask1_8_3" style="mask-type:luminance" maskUnits="userSpaceOnUse" x="8" y="2" width="18" height="11">
<path d="M25.7373 2.3135H8.1318V12.9983H25.7373V2.3135Z" fill="white"/>
<path d="M21.9492 8.0977H11.2171C10.6095 8.0977 10.1123 8.579 10.1123 9.1788V10.6386C10.1123 11.2384 10.6095 11.7198 11.2171 11.7198H21.9492C22.5568 11.7198 23.054 11.2384 23.054 10.6386V9.1788C23.054 8.579 22.5568 8.0977 21.9492 8.0977Z" fill="black"/>
</mask>
<g mask="url(#mask1_8_3)">
<path d="M20.2136 7.0325H17.8541C17.8541 6.3459 17.2859 5.7856 16.5757 5.7856C15.8655 5.7856 15.2973 6.3459 15.2973 7.0325H12.9378C12.5196 7.0325 12.1724 7.3639 12.1724 7.7821V9.3052C12.1724 9.7155 12.5117 10.0548 12.9378 10.0548H20.2136C20.6318 10.0548 20.979 9.7234 20.979 9.3052V7.7821C20.979 7.3718 20.6397 7.0325 20.2136 7.0325Z" fill="url(#paint0_linear_8_3)"/>
</g>
<g opacity="0.66">
<path d="M21.9497 8.0977H11.2176C10.6099 8.0977 10.1128 8.5791 10.1128 9.1788V24.267C10.1128 24.8588 10.6099 25.3481 11.2176 25.3481H21.9497C22.5573 25.3481 23.0545 24.8667 23.0545 24.267V9.1709C23.0545 8.5712 22.5573 8.0898 21.9497 8.0898V8.0977Z" fill="#B9B9B9"/>
</g>
<path d="M21.9497 8.0977H11.2176C10.6099 8.0977 10.1128 8.5791 10.1128 9.1788V24.267C10.1128 24.8588 10.6099 25.3481 11.2176 25.3481H21.9497C22.5573 25.3481 23.0545 24.8667 23.0545 24.267V9.1709C23.0545 8.5712 22.5573 8.0898 21.9497 8.0898V8.0977Z" fill="url(#paint1_linear_8_3)"/>
<path d="M21.9497 8.2792C22.4547 8.2792 22.8651 8.6817 22.8651 9.1709V24.2591C22.8651 24.7562 22.4547 25.1508 21.9497 25.1508H11.2176C10.7125 25.1508 10.3022 24.7483 10.3022 24.2591V9.1709C10.3022 8.6738 10.7125 8.2792 11.2176 8.2792H21.9497ZM21.9497 8.0977H11.2176C10.6099 8.0977 10.1128 8.5791 10.1128 9.1788V24.267C10.1128 24.8588 10.6099 25.3481 11.2176 25.3481H21.9497C22.5573 25.3481 23.0545 24.8667 23.0545 24.267V9.1709C23.0545 8.5791 22.5573 8.0898 21.9497 8.0898V8.0977Z" fill="url(#paint2_linear_8_3)"/>
<path d="M19.3851 23.5092L17.8779 24.0853C17.6254 24.18 17.3807 23.9353 17.4754 23.6907L18.0594 22.215C18.1541 21.9783 18.2961 21.7652 18.4776 21.5837L25.2641 14.9393C25.5087 14.7025 25.9033 14.7025 26.14 14.9393L26.8108 15.6021C27.0554 15.8389 27.0554 16.2255 26.8108 16.4623L20.0243 23.1067C19.8428 23.2882 19.6218 23.4224 19.3772 23.5171L19.3851 23.5092Z" fill="url(#paint3_linear_8_3)"/>
<path d="M20.2768 13.535H12.8748C12.6144 13.535 12.4092 13.3298 12.4092 13.0773C12.4092 12.8248 12.6222 12.6196 12.8748 12.6196H20.2768C20.5372 12.6196 20.7424 12.8248 20.7424 13.0773C20.7424 13.3298 20.5293 13.535 20.2768 13.535Z" fill="white"/>
<path d="M20.2768 16.3915H12.8748C12.6144 16.3915 12.4092 16.1863 12.4092 15.9338C12.4092 15.6812 12.6222 15.4761 12.8748 15.4761H20.2768C20.5372 15.4761 20.7424 15.6812 20.7424 15.9338C20.7424 16.1863 20.5293 16.3915 20.2768 16.3915Z" fill="white"/>
<path d="M16.7573 19.2479H12.8748C12.6144 19.2479 12.4092 19.0427 12.4092 18.7902C12.4092 18.5377 12.6222 18.3325 12.8748 18.3325H16.7573C17.0177 18.3325 17.2229 18.5377 17.2229 18.7902C17.2229 19.0427 17.0098 19.2479 16.7573 19.2479Z" fill="white"/>
</g>
<g filter="url(#filter0_d_8_3)">
<path d="M23 28C26.866 28 30 24.866 30 21C30 17.134 26.866 14 23 14C19.134 14 16 17.134 16 21C16 24.866 19.134 28 23 28Z" fill="white"/>
</g>
<path d="M20 24L25.8878 18M20.0053 18.0093L26 23.9023" stroke="#FF0000" stroke-width="2" stroke-linecap="round"/>
<defs>
<filter id="filter0_d_8_3" x="12" y="14" width="22" height="22" filterUnits="userSpaceOnUse" color-interpolation-filters="sRGB">
<feFlood flood-opacity="0" result="BackgroundImageFix"/>
<feColorMatrix in="SourceAlpha" type="matrix" values="0 0 0 0 0 0 0 0 0 0 0 0 0 0 0 0 0 0 127 0" result="hardAlpha"/>
<feOffset dy="4"/>
<feGaussianBlur stdDeviation="2"/>
<feComposite in2="hardAlpha" operator="out"/>
<feColorMatrix type="matrix" values="0 0 0 0 0.829167 0 0 0 0 0.829167 0 0 0 0 0.829167 0 0 0 0.25 0"/>
<feBlend mode="normal" in2="BackgroundImageFix" result="effect1_dropShadow_8_3"/>
<feBlend mode="normal" in="SourceGraphic" in2="effect1_dropShadow_8_3" result="shape"/>
</filter>
<linearGradient id="paint0_linear_8_3" x1="13.8927" y1="5.7935" x2="19.2666" y2="11.2859" gradientUnits="userSpaceOnUse">
<stop stop-color="#666666"/>
<stop offset="0.0001" stop-color="#CFD0D2"/>
<stop offset="0.947917" stop-color="#F5F5F5"/>
</linearGradient>
<linearGradient id="paint1_linear_8_3" x1="9.4184" y1="9.3998" x2="23.741" y2="24.0302" gradientUnits="userSpaceOnUse">
<stop stop-color="#ACACAC"/>
<stop offset="1" stop-color="#D9D9D9"/>
</linearGradient>
<linearGradient id="paint2_linear_8_3" x1="8.353" y1="11.8619" x2="24.8142" y2="21.5681" gradientUnits="userSpaceOnUse">
<stop stop-color="#B6B6B6"/>
<stop offset="1" stop-color="#DADADA"/>
</linearGradient>
<linearGradient id="paint3_linear_8_3" x1="21.2553" y1="18.8612" x2="22.7784" y2="20.4079" gradientUnits="userSpaceOnUse">
<stop stop-color="#A2A2A2"/>
<stop offset="1" stop-color="#F0F0F0"/>
</linearGradient>
</defs>
</svg>
