<svg width="33" height="33" viewBox="0 0 33 33" fill="none" xmlns="http://www.w3.org/2000/svg">
<g filter="url(#filter0_d_3_28)">
<path d="M33 8H16C11.5817 8 8 11.5817 8 16V33C8 37.4183 11.5817 41 16 41H33C37.4183 41 41 37.4183 41 33V16C41 11.5817 37.4183 8 33 8Z" fill="white"/>
</g>
<mask id="mask0_3_28" style="mask-type:luminance" maskUnits="userSpaceOnUse" x="17" y="11" width="18" height="23">
<path d="M35 11H17V33.8058H35V11Z" fill="white"/>
</mask>
<g mask="url(#mask0_3_28)">
<mask id="mask1_3_28" style="mask-type:luminance" maskUnits="userSpaceOnUse" x="16" y="10" width="18" height="11">
<path d="M33.7373 10.3135H16.1318V20.9983H33.7373V10.3135Z" fill="white"/>
<path d="M29.9492 16.0977H19.2171C18.6095 16.0977 18.1123 16.579 18.1123 17.1788V18.6386C18.1123 19.2384 18.6095 19.7198 19.2171 19.7198H29.9492C30.5568 19.7198 31.054 19.2384 31.054 18.6386V17.1788C31.054 16.579 30.5568 16.0977 29.9492 16.0977Z" fill="black"/>
</mask>
<g mask="url(#mask1_3_28)">
<path d="M28.2136 15.0325H25.8541C25.8541 14.3459 25.2859 13.7856 24.5757 13.7856C23.8655 13.7856 23.2973 14.3459 23.2973 15.0325H20.9378C20.5196 15.0325 20.1724 15.3639 20.1724 15.7821V17.3052C20.1724 17.7155 20.5117 18.0548 20.9378 18.0548H28.2136C28.6318 18.0548 28.979 17.7234 28.979 17.3052V15.7821C28.979 15.3718 28.6397 15.0325 28.2136 15.0325Z" fill="url(#paint0_linear_3_28)"/>
</g>
<g opacity="0.66">
<path d="M29.9497 16.0977H19.2176C18.6099 16.0977 18.1128 16.5791 18.1128 17.1788V32.267C18.1128 32.8588 18.6099 33.3481 19.2176 33.3481H29.9497C30.5573 33.3481 31.0545 32.8667 31.0545 32.267V17.1709C31.0545 16.5712 30.5573 16.0898 29.9497 16.0898V16.0977Z" fill="#B9B9B9"/>
</g>
<path d="M29.9497 16.0977H19.2176C18.6099 16.0977 18.1128 16.5791 18.1128 17.1788V32.267C18.1128 32.8588 18.6099 33.3481 19.2176 33.3481H29.9497C30.5573 33.3481 31.0545 32.8667 31.0545 32.267V17.1709C31.0545 16.5712 30.5573 16.0898 29.9497 16.0898V16.0977Z" fill="url(#paint1_linear_3_28)"/>
<path d="M29.9497 16.2792C30.4547 16.2792 30.8651 16.6817 30.8651 17.1709V32.2591C30.8651 32.7562 30.4547 33.1508 29.9497 33.1508H19.2176C18.7125 33.1508 18.3022 32.7483 18.3022 32.2591V17.1709C18.3022 16.6738 18.7125 16.2792 19.2176 16.2792H29.9497ZM29.9497 16.0977H19.2176C18.6099 16.0977 18.1128 16.5791 18.1128 17.1788V32.267C18.1128 32.8588 18.6099 33.3481 19.2176 33.3481H29.9497C30.5573 33.3481 31.0545 32.8667 31.0545 32.267V17.1709C31.0545 16.5791 30.5573 16.0898 29.9497 16.0898V16.0977Z" fill="url(#paint2_linear_3_28)"/>
<path d="M27.3851 31.5092L25.8779 32.0853C25.6254 32.18 25.3807 31.9353 25.4754 31.6907L26.0594 30.215C26.1541 29.9783 26.2961 29.7652 26.4776 29.5837L33.2641 22.9393C33.5087 22.7025 33.9033 22.7025 34.14 22.9393L34.8108 23.6021C35.0554 23.8389 35.0554 24.2255 34.8108 24.4623L28.0243 31.1067C27.8428 31.2882 27.6218 31.4224 27.3772 31.5171L27.3851 31.5092Z" fill="url(#paint3_linear_3_28)"/>
<path d="M28.2768 21.535H20.8748C20.6144 21.535 20.4092 21.3298 20.4092 21.0773C20.4092 20.8248 20.6222 20.6196 20.8748 20.6196H28.2768C28.5372 20.6196 28.7424 20.8248 28.7424 21.0773C28.7424 21.3298 28.5293 21.535 28.2768 21.535Z" fill="white"/>
<path d="M28.2768 24.3915H20.8748C20.6144 24.3915 20.4092 24.1863 20.4092 23.9338C20.4092 23.6812 20.6222 23.4761 20.8748 23.4761H28.2768C28.5372 23.4761 28.7424 23.6812 28.7424 23.9338C28.7424 24.1863 28.5293 24.3915 28.2768 24.3915Z" fill="white"/>
<path d="M24.7573 27.2479H20.8748C20.6144 27.2479 20.4092 27.0427 20.4092 26.7902C20.4092 26.5377 20.6222 26.3325 20.8748 26.3325H24.7573C25.0177 26.3325 25.2229 26.5377 25.2229 26.7902C25.2229 27.0427 25.0098 27.2479 24.7573 27.2479Z" fill="white"/>
</g>
<g filter="url(#filter1_d_3_28)">
<path d="M31 36C34.866 36 38 32.866 38 29C38 25.134 34.866 22 31 22C27.134 22 24 25.134 24 29C24 32.866 27.134 36 31 36Z" fill="white"/>
</g>
<path d="M28 32L33.8878 26M28.0053 26.0093L34 31.9023" stroke="#FF0000" stroke-width="2" stroke-linecap="round"/>
<defs>
<filter id="filter0_d_3_28" x="1" y="1" width="51" height="51" filterUnits="userSpaceOnUse" color-interpolation-filters="sRGB">
<feFlood flood-opacity="0" result="BackgroundImageFix"/>
<feColorMatrix in="SourceAlpha" type="matrix" values="0 0 0 0 0 0 0 0 0 0 0 0 0 0 0 0 0 0 127 0" result="hardAlpha"/>
<feOffset dx="2" dy="2"/>
<feGaussianBlur stdDeviation="4.5"/>
<feComposite in2="hardAlpha" operator="out"/>
<feColorMatrix type="matrix" values="0 0 0 0 0.229167 0 0 0 0 0.229167 0 0 0 0 0.229167 0 0 0 0.11 0"/>
<feBlend mode="normal" in2="BackgroundImageFix" result="effect1_dropShadow_3_28"/>
<feBlend mode="normal" in="SourceGraphic" in2="effect1_dropShadow_3_28" result="shape"/>
</filter>
<filter id="filter1_d_3_28" x="20" y="22" width="22" height="22" filterUnits="userSpaceOnUse" color-interpolation-filters="sRGB">
<feFlood flood-opacity="0" result="BackgroundImageFix"/>
<feColorMatrix in="SourceAlpha" type="matrix" values="0 0 0 0 0 0 0 0 0 0 0 0 0 0 0 0 0 0 127 0" result="hardAlpha"/>
<feOffset dy="4"/>
<feGaussianBlur stdDeviation="2"/>
<feComposite in2="hardAlpha" operator="out"/>
<feColorMatrix type="matrix" values="0 0 0 0 0.829167 0 0 0 0 0.829167 0 0 0 0 0.829167 0 0 0 0.25 0"/>
<feBlend mode="normal" in2="BackgroundImageFix" result="effect1_dropShadow_3_28"/>
<feBlend mode="normal" in="SourceGraphic" in2="effect1_dropShadow_3_28" result="shape"/>
</filter>
<linearGradient id="paint0_linear_3_28" x1="21.8927" y1="13.7935" x2="27.2666" y2="19.2859" gradientUnits="userSpaceOnUse">
<stop stop-color="#666666"/>
<stop offset="0.0001" stop-color="#CFD0D2"/>
<stop offset="0.947917" stop-color="#F5F5F5"/>
</linearGradient>
<linearGradient id="paint1_linear_3_28" x1="17.4184" y1="17.3998" x2="31.741" y2="32.0302" gradientUnits="userSpaceOnUse">
<stop stop-color="#ACACAC"/>
<stop offset="1" stop-color="#D9D9D9"/>
</linearGradient>
<linearGradient id="paint2_linear_3_28" x1="16.353" y1="19.8619" x2="32.8142" y2="29.5681" gradientUnits="userSpaceOnUse">
<stop stop-color="#B6B6B6"/>
<stop offset="1" stop-color="#DADADA"/>
</linearGradient>
<linearGradient id="paint3_linear_3_28" x1="29.2553" y1="26.8612" x2="30.7784" y2="28.4079" gradientUnits="userSpaceOnUse">
<stop stop-color="#A2A2A2"/>
<stop offset="1" stop-color="#F0F0F0"/>
</linearGradient>
</defs>
</svg>
