<svg width="25" height="25" viewBox="0 0 25 25" fill="none" xmlns="http://www.w3.org/2000/svg">
<circle cx="12.5" cy="12.5" r="12.5" fill="white"/>
<path d="M13.0773 18.9235H5.82228C5.61974 18.9235 5.42549 18.8431 5.28227 18.6999C5.13905 18.5566 5.05859 18.3624 5.05859 18.1599V5.94093C5.05859 5.73839 5.13905 5.54414 5.28227 5.40092C5.42549 5.25771 5.61974 5.17725 5.82228 5.17725H17.2775C17.4801 5.17725 17.6743 5.25771 17.8175 5.40092C17.9607 5.54414 18.0412 5.73839 18.0412 5.94093V13.5778" stroke="#EA600E" stroke-linecap="round" stroke-linejoin="round"/>
<path d="M9.25977 8.23181H14.6055" stroke="#EA600E" stroke-linecap="round" stroke-linejoin="round"/>
<path d="M7.73242 10.5228H14.6056" stroke="#EA600E" stroke-linecap="round" stroke-linejoin="round"/>
<path d="M7.73242 12.814H14.6056" stroke="#EA600E" stroke-linecap="round" stroke-linejoin="round"/>
<path d="M7.73242 15.105H12.6964" stroke="#EA600E" stroke-linecap="round" stroke-linejoin="round"/>
<path d="M13.5625 19.6184L18.3584 14.8225L20.6495 17.1143L15.8535 21.9103L13.5625 19.6184Z" stroke="#EA600E" stroke-linecap="round" stroke-linejoin="round"/>
<path d="M13.5629 19.6184L15.854 21.9095L12.6465 22.8259L13.5629 19.6184Z" stroke="#EA600E" stroke-linecap="round" stroke-linejoin="round"/>
<path d="M21.3358 16.4262L20.6485 17.1135L18.3574 14.8225L19.0447 14.1351C19.1952 13.9847 19.3738 13.8654 19.5703 13.784C19.7669 13.7025 19.9775 13.6606 20.1903 13.6606C20.403 13.6606 20.6137 13.7025 20.8102 13.784C21.0068 13.8654 21.1854 13.9847 21.3358 14.1351C21.4862 14.2856 21.6055 14.4642 21.687 14.6607C21.7684 14.8573 21.8103 15.0679 21.8103 15.2807C21.8103 15.4934 21.7684 15.7041 21.687 15.9006C21.6055 16.0972 21.4862 16.2758 21.3358 16.4262Z" stroke="#EA600E" stroke-linecap="round" stroke-linejoin="round"/>
</svg>
