<svg width="37" height="37" viewBox="0 0 37 37" fill="none" xmlns="http://www.w3.org/2000/svg">
<path d="M18.5 37C28.7173 37 37 28.7173 37 18.5C37 8.28273 28.7173 0 18.5 0C8.28273 0 0 8.28273 0 18.5C0 28.7173 8.28273 37 18.5 37Z" fill="#E6E5E5"/>
<path d="M25.5625 8.94529C25.5479 8.94529 25.5362 8.9375 25.5216 8.9375H10.9115C10.6532 8.9375 10.4054 9.04007 10.2228 9.22264C10.0401 9.40521 9.9375 9.65283 9.9375 9.91102V24.5625L25.5625 8.94529Z" fill="#E6E5E5"/>
<path d="M20.1673 26.4375H10.9118C10.6534 26.4375 10.4056 26.3351 10.2229 26.1527C10.0401 25.9704 9.9375 25.7231 9.9375 25.4653V9.90972C9.9375 9.65187 10.0401 9.40458 10.2229 9.22226C10.4056 9.03993 10.6534 8.9375 10.9118 8.9375H25.5257C25.7841 8.9375 26.0319 9.03993 26.2146 9.22226C26.3974 9.40458 26.5 9.65187 26.5 9.90972V19.6319" stroke="#4D4C4C" stroke-linecap="round" stroke-linejoin="round"/>
<path d="M15.25 12.6875H22.125" stroke="#4D4C4C" stroke-linecap="round" stroke-linejoin="round"/>
<path d="M13.375 15.8125H22.125" stroke="#4D4C4C" stroke-linecap="round" stroke-linejoin="round"/>
<path d="M13.375 18.625H22.125" stroke="#4D4C4C" stroke-linecap="round" stroke-linejoin="round"/>
<path d="M13.375 21.4375H19.625" stroke="#4D4C4C" stroke-linecap="round" stroke-linejoin="round"/>
<path d="M24.7812 27.375C26.766 27.375 28.3749 25.766 28.3749 23.7812C28.3749 21.7964 26.766 20.1875 24.7812 20.1875C22.7964 20.1875 21.1874 21.7964 21.1874 23.7812C21.1874 25.766 22.7964 27.375 24.7812 27.375Z" fill="#E6E5E5"/>
<path d="M23.0625 23.9375L24.2083 25.1875L26.5 22.6875" stroke="#4D4C4C" stroke-linecap="round" stroke-linejoin="round"/>
</svg>
