<svg width="303" height="286" viewBox="0 0 303 286" fill="none" xmlns="http://www.w3.org/2000/svg">
<path d="M181.09 50.1851L235.577 215.348L98.9293 260.479L35.2168 67.3589L143.888 31.4654L153.112 59.428L181.09 50.1851Z" fill="#E1E1E1"/>
<path d="M181.09 50.1846L153.112 59.4275L143.888 31.4649L181.09 50.1846Z" fill="#FF0000"/>
<path d="M168.978 78.0059L112.364 96.7012L113.865 101.252L170.479 82.5565L168.978 78.0059Z" fill="#F3F3F3"/>
<path d="M172.841 89.7061L116.226 108.401L117.727 112.952L174.342 94.2567L172.841 89.7061Z" fill="#F3F3F3"/>
<path d="M176.699 101.412L120.084 120.107L121.585 124.658L178.2 105.963L176.699 101.412Z" fill="#F3F3F3"/>
<path d="M180.558 113.118L82.2988 145.564L83.7997 150.115L182.058 117.668L180.558 113.118Z" fill="#F3F3F3"/>
<path d="M184.422 124.821L86.1631 157.268L87.664 161.819L185.923 129.372L184.422 124.821Z" fill="#F3F3F3"/>
<path d="M188.279 136.527L90.02 168.974L91.5209 173.525L189.78 141.078L188.279 136.527Z" fill="#F3F3F3"/>
<path d="M192.141 148.227L93.8823 180.674L95.3832 185.225L193.642 152.778L192.141 148.227Z" fill="#F3F3F3"/>
<path d="M196 159.937L97.7412 192.384L99.2421 196.935L197.501 164.488L196 159.937Z" fill="#F3F3F3"/>
<path d="M199.862 171.638L101.604 204.084L103.104 208.635L201.363 176.188L199.862 171.638Z" fill="#F3F3F3"/>
<path d="M181.597 190.649L127.587 208.484L129.088 213.035L183.098 195.2L181.597 190.649Z" fill="#F3F3F3"/>
<path d="M103.906 99.4935L70.7197 110.452L79.9426 138.414L113.129 127.456L103.906 99.4935Z" fill="#F3F3F3"/>
<g style="mix-blend-mode:multiply" opacity="0.6">
<path d="M46.526 106.213L95.4072 254.414L98.1614 253.505L49.2802 105.304L46.526 106.213Z" fill="#FF0000"/>
</g>
<path d="M297.639 100.26L248.638 267.133L110.546 226.634L167.839 31.513L277.66 63.7184L269.364 91.9701L297.639 100.26Z" fill="#E1E1E1"/>
<path d="M297.639 100.26L269.364 91.97L277.66 63.7183L297.639 100.26Z" fill="#FF0000"/>
<path d="M271.865 116.273L214.654 99.4912L213.303 104.089L270.515 120.87L271.865 116.273Z" fill="#F3F3F3"/>
<path d="M268.396 128.096L211.185 111.314L209.834 115.911L267.045 132.693L268.396 128.096Z" fill="#F3F3F3"/>
<path d="M264.919 139.921L207.708 123.139L206.358 127.737L263.569 144.518L264.919 139.921Z" fill="#F3F3F3"/>
<path d="M261.444 151.746L162.15 122.62L160.8 127.218L260.094 156.343L261.444 151.746Z" fill="#F3F3F3"/>
<path d="M257.975 163.572L158.681 134.447L157.33 139.044L256.624 168.17L257.975 163.572Z" fill="#F3F3F3"/>
<path d="M254.498 175.397L155.204 146.271L153.854 150.868L253.148 179.994L254.498 175.397Z" fill="#F3F3F3"/>
<path d="M251.028 187.219L151.734 158.094L150.384 162.691L249.678 191.817L251.028 187.219Z" fill="#F3F3F3"/>
<path d="M247.551 199.049L148.257 169.923L146.907 174.52L246.2 203.646L247.551 199.049Z" fill="#F3F3F3"/>
<path d="M244.082 210.871L144.788 181.746L143.438 186.343L242.732 215.469L244.082 210.871Z" fill="#F3F3F3"/>
<path d="M218.249 216.139L163.67 200.129L162.32 204.727L216.899 220.736L218.249 216.139Z" fill="#F3F3F3"/>
<path d="M206.107 96.9839L172.571 87.147L164.274 115.398L197.809 125.235L206.107 96.9839Z" fill="#F3F3F3"/>
<g style="mix-blend-mode:multiply" opacity="0.6">
<path d="M155.07 69.9123L111.094 219.642L113.877 220.458L157.854 70.7287L155.07 69.9123Z" fill="#FF0000"/>
</g>
<circle cx="168" cy="214" r="56" fill="#FFDCDC"/>
<path d="M139 243L195.916 185M139.051 185.09L197 242.056" stroke="#FF0000" stroke-width="8" stroke-linecap="round"/>
</svg>
