<svg width="212" height="158" viewBox="0 0 212 158" fill="none" xmlns="http://www.w3.org/2000/svg">
<ellipse cx="113.5" cy="82" rx="72.5" ry="73" fill="#FF0000" fill-opacity="0.55"/>
<path d="M106.183 7.3645C125.182 7.3645 143.403 14.9118 156.837 28.346C170.271 41.7803 177.819 60.001 177.819 78.9999C177.819 97.9988 170.271 116.22 156.837 129.654C143.403 143.088 125.182 150.635 106.183 150.635C87.1844 150.635 68.9636 143.088 55.5294 129.654C42.0951 116.22 34.5479 97.9988 34.5479 78.9999C34.5479 60.001 42.0951 41.7803 55.5294 28.346C68.9636 14.9118 87.1844 7.3645 106.183 7.3645Z" stroke="#4D4D4D" stroke-width="5" stroke-miterlimit="10" stroke-linecap="round" stroke-linejoin="round"/>
<path d="M196.463 128.135C190.952 138.237 184.523 147.421 176.258 154.768" stroke="#4D4D4D" stroke-width="5" stroke-miterlimit="10" stroke-linecap="round" stroke-linejoin="round"/>
<path d="M196.463 29.8654C190.952 19.7629 184.523 10.5789 176.258 3.23169" stroke="#4D4D4D" stroke-width="5" stroke-miterlimit="10" stroke-linecap="round" stroke-linejoin="round"/>
<path d="M207.483 98.2863C208.402 91.8575 209.32 85.4287 209.32 78.9998C209.32 72.571 208.402 66.1422 207.483 59.7134" stroke="#4D4D4D" stroke-width="5" stroke-miterlimit="10" stroke-linecap="round" stroke-linejoin="round"/>
<path d="M15.9043 128.135C21.4147 138.237 27.8435 147.421 36.1092 154.768" stroke="#4D4D4D" stroke-width="5" stroke-miterlimit="10" stroke-linecap="round" stroke-linejoin="round"/>
<path d="M15.9043 29.8654C21.4147 19.7629 27.8435 10.5789 36.1092 3.23169" stroke="#4D4D4D" stroke-width="5" stroke-miterlimit="10" stroke-linecap="round" stroke-linejoin="round"/>
<path d="M4.88368 98.2863C3.96528 91.8575 3.04688 85.4287 3.04688 78.9998C3.04688 72.571 3.96528 66.1422 4.88368 59.7134" stroke="#4D4D4D" stroke-width="5" stroke-miterlimit="10" stroke-linecap="round" stroke-linejoin="round"/>
<path d="M108.234 92.9688H103.125L100.969 43.4688H110.391L108.234 92.9688ZM100.031 107.125C100.031 104.938 100.562 103.391 101.625 102.484C102.688 101.547 104.016 101.078 105.609 101.078C107.172 101.078 108.484 101.547 109.547 102.484C110.641 103.391 111.188 104.938 111.188 107.125C111.188 109.281 110.641 110.859 109.547 111.859C108.484 112.828 107.172 113.312 105.609 113.312C104.016 113.312 102.688 112.828 101.625 111.859C100.562 110.859 100.031 109.281 100.031 107.125Z" fill="#F5F5F5"/>
</svg>
