<svg width="33" height="33" viewBox="0 0 33 33" fill="none" xmlns="http://www.w3.org/2000/svg">
<path d="M33 25C33 29.4183 29.4183 33 25 33H8C3.58172 33 -3.86257e-07 29.4183 0 25L1.48619e-06 8C1.87245e-06 3.58172 3.58173 -3.86254e-07 8 0L25 1.48619e-06C29.4183 1.87245e-06 33 3.58173 33 8V25Z" fill="#EA600E"/>
<path d="M28 10.793C28 8.0316 25.7614 5.79303 23 5.79303H10C7.23858 5.79303 5 8.0316 5 10.793V22.9999C5 25.7613 7.23858 27.9999 10 27.9999H23C25.7614 27.9999 28 25.7613 28 22.9999V10.793Z" fill="#FDFDFD"/>
<path fill-rule="evenodd" clip-rule="evenodd" d="M28 10.793C28 8.0316 25.7614 5.79303 23 5.79303H10C7.23858 5.79303 5 8.0316 5 10.793V22.9999C5 25.7613 7.23858 27.9999 10 27.9999H23C25.7614 27.9999 28 25.7613 28 22.9999V10.793ZM20.1118 7.29297L10 7.29297C8.067 7.29297 6.5 8.85997 6.5 10.793V22.9999C6.5 24.9329 8.067 26.4999 10 26.4999H20.1118V7.29297ZM21.6118 7.29297L23 7.29297C24.933 7.29297 26.5 8.85997 26.5 10.793V22.9999C26.5 24.9329 24.933 26.4999 23 26.4999H21.6118V7.29297Z" fill="#EA600E"/>
<path d="M13.7242 20.0688L16.8329 17.4237C16.8531 17.4065 16.8691 17.3861 16.8801 17.3637C16.891 17.3413 16.8966 17.3172 16.8966 17.2929C16.8966 17.2686 16.891 17.2446 16.8801 17.2221C16.8691 17.1997 16.8531 17.1793 16.8329 17.1621L13.7242 14.5171" fill="#FDFDFD"/>
<path fill-rule="evenodd" clip-rule="evenodd" d="M13.153 14.031C12.8846 14.3465 12.9227 14.8198 13.2382 15.0883L15.8293 17.2929L13.2382 19.4976C12.9227 19.766 12.8846 20.2393 13.153 20.5548C13.4214 20.8703 13.8948 20.9084 14.2103 20.64L17.3185 17.9952C17.4126 17.9153 17.4953 17.8134 17.5543 17.6922C17.6137 17.5704 17.6466 17.4343 17.6466 17.2929C17.6466 17.1516 17.6137 17.0155 17.5543 16.8936C17.4953 16.7725 17.413 16.6709 17.3189 16.5909L14.2103 13.9458C13.8948 13.6774 13.4214 13.7156 13.153 14.031Z" fill="#EA600E"/>
</svg>
