<svg width="40" height="40" viewBox="0 0 40 40" fill="none" xmlns="http://www.w3.org/2000/svg">
<circle cx="20" cy="20" r="20" fill="#E2E2E2"/>
<path d="M26.3883 2.96289L5.92578 8.71387L13.702 35.5552L34.0581 29.1053L26.3883 2.96289Z" fill="#EA600E"/>
<path d="M26.3883 2.96329L6.70703 8.76562L14.3989 34.7768L34.0801 28.9745L26.3883 2.96329Z" fill="white"/>
<path d="M16.2134 17.0051L11.1776 18.4006C11.1739 18.4018 11.17 18.3997 11.1688 18.396L11.0725 18.0897C11.0715 18.0863 11.0735 18.0826 11.0772 18.0814L16.113 16.6859C16.1167 16.6847 16.1206 16.6868 16.1218 16.6905L16.2181 16.9967C16.2193 17.0002 16.2171 17.0039 16.2132 17.0051H16.2134Z" fill="#EA600E"/>
<path d="M24.1034 14.6225L17.0119 16.6864C17.0074 16.6876 17.0027 16.6852 17.0012 16.6808L16.9051 16.3597C16.9039 16.3553 16.9063 16.3506 16.9108 16.3494L24.0023 14.2855C24.0068 14.2842 24.0115 14.2867 24.013 14.2911L24.1091 14.6122C24.1103 14.6166 24.1079 14.6212 24.1034 14.6225Z" fill="#EA600E"/>
<path d="M27.1861 11.5351L10.4993 16.3428C10.4913 16.3452 10.4825 16.3406 10.4803 16.3328L10.3869 16.0241C10.3844 16.0163 10.3892 16.0078 10.3972 16.0056L27.0839 11.1979C27.092 11.1955 27.1007 11.2001 27.103 11.2079L27.1964 11.5166C27.1989 11.5244 27.1941 11.5329 27.1861 11.5351Z" fill="#EA600E"/>
<path d="M25.8136 12.9181L10.8407 17.3728C10.833 17.3751 10.825 17.3705 10.8227 17.363L10.7291 17.0437C10.7268 17.0359 10.7313 17.0278 10.7388 17.0256L25.7117 12.5709C25.7195 12.5686 25.7275 12.5732 25.7297 12.5807L25.8233 12.9C25.8256 12.9078 25.8211 12.9159 25.8136 12.9181Z" fill="#EA600E"/>
<path d="M26.5001 14.9767L11.5272 19.4314C11.5195 19.4337 11.5115 19.4291 11.5092 19.4216L11.4156 19.1023C11.4134 19.0945 11.4179 19.0864 11.4254 19.0842L26.3983 14.6295C26.406 14.6272 26.414 14.6318 26.4162 14.6393L26.5099 14.9586C26.5121 14.9664 26.5076 14.9745 26.5001 14.9767Z" fill="#EA600E"/>
<path d="M15.5274 13.9191L10.4916 15.3147C10.4879 15.3158 10.484 15.3138 10.4827 15.3101L10.3865 15.0038C10.3855 15.0003 10.3875 14.9966 10.3912 14.9955L15.4269 13.5999C15.4306 13.5988 15.4346 13.6009 15.4358 13.6046L15.5321 13.9108C15.5333 13.9143 15.5311 13.918 15.5271 13.9191H15.5274Z" fill="#EA600E"/>
<path d="M23.4169 11.5346L16.3253 13.5985C16.3209 13.5997 16.3162 13.5973 16.3147 13.5929L16.2186 13.2718C16.2173 13.2674 16.2198 13.2627 16.2243 13.2615L23.3158 11.1976C23.3203 11.1964 23.325 11.1988 23.3265 11.2032L23.4226 11.5243C23.4238 11.5287 23.4213 11.5333 23.4169 11.5348V11.5346Z" fill="#EA600E"/>
<path d="M13.1146 11.2925C13.1316 11.3921 13.135 11.4885 13.1251 11.581C13.115 11.6735 13.0914 11.7587 13.0542 11.8366C13.0167 11.9142 12.9657 11.9832 12.9008 12.0437C12.8358 12.104 12.757 12.1519 12.6642 12.1868C12.568 12.2232 12.4766 12.2344 12.3902 12.2209C12.3037 12.2071 12.2247 12.1704 12.153 12.1104C12.0813 12.0505 12.018 11.9691 11.9633 11.866C11.9084 11.7629 11.8648 11.6406 11.8322 11.499L11.803 11.3724C11.7704 11.2308 11.7557 11.0974 11.7587 10.972C11.7619 10.8465 11.7812 10.7337 11.8168 10.6332C11.8524 10.5327 11.9036 10.4466 11.9707 10.3744C12.0377 10.3024 12.1185 10.2483 12.2134 10.2125C12.3069 10.1772 12.3934 10.1628 12.4731 10.1696C12.5528 10.1763 12.6247 10.2004 12.6888 10.2416C12.7529 10.283 12.8084 10.3397 12.856 10.4123C12.9033 10.4848 12.9421 10.5683 12.9722 10.6632L12.6628 10.7798C12.6463 10.724 12.6268 10.6764 12.6047 10.637C12.5825 10.5977 12.5567 10.5674 12.5271 10.5459C12.4975 10.5245 12.463 10.513 12.4238 10.511C12.3845 10.5092 12.3395 10.5177 12.2885 10.5368C12.184 10.5762 12.1174 10.6544 12.0887 10.7707C12.06 10.8873 12.0692 11.0475 12.116 11.2514L12.1459 11.3806C12.1688 11.4799 12.1946 11.5648 12.223 11.6354C12.2515 11.7059 12.2839 11.7614 12.32 11.8022C12.356 11.8431 12.3962 11.8689 12.4408 11.8792C12.4853 11.8895 12.5351 11.8845 12.59 11.8636C12.6387 11.8451 12.6794 11.8222 12.7115 11.7949C12.7437 11.7676 12.7682 11.735 12.7855 11.6973C12.8027 11.6597 12.8128 11.6171 12.8158 11.569C12.819 11.5211 12.8158 11.4676 12.8059 11.4091L13.1153 11.2925H13.1146Z" fill="#EA600E"/>
<path d="M14.7892 10.5164C14.8312 10.6395 14.8493 10.7546 14.8445 10.8619C14.8394 10.9692 14.8139 11.0656 14.7679 11.151C14.7216 11.2364 14.6563 11.3097 14.572 11.371C14.4877 11.4322 14.3872 11.4778 14.2708 11.5075C14.1544 11.5373 14.0417 11.5464 13.9324 11.5346C13.8232 11.523 13.7221 11.4923 13.6287 11.4423C13.5356 11.3926 13.4527 11.324 13.3806 11.2364C13.3082 11.1488 13.2512 11.0435 13.2094 10.9207L13.1853 10.8501C13.1436 10.7278 13.1254 10.6129 13.1308 10.5051C13.1362 10.3974 13.162 10.3002 13.2083 10.214C13.2546 10.1277 13.3201 10.0541 13.4045 9.99285C13.4888 9.93158 13.5893 9.88606 13.7056 9.85629C13.822 9.82652 13.9347 9.81742 14.044 9.82923C14.1533 9.84079 14.2544 9.87204 14.3475 9.92273C14.4403 9.97341 14.5229 10.0428 14.595 10.1306C14.6671 10.2187 14.7239 10.3238 14.7653 10.4461L14.7894 10.5167L14.7892 10.5164ZM14.377 10.5428C14.3196 10.3742 14.241 10.2549 14.1417 10.1853C14.042 10.1154 13.9279 10.0972 13.7987 10.1301C13.6696 10.1631 13.5853 10.2325 13.5453 10.3378C13.5055 10.4434 13.5143 10.5802 13.5717 10.749L13.5963 10.8218C13.625 10.9057 13.6594 10.9775 13.6997 11.0373C13.74 11.0971 13.7846 11.1444 13.8339 11.1795C13.8833 11.2145 13.9367 11.2369 13.9946 11.2465C14.0522 11.2561 14.1136 11.2526 14.178 11.2361C14.3072 11.2032 14.3909 11.1335 14.4298 11.0277C14.4684 10.9217 14.459 10.7844 14.4017 10.6158L14.377 10.543V10.5428Z" fill="#EA600E"/>
<path d="M16.5611 10.7988L16.2422 10.8997L15.3209 10.0039L15.6214 11.0963L15.3024 11.1971L14.8457 9.537L15.1646 9.43615L16.0876 10.3339L15.7864 9.23927L16.1041 9.13867L16.5609 10.7988H16.5611Z" fill="#EA600E"/>
<path d="M17.5906 9.0934L17.104 9.2551L17.4946 10.7448L17.1672 10.8534L16.7766 9.36371L16.2965 9.52321L16.2183 9.22473L17.5121 8.79492L17.5903 9.0934H17.5906Z" fill="#EA600E"/>
<path d="M18.4807 9.64805L18.2184 9.73596L18.391 10.3993L18.0618 10.5096L17.5903 8.69745L18.1837 8.49863C18.2759 8.46784 18.3616 8.45204 18.4408 8.45121C18.52 8.45037 18.5909 8.46452 18.6534 8.49363C18.716 8.52275 18.7695 8.56684 18.8142 8.62591C18.859 8.68497 18.8929 8.75929 18.9164 8.84886C18.9338 8.91514 18.9426 8.97698 18.943 9.0341C18.9435 9.09122 18.9367 9.14447 18.9225 9.19383C18.9083 9.24319 18.8878 9.28922 18.8607 9.33165C18.8336 9.37408 18.801 9.41401 18.7629 9.45089L19.3011 10.0757L19.3057 10.0931L18.9526 10.2115L18.4804 9.64833L18.4807 9.64805ZM18.1397 9.43342L18.4051 9.3444C18.4484 9.32998 18.4846 9.31085 18.5136 9.287C18.5427 9.26315 18.5652 9.23598 18.5806 9.20492C18.596 9.17414 18.605 9.14031 18.6075 9.10398C18.6099 9.06765 18.6058 9.02911 18.5953 8.98834C18.573 8.90294 18.5342 8.84276 18.4787 8.8081C18.4232 8.77343 18.3511 8.77094 18.2627 8.80061L17.9982 8.88907L18.1397 9.43314V9.43342Z" fill="#EA600E"/>
<path d="M20.5094 9.46593L19.9806 9.65417L19.9692 10.0536L19.6484 10.1678L19.7613 8.20876L20.0408 8.10938L21.0207 9.67929L20.7 9.79352L20.5094 9.46593ZM19.99 9.33063L20.356 9.20045L20.0102 8.60522L19.99 9.33063Z" fill="#EA600E"/>
<path d="M22.374 8.70273C22.3953 8.78572 22.3996 8.86603 22.3872 8.94315C22.3749 9.02027 22.3451 9.09128 22.2985 9.15616C22.2518 9.22079 22.188 9.27833 22.1068 9.32876C22.0255 9.37895 21.9271 9.41886 21.8111 9.448C21.6908 9.47836 21.5766 9.48766 21.4686 9.4764C21.3607 9.46489 21.2616 9.43429 21.1721 9.38434C21.0825 9.33439 21.0033 9.26658 20.935 9.18064C20.8664 9.0947 20.8118 8.99285 20.771 8.87484L20.7346 8.76932C20.6938 8.65131 20.6755 8.54016 20.6792 8.43561C20.6832 8.33107 20.7073 8.23705 20.7518 8.15332C20.7963 8.06959 20.8603 7.99785 20.9442 7.93762C21.028 7.87764 21.129 7.83259 21.2476 7.80272C21.3644 7.77334 21.4726 7.76134 21.5723 7.76698C21.6719 7.77261 21.7614 7.79268 21.8415 7.82696C21.9216 7.86148 21.9914 7.90873 22.0505 7.96921C22.1097 8.02968 22.1582 8.09921 22.1958 8.17829L21.8091 8.27549C21.7884 8.22897 21.764 8.18931 21.7365 8.1565C21.7086 8.1237 21.6765 8.09848 21.6394 8.08061C21.6024 8.06273 21.5593 8.05318 21.5103 8.05147C21.4612 8.05 21.4049 8.0571 21.3412 8.07302C21.2106 8.10582 21.1273 8.17095 21.0914 8.2679C21.0555 8.3651 21.067 8.49854 21.1256 8.66845L21.1629 8.77618C21.1916 8.85893 21.2238 8.92969 21.2594 8.98845C21.295 9.04721 21.3354 9.09348 21.3805 9.12751C21.4256 9.16154 21.4758 9.18309 21.5315 9.19166C21.5872 9.20023 21.6495 9.19606 21.7181 9.17868C21.7789 9.16326 21.8298 9.14416 21.87 9.12139C21.9101 9.09862 21.9409 9.07144 21.9624 9.0401C21.9839 9.00877 21.9965 8.97327 22.0003 8.93311C22.0043 8.89321 22.0003 8.84865 21.9879 8.79992L22.3746 8.70273H22.374Z" fill="#EA600E"/>
<path d="M23.4231 7.37856L22.9365 7.54025L23.3271 9.02993L22.9997 9.13854L22.6091 7.64886L22.129 7.80837L22.0508 7.50988L23.3446 7.08008L23.4229 7.37856H23.4231Z" fill="#EA600E"/>
<path d="M25.4776 21.4475C25.407 21.4676 25.3518 21.4449 25.3229 21.428C25.2799 21.4025 25.2439 21.3606 25.2159 21.3089C25.1588 21.3879 25.0869 21.4548 24.9987 21.4928C24.8032 21.5774 24.6055 21.5145 24.4761 21.3969C24.428 21.4376 24.3735 21.4779 24.312 21.5168C24.0974 21.6531 23.7757 21.7332 23.5753 21.5112C23.5645 21.4992 23.5545 21.4867 23.5454 21.4742C23.5005 21.5105 23.4522 21.548 23.4 21.5866C23.014 21.8718 22.6189 21.9121 22.3435 21.6943C22.035 21.4504 21.8998 20.8632 22.2939 20.1014C22.5257 19.6533 22.7646 19.4279 23.0039 19.4317C23.2979 19.4362 23.4662 19.7824 23.473 19.7973L23.3708 19.8423L23.4218 19.8199L23.3708 19.8425C23.3693 19.8395 23.2249 19.5432 23.0017 19.5401C22.8119 19.5373 22.6022 19.7483 22.3945 20.1499C22.0279 20.8585 22.1407 21.3945 22.4148 21.6114C22.6471 21.795 22.9897 21.754 23.3313 21.5015C23.3909 21.4577 23.4446 21.4157 23.4932 21.3756C23.4326 21.2047 23.4983 21.011 23.6187 20.8804C23.7399 20.7491 23.8644 20.6843 23.9527 20.7074C23.9976 20.7192 24.0287 20.7524 24.0383 20.7986C24.0609 20.9089 23.9593 21.1185 23.631 21.4032C23.6398 21.4169 23.6494 21.4296 23.6599 21.4414C23.76 21.5522 23.9674 21.6069 24.2497 21.4275C24.3081 21.3905 24.3588 21.3528 24.4027 21.3155C24.402 21.3144 24.401 21.3132 24.4 21.3118C24.2892 21.1515 24.3029 20.9714 24.4351 20.8528C24.5447 20.7545 24.6249 20.7625 24.6629 20.776C24.7144 20.7941 24.7483 20.841 24.7561 20.9044C24.7691 21.0119 24.7088 21.1668 24.5563 21.3226C24.6561 21.4117 24.8059 21.4586 24.9521 21.3952C25.0438 21.3556 25.1144 21.2731 25.1666 21.1798C25.1323 21.0388 25.1421 20.8722 25.2088 20.7517C25.226 20.7206 25.2662 20.6478 25.3297 20.6591C25.3555 20.6638 25.3878 20.6826 25.3959 20.746C25.406 20.8269 25.3739 21.019 25.2863 21.1927C25.3079 21.2594 25.3413 21.3127 25.3817 21.3368C25.4496 21.3771 25.5257 21.3026 25.5774 21.233C25.8099 20.9202 25.9825 20.7852 26.1557 20.7819C26.2805 20.7795 26.3968 20.8469 26.5108 20.9881L26.422 21.0544C26.3313 20.9419 26.245 20.8882 26.1581 20.8898C26.0264 20.8924 25.8756 21.0176 25.6689 21.2957C25.5992 21.3896 25.5335 21.4325 25.4774 21.4482L25.4776 21.4475ZM24.597 20.8778C24.5771 20.8835 24.5484 20.8983 24.5124 20.9308C24.4089 21.0237 24.429 21.1472 24.4851 21.237C24.6112 21.1036 24.6531 20.982 24.6453 20.9158C24.6428 20.8945 24.6352 20.8797 24.6249 20.8762C24.6195 20.8743 24.6102 20.874 24.5972 20.8778H24.597ZM23.8912 20.8135C23.8502 20.825 23.7828 20.8646 23.7031 20.9511C23.5954 21.0678 23.5682 21.1915 23.5881 21.2936C23.885 21.0284 23.938 20.8656 23.9282 20.8184C23.9267 20.8113 23.9253 20.8111 23.9233 20.8106C23.9159 20.8087 23.9051 20.8095 23.8909 20.8135H23.8912Z" fill="#2C2789"/>
<path d="M19.9834 20.9148L13.2741 22.862C13.2682 22.8637 13.2618 22.8604 13.2601 22.8546L13.1303 22.4223C13.1286 22.4165 13.132 22.4103 13.1379 22.4086L19.8472 20.4614C19.8531 20.4597 19.8595 20.4631 19.8612 20.4688L19.991 20.9011C19.9927 20.9069 19.9893 20.9131 19.9834 20.9148Z" fill="#EA600E"/>
<path d="M18.5805 22.1764L13.3782 23.7101C13.3729 23.7116 13.3699 23.7172 13.3715 23.7224L13.5039 24.1701C13.5054 24.1754 13.511 24.1784 13.5162 24.1768L18.7185 22.6431C18.7238 22.6416 18.7268 22.636 18.7252 22.6308L18.5928 22.1831C18.5913 22.1778 18.5857 22.1748 18.5805 22.1764Z" fill="#EA600E"/>
</svg>
