<svg width="67" height="56" viewBox="0 0 67 56" fill="none" xmlns="http://www.w3.org/2000/svg">
<path d="M37.1544 4.42026C36.8915 3.36703 35.8365 2.71576 34.7772 2.95281L4.81805 9.65664C3.72412 9.90143 3.04497 10.9974 3.31263 12.0859L13.0088 51.5186C13.2747 52.5998 14.3722 53.2557 15.4503 52.9778L45.3062 45.28C46.3699 45.0058 47.0133 43.9249 46.7473 42.8591L37.1544 4.42026Z" fill="#EA600E"/>
<path d="M34.1907 4.00068L5.05664 12.5898L16.4429 51.094L45.5769 42.5049L34.1907 4.00068Z" fill="white"/>
<path d="M19.3104 24.6546L11.7804 26.874C11.7748 26.8758 11.769 26.8725 11.7671 26.8666L11.6232 26.3796C11.6217 26.3741 11.6247 26.3682 11.6302 26.3664L19.1602 24.147C19.1657 24.1452 19.1716 24.1485 19.1735 24.1543L19.3174 24.6414C19.3192 24.6469 19.3159 24.6528 19.31 24.6546H19.3104Z" fill="#EAEAEA"/>
<path d="M31.0181 21.203L20.4775 24.3097C20.4709 24.3115 20.4639 24.3079 20.4617 24.3013L20.3188 23.8179C20.317 23.8113 20.3207 23.8043 20.3273 23.8025L30.8679 20.6958C30.8745 20.6939 30.8815 20.6976 30.8837 20.7042L31.0265 21.1876C31.0284 21.1942 31.0247 21.2012 31.0181 21.203Z" fill="#EAEAEA"/>
<path d="M35.433 16.6137L10.897 23.8452C10.8852 23.8489 10.8723 23.8419 10.869 23.8301L10.7317 23.3659C10.728 23.3541 10.735 23.3413 10.7468 23.338L35.2828 16.1065C35.2946 16.1028 35.3075 16.1098 35.3108 16.1215L35.4481 16.5858C35.4518 16.5975 35.4448 16.6104 35.433 16.6137Z" fill="#EAEAEA"/>
<path d="M33.3995 18.7737L11.3207 25.2811C11.3093 25.2844 11.2975 25.2778 11.2942 25.2668L11.1561 24.8004C11.1528 24.789 11.1594 24.7772 11.1705 24.7739L33.2493 18.2665C33.2607 18.2632 33.2725 18.2698 33.2758 18.2808L33.4138 18.7473C33.4171 18.7587 33.4105 18.7704 33.3995 18.7737Z" fill="#EAEAEA"/>
<path d="M34.3482 21.9847L12.2694 28.4921C12.258 28.4954 12.2462 28.4888 12.2429 28.4777L12.1049 28.0113C12.1015 27.9999 12.1082 27.9881 12.1192 27.9848L34.198 21.4774C34.2094 21.4741 34.2212 21.4807 34.2245 21.4918L34.3626 21.9582C34.3659 21.9696 34.3592 21.9814 34.3482 21.9847Z" fill="#EAEAEA"/>
<path d="M17.9872 20.178L10.4571 22.3974C10.4516 22.3992 10.4457 22.3959 10.4439 22.3901L10.2999 21.903C10.2985 21.8975 10.3014 21.8916 10.3069 21.8898L17.837 19.6704C17.8425 19.6686 17.8484 19.6719 17.8502 19.6778L17.9942 20.1648C17.996 20.1703 17.9927 20.1762 17.9868 20.178H17.9872Z" fill="#EAEAEA"/>
<path d="M29.6943 16.7265L19.1538 19.8331C19.1471 19.835 19.1401 19.8313 19.1379 19.8247L18.9951 19.3413C18.9933 19.3347 18.9969 19.3277 19.0036 19.3259L29.5442 16.2192C29.5508 16.2174 29.5578 16.2211 29.56 16.2277L29.7028 16.711C29.7047 16.7176 29.701 16.7246 29.6943 16.7268V16.7265Z" fill="#EAEAEA"/>
<path d="M14.7414 16.3131C14.7687 16.4377 14.7742 16.5583 14.7583 16.6741C14.7421 16.7899 14.7042 16.8964 14.6446 16.9939C14.5846 17.0909 14.5029 17.1773 14.3987 17.253C14.2945 17.3283 14.1682 17.3883 14.0195 17.432C13.8653 17.4776 13.7188 17.4915 13.5803 17.4746C13.4416 17.4574 13.3149 17.4114 13.2001 17.3364C13.0852 17.2614 12.9836 17.1596 12.896 17.0306C12.808 16.9016 12.7381 16.7487 12.6858 16.5715L12.639 16.4131C12.5868 16.2359 12.5632 16.0691 12.568 15.9121C12.5731 15.7552 12.6041 15.614 12.6611 15.4883C12.7182 15.3626 12.8003 15.2549 12.9078 15.1645C13.0153 15.0744 13.1448 15.0068 13.2969 14.9619C13.4467 14.9178 13.5855 14.8998 13.7132 14.9083C13.841 14.9167 13.9562 14.9469 14.0589 14.9983C14.1616 15.0502 14.2507 15.1211 14.3269 15.2119C14.4027 15.3027 14.4649 15.4071 14.5132 15.5258L14.0173 15.6717C13.9908 15.6019 13.9595 15.5423 13.9242 15.4931C13.8885 15.4438 13.8472 15.406 13.7997 15.3791C13.7523 15.3523 13.697 15.338 13.6341 15.3354C13.5711 15.3332 13.499 15.3438 13.4173 15.3677C13.2498 15.417 13.143 15.5148 13.097 15.6603C13.051 15.8062 13.0657 16.0066 13.1408 16.2617L13.1887 16.4234C13.2255 16.5476 13.2667 16.6539 13.3123 16.7421C13.358 16.8303 13.4099 16.8998 13.4677 16.9508C13.5255 17.0019 13.5899 17.0343 13.6613 17.0471C13.7327 17.06 13.8126 17.0538 13.9006 17.0277C13.9786 17.0045 14.0438 16.9758 14.0953 16.9417C14.1469 16.9075 14.1863 16.8667 14.2139 16.8196C14.2415 16.7726 14.2577 16.7193 14.2625 16.659C14.2676 16.5991 14.2625 16.5322 14.2466 16.459L14.7425 16.3131H14.7414Z" fill="#EA600E"/>
<path d="M16.9409 15.288C16.9953 15.4718 17.0189 15.6438 17.0126 15.8041C17.006 15.9643 16.9729 16.1084 16.9133 16.236C16.8532 16.3635 16.7686 16.473 16.6592 16.5646C16.5499 16.6561 16.4196 16.7241 16.2687 16.7686C16.1177 16.813 15.9716 16.8266 15.8299 16.809C15.6881 16.7917 15.5571 16.7458 15.436 16.6712C15.3152 16.5969 15.2077 16.4944 15.1142 16.3635C15.0203 16.2327 14.9463 16.0753 14.8922 15.8919L14.8609 15.7864C14.8068 15.6037 14.7833 15.4321 14.7903 15.2711C14.7973 15.1101 14.8308 14.9649 14.8908 14.8363C14.9508 14.7072 15.0358 14.5973 15.1451 14.5058C15.2545 14.4143 15.3848 14.3463 15.5357 14.3018C15.6867 14.2573 15.8328 14.2437 15.9745 14.2614C16.1163 14.2787 16.2473 14.3253 16.3681 14.4011C16.4884 14.4768 16.5956 14.5804 16.6891 14.7117C16.7826 14.8432 16.8562 15.0002 16.9099 15.1829L16.9412 15.2884L16.9409 15.288ZM16.4063 15.3273C16.332 15.0755 16.23 14.8973 16.1012 14.7933C15.972 14.6889 15.824 14.6617 15.6565 14.7109C15.489 14.7602 15.3796 14.8638 15.3277 15.0211C15.2762 15.1788 15.2876 15.3832 15.362 15.6354L15.394 15.7442C15.4312 15.8695 15.4757 15.9768 15.528 16.0661C15.5803 16.1555 15.6381 16.226 15.7021 16.2786C15.7662 16.3308 15.8354 16.3642 15.9105 16.3786C15.9852 16.3929 16.0647 16.3878 16.1483 16.3631C16.3158 16.3139 16.4244 16.2099 16.4748 16.0518C16.5249 15.8934 16.5127 15.6883 16.4384 15.4365L16.4063 15.3277V15.3273Z" fill="#EA600E"/>
<path d="M19.5968 15.7517L19.1009 15.8976L17.6685 14.6015L18.1357 16.1821L17.6398 16.328L16.9297 13.926L17.4256 13.78L18.8605 15.079L18.3923 13.4952L18.8863 13.3496L19.5964 15.7517H19.5968Z" fill="#EA600E"/>
<path d="M21.2008 13.1041L20.4638 13.3214L21.0553 15.3228L20.5595 15.4687L19.9679 13.4673L19.2409 13.6816L19.1223 13.2806L21.0819 12.7031L21.2004 13.1041H21.2008Z" fill="#EA600E"/>
<path d="M22.7058 13.8794L22.3108 13.996L22.5707 14.8752L22.0749 15.0215L21.3647 12.6194L22.2586 12.3559C22.3973 12.3151 22.5266 12.2941 22.6458 12.293C22.7651 12.2919 22.8719 12.3107 22.9661 12.3493C23.0603 12.3878 23.141 12.4463 23.2083 12.5246C23.2757 12.6029 23.3269 12.7014 23.3622 12.8201C23.3883 12.908 23.4016 12.9899 23.4023 13.0656C23.4031 13.1414 23.3928 13.2119 23.3714 13.2774C23.3501 13.3428 23.3191 13.4038 23.2783 13.46C23.2374 13.5163 23.1884 13.5692 23.131 13.6181L23.9416 14.4462L23.9486 14.4694L23.4167 14.6263L22.7055 13.8798L22.7058 13.8794ZM22.1923 13.5949L22.5921 13.4769C22.6572 13.4578 22.7117 13.4325 22.7555 13.4009C22.7993 13.3693 22.8332 13.3332 22.8564 13.2921C22.8796 13.2513 22.8932 13.2064 22.8969 13.1583C22.9006 13.1101 22.8943 13.059 22.8785 13.005C22.845 12.8918 22.7865 12.812 22.7029 12.7661C22.6193 12.7201 22.5107 12.7168 22.3775 12.7561L21.9792 12.8734L22.1923 13.5946V13.5949Z" fill="#EA600E"/>
<path d="M25.4461 13.4889L24.5769 13.7451L24.5582 14.2887L24.031 14.4442L24.2165 11.7778L24.676 11.6426L26.2865 13.7792L25.7594 13.9347L25.4461 13.4889ZM24.5924 13.3047L25.1939 13.1276L24.6255 12.3174L24.5924 13.3047Z" fill="#EA600E"/>
<path d="M28.1294 12.3678C28.1566 12.4924 28.1621 12.613 28.1463 12.7288C28.1305 12.8445 28.0922 12.9511 28.0325 13.0485C27.9725 13.1456 27.8908 13.232 27.7866 13.3077C27.6824 13.383 27.5562 13.4429 27.4075 13.4867C27.2532 13.5323 27.1067 13.5462 26.9683 13.5293C26.8299 13.512 26.7029 13.4661 26.588 13.3911C26.4731 13.3161 26.3715 13.2143 26.2839 13.0853C26.1959 12.9563 26.126 12.8034 26.0737 12.6262L26.027 12.4678C25.9747 12.2906 25.9511 12.1237 25.9559 11.9668C25.9611 11.8098 25.992 11.6687 26.0491 11.543C26.1061 11.4173 26.1882 11.3096 26.2957 11.2192C26.4032 11.1291 26.5328 11.0615 26.6848 11.0166C26.8346 10.9725 26.9734 10.9545 27.1012 10.963C27.2289 10.9714 27.3438 11.0016 27.4465 11.053C27.5492 11.1048 27.6386 11.1758 27.7145 11.2666C27.7903 11.3574 27.8525 11.4618 27.9007 11.5805L27.4049 11.7264C27.3784 11.6566 27.3471 11.597 27.3117 11.5478C27.276 11.4985 27.2348 11.4607 27.1873 11.4338C27.1398 11.407 27.0846 11.3927 27.0217 11.3901C26.9587 11.3879 26.8866 11.3985 26.8048 11.4224C26.6373 11.4717 26.5306 11.5695 26.4846 11.715C26.4385 11.8609 26.4533 12.0613 26.5284 12.3163L26.5762 12.4781C26.613 12.6023 26.6543 12.7085 26.6999 12.7968C26.7456 12.885 26.7975 12.9544 26.8553 13.0055C26.9131 13.0566 26.9775 13.089 27.0489 13.1018C27.1203 13.1147 27.2002 13.1085 27.2882 13.0824C27.3662 13.0592 27.4314 13.0305 27.4829 12.9963C27.5345 12.9622 27.5738 12.9214 27.6015 12.8743C27.6291 12.8273 27.6453 12.774 27.65 12.7137C27.6552 12.6538 27.6501 12.5869 27.6342 12.5137L28.1301 12.3678H28.1294Z" fill="#EA600E"/>
<path d="M29.8624 10.5495L29.1254 10.7667L29.717 12.7681L29.2211 12.914L28.6295 10.9126L27.9025 11.1269L27.7839 10.7259L29.7435 10.1484L29.862 10.5495H29.8624Z" fill="#EA600E"/>
<path d="M31.9155 26.9944L31.9332 29.3743L61.9311 30.5903L62.0935 24.7871L31.9155 26.9944Z" fill="#E45F10"/>
<path d="M30.3222 28.6386L31.7708 29.3469L31.9151 26.9941L30.3049 27.8745C29.9982 28.0421 30.0085 28.485 30.3222 28.6386Z" fill="#EB9A6B"/>
<path d="M64.1902 27.7906C64.2698 26.187 63.3866 24.8401 62.2174 24.7822C61.0481 24.7243 60.0357 25.9773 59.956 27.5809C59.8764 29.1844 60.7596 30.5313 61.9288 30.5892C63.0981 30.6472 64.1105 29.3941 64.1902 27.7906Z" fill="#EA600E"/>
<path d="M61.4714 27.5169C61.4331 28.288 61.8579 28.9361 62.4201 28.9636C62.9822 28.9916 63.4692 28.3888 63.5075 27.6176C63.5458 26.8464 63.121 26.1984 62.5588 26.1709C61.9967 26.1429 61.5097 26.7457 61.4714 27.5169Z" fill="#EB9A6B"/>
<path d="M31.107 28.1393C31.0743 28.7976 31.4413 29.3504 31.9265 29.3747C32.4117 29.3986 32.8317 28.8847 32.8645 28.2264C32.8972 27.5681 32.5302 27.0153 32.045 26.991C31.5598 26.9671 31.1398 27.481 31.107 28.1393Z" fill="#E45F10"/>
<path d="M64.967 26.1752L62.5591 26.1719L62.4004 28.961L64.8083 28.9643L64.967 26.1752Z" fill="#EB9A6B"/>
<path d="M64.0129 27.5462C63.9746 28.3173 64.3994 28.9654 64.9616 28.9929C65.5237 29.0209 66.0107 28.4181 66.049 27.6469C66.0873 26.8757 65.6625 26.2277 65.1003 26.2002C64.5382 26.1722 64.0512 26.775 64.0129 27.5462Z" fill="#E45F10"/>
<path d="M45.6692 29.12L58.0828 29.4652C58.2646 29.4703 58.4152 29.3262 58.4185 29.1447L58.4296 28.5055C58.4329 28.3202 58.2808 28.1695 58.0953 28.1739L45.6706 28.468C45.4799 28.4724 45.3338 28.6385 45.3533 28.8278C45.3702 28.9907 45.5053 29.1156 45.6692 29.12Z" fill="#EB9A6B"/>
<path d="M58.4195 29.1459L58.6396 27.9785C58.6396 27.9785 58.5954 27.5485 58.1993 27.5305C57.8032 27.5125 57.498 27.4746 57.4218 27.5889C57.3456 27.7032 57.3103 28.1936 57.3103 28.1936L58.4198 29.1459H58.4195Z" fill="#EB9A6B"/>
<path d="M32.9333 31.5185C32.8273 31.5498 32.7445 31.5145 32.7011 31.488C32.6366 31.4483 32.5825 31.3829 32.5406 31.3024C32.4548 31.4255 32.3469 31.5299 32.2144 31.5891C31.921 31.721 31.6243 31.6229 31.4299 31.4395C31.3578 31.5031 31.276 31.5659 31.1836 31.6266C30.8615 31.839 30.3785 31.964 30.0778 31.6178C30.0616 31.599 30.0465 31.5795 30.0329 31.56C29.9655 31.6166 29.893 31.6751 29.8146 31.7354C29.2351 32.1801 28.6421 32.243 28.2287 31.9034C27.7656 31.5229 27.5627 30.6073 28.1543 29.4193C28.5022 28.7206 28.8608 28.3692 29.22 28.3751C29.6614 28.3821 29.914 28.922 29.9243 28.9452L29.7708 29.0154L29.8473 28.9805L29.7708 29.0157C29.7686 29.011 29.5517 28.5489 29.2167 28.5442C28.9318 28.5397 28.6171 28.8687 28.3052 29.495C27.7549 30.6 27.9242 31.4358 28.3358 31.774C28.6844 32.0603 29.1987 31.9963 29.7115 31.6027C29.8009 31.5343 29.8816 31.4689 29.9545 31.4064C29.8635 31.1399 29.9622 30.8378 30.1429 30.6341C30.3248 30.4294 30.5118 30.3283 30.6443 30.3643C30.7117 30.3827 30.7584 30.4346 30.7728 30.5066C30.8067 30.6786 30.6543 31.0054 30.1613 31.4494C30.1746 31.4707 30.189 31.4906 30.2048 31.509C30.355 31.6817 30.6664 31.767 31.0901 31.4873C31.1777 31.4296 31.2539 31.3707 31.3198 31.3127C31.3187 31.3108 31.3173 31.309 31.3158 31.3068C31.1494 31.0568 31.17 30.776 31.3684 30.5911C31.533 30.4379 31.6534 30.4504 31.7104 30.4713C31.7877 30.4996 31.8385 30.5728 31.8503 30.6716C31.8698 30.8392 31.7793 31.0807 31.5503 31.3237C31.7001 31.4626 31.925 31.5358 32.1444 31.4369C32.2821 31.3752 32.3881 31.2465 32.4666 31.101C32.415 30.8811 32.4297 30.6213 32.5299 30.4334C32.5556 30.3849 32.616 30.2714 32.7114 30.289C32.75 30.2963 32.7986 30.3258 32.8108 30.4246C32.8258 30.5507 32.7776 30.8503 32.6462 31.1212C32.6786 31.2252 32.7287 31.3083 32.7894 31.3458C32.8914 31.4086 33.0055 31.2925 33.0832 31.184C33.4322 30.6963 33.6913 30.4856 33.9512 30.4805C34.1386 30.4768 34.3131 30.5819 34.4843 30.8021L34.351 30.9054C34.2148 30.7301 34.0852 30.6463 33.9549 30.6488C33.7572 30.6529 33.5308 30.8481 33.2205 31.2818C33.1159 31.4281 33.0173 31.495 32.933 31.5196L32.9333 31.5185ZM31.6114 30.6301C31.5816 30.6389 31.5385 30.6621 31.4844 30.7128C31.329 30.8576 31.3592 31.0502 31.4435 31.1903C31.6327 30.9822 31.6957 30.7926 31.6839 30.6893C31.6802 30.6562 31.6688 30.633 31.6534 30.6275C31.6453 30.6246 31.6313 30.6242 31.6118 30.6301H31.6114ZM30.5519 30.5298C30.4905 30.5478 30.3892 30.6095 30.2696 30.7444C30.108 30.9264 30.0671 31.1193 30.0969 31.2785C30.5427 30.865 30.6222 30.611 30.6075 30.5375C30.6053 30.5264 30.6031 30.5261 30.6002 30.5253C30.5891 30.5224 30.5729 30.5235 30.5516 30.5298H30.5519Z" fill="#E45F10"/>
<path d="M24.6937 30.7132L14.6258 33.6805C14.617 33.6831 14.6074 33.678 14.6048 33.6692L14.4101 33.0105C14.4075 33.0016 14.4127 32.9921 14.4215 32.9895L24.4894 30.0221C24.4982 30.0196 24.5078 30.0247 24.5104 30.0335L24.7051 30.6922C24.7077 30.701 24.7026 30.7106 24.6937 30.7132Z" fill="#EAEAEA"/>
<path d="M22.6328 32.4403L14.9318 34.7107C14.924 34.713 14.9196 34.7212 14.9219 34.7289L15.1179 35.3917C15.1202 35.3995 15.1284 35.4039 15.1362 35.4016L22.8371 33.1313C22.8449 33.129 22.8493 33.1208 22.847 33.113L22.6511 32.4503C22.6487 32.4425 22.6406 32.438 22.6328 32.4403Z" fill="#EAEAEA"/>
</svg>
