<svg width="82" height="70" viewBox="0 0 82 70" fill="none" xmlns="http://www.w3.org/2000/svg">
<g filter="url(#filter0_d_814_4859)">
<g filter="url(#filter1_d_814_4859)">
<path d="M41.3634 7.48276C41.1005 6.42953 40.0455 5.77826 38.9861 6.01531L9.02704 12.7191C7.93311 12.9639 7.25395 14.0599 7.52162 15.1484L17.2178 54.5811C17.4837 55.6623 18.5812 56.3182 19.6593 56.0403L49.5152 48.3425C50.5789 48.0683 51.2223 46.9874 50.9563 45.9216L41.3634 7.48276Z" fill="#EA600E"/>
<path d="M38.3997 7.06318L9.26562 15.6523L20.6519 54.1565L49.7859 45.5674L38.3997 7.06318Z" fill="white"/>
<path d="M23.5192 27.7171L15.9891 29.9365C15.9836 29.9383 15.9777 29.935 15.9759 29.9291L15.8319 29.4421C15.8304 29.4366 15.8334 29.4307 15.8389 29.4289L23.369 27.2095C23.3745 27.2077 23.3804 27.211 23.3822 27.2168L23.5261 27.7039C23.528 27.7094 23.5247 27.7153 23.5188 27.7171H23.5192Z" fill="#EAEAEA"/>
<path d="M35.2271 24.2655L24.6865 27.3722C24.6799 27.374 24.6729 27.3704 24.6706 27.3638L24.5278 26.8804C24.526 26.8738 24.5297 26.8668 24.5363 26.865L35.0769 23.7583C35.0835 23.7564 35.0905 23.7601 35.0927 23.7667L35.2355 24.2501C35.2374 24.2567 35.2337 24.2637 35.2271 24.2655Z" fill="#EAEAEA"/>
<path d="M39.6418 19.6762L15.1057 26.9077C15.0939 26.9114 15.0811 26.9044 15.0777 26.8926L14.9404 26.4284C14.9368 26.4166 14.9437 26.4038 14.9555 26.4005L39.4916 19.169C39.5033 19.1653 39.5162 19.1723 39.5195 19.184L39.6569 19.6483C39.6605 19.66 39.6535 19.6729 39.6418 19.6762Z" fill="#EAEAEA"/>
<path d="M37.6085 21.8362L15.5297 28.3436C15.5183 28.3469 15.5065 28.3403 15.5032 28.3293L15.3651 27.8629C15.3618 27.8515 15.3684 27.8397 15.3795 27.8364L37.4583 21.329C37.4697 21.3257 37.4815 21.3323 37.4848 21.3433L37.6228 21.8098C37.6261 21.8212 37.6195 21.8329 37.6085 21.8362Z" fill="#EAEAEA"/>
<path d="M38.5572 25.0472L16.4784 31.5546C16.467 31.5579 16.4552 31.5513 16.4519 31.5402L16.3138 31.0738C16.3105 31.0624 16.3172 31.0506 16.3282 31.0473L38.407 24.5399C38.4184 24.5366 38.4302 24.5432 38.4335 24.5543L38.5715 25.0207C38.5748 25.0321 38.5682 25.0439 38.5572 25.0472Z" fill="#EAEAEA"/>
<path d="M22.1964 23.2405L14.6664 25.4599C14.6608 25.4617 14.6549 25.4584 14.6531 25.4526L14.5092 24.9655C14.5077 24.96 14.5106 24.9541 14.5162 24.9523L22.0462 22.7329C22.0517 22.7311 22.0576 22.7344 22.0594 22.7403L22.2034 23.2273C22.2052 23.2328 22.2019 23.2387 22.196 23.2405H22.1964Z" fill="#EAEAEA"/>
<path d="M33.9033 19.789L23.3628 22.8956C23.3561 22.8975 23.3491 22.8938 23.3469 22.8872L23.2041 22.4038C23.2022 22.3972 23.2059 22.3902 23.2126 22.3884L33.7531 19.2817C33.7598 19.2799 33.7668 19.2836 33.769 19.2902L33.9118 19.7735C33.9136 19.7801 33.91 19.7871 33.9033 19.7893V19.789Z" fill="#EAEAEA"/>
<path d="M18.9504 19.3756C18.9776 19.5002 18.9832 19.6208 18.9673 19.7366C18.9511 19.8524 18.9132 19.9589 18.8536 20.0564C18.7936 20.1534 18.7118 20.2398 18.6077 20.3155C18.5035 20.3908 18.3772 20.4508 18.2285 20.4945C18.0743 20.5401 17.9277 20.554 17.7893 20.5371C17.6505 20.5199 17.5239 20.4739 17.409 20.3989C17.2942 20.3239 17.1926 20.2221 17.105 20.0931C17.017 19.9641 16.947 19.8112 16.8948 19.634L16.848 19.4756C16.7957 19.2984 16.7722 19.1316 16.777 18.9746C16.7821 18.8177 16.813 18.6765 16.8701 18.5508C16.9272 18.4251 17.0093 18.3174 17.1168 18.227C17.2242 18.1369 17.3538 18.0693 17.5059 18.0244C17.6557 17.9803 17.7945 17.9623 17.9222 17.9708C18.05 17.9792 18.1652 18.0094 18.2679 18.0608C18.3706 18.1127 18.4597 18.1836 18.5359 18.2744C18.6117 18.3652 18.6739 18.4696 18.7222 18.5883L18.2263 18.7342C18.1998 18.6644 18.1685 18.6048 18.1332 18.5556C18.0974 18.5063 18.0562 18.4685 18.0087 18.4416C17.9612 18.4148 17.906 18.4005 17.8431 18.3979C17.7801 18.3957 17.708 18.4063 17.6262 18.4302C17.4587 18.4795 17.352 18.5773 17.306 18.7228C17.26 18.8687 17.2747 19.0691 17.3498 19.3242L17.3976 19.4859C17.4344 19.6101 17.4757 19.7164 17.5213 19.8046C17.567 19.8928 17.6189 19.9623 17.6767 20.0133C17.7345 20.0644 17.7989 20.0968 17.8703 20.1096C17.9417 20.1225 18.0216 20.1163 18.1096 20.0902C18.1876 20.067 18.2528 20.0383 18.3043 20.0042C18.3559 19.97 18.3953 19.9292 18.4229 19.8821C18.4505 19.8351 18.4667 19.7818 18.4715 19.7215C18.4766 19.6616 18.4715 19.5947 18.4556 19.5215L18.9515 19.3756H18.9504Z" fill="#EA600E"/>
<path d="M21.1498 18.3505C21.2043 18.5343 21.2279 18.7063 21.2216 18.8666C21.215 19.0268 21.1819 19.1709 21.1222 19.2985C21.0622 19.426 20.9776 19.5355 20.8682 19.6271C20.7589 19.7186 20.6286 19.7866 20.4776 19.8311C20.3267 19.8755 20.1806 19.8891 20.0388 19.8715C19.8971 19.8542 19.7661 19.8083 19.6449 19.7337C19.5242 19.6594 19.4167 19.5569 19.3232 19.426C19.2293 19.2952 19.1553 19.1378 19.1012 18.9544L19.0699 18.8489C19.0158 18.6662 18.9923 18.4946 18.9992 18.3336C19.0062 18.1726 19.0397 18.0274 19.0997 17.8988C19.1598 17.7697 19.2448 17.6598 19.3541 17.5683C19.4635 17.4768 19.5938 17.4088 19.7447 17.3643C19.8956 17.3198 20.0418 17.3062 20.1835 17.3239C20.3252 17.3412 20.4563 17.3878 20.577 17.4636C20.6974 17.5393 20.8045 17.6429 20.898 17.7742C20.9915 17.9057 21.0652 18.0627 21.1189 18.2454L21.1502 18.3509L21.1498 18.3505ZM20.6153 18.3898C20.541 18.138 20.439 17.9598 20.3101 17.8558C20.1809 17.7514 20.0329 17.7242 19.8654 17.7734C19.698 17.8227 19.5886 17.9263 19.5367 18.0836C19.4852 18.2413 19.4966 18.4457 19.5709 18.6979L19.603 18.8067C19.6402 18.932 19.6847 19.0393 19.737 19.1286C19.7892 19.218 19.847 19.2885 19.9111 19.3411C19.9752 19.3933 20.0444 19.4267 20.1195 19.4411C20.1942 19.4554 20.2737 19.4503 20.3573 19.4256C20.5248 19.3764 20.6334 19.2724 20.6838 19.1143C20.7339 18.9559 20.7217 18.7508 20.6474 18.499L20.6153 18.3902V18.3898Z" fill="#EA600E"/>
<path d="M23.8058 18.8142L23.3099 18.9601L21.8775 17.664L22.3447 19.2446L21.8488 19.3905L21.1387 16.9885L21.6345 16.8425L23.0695 18.1415L22.6012 16.5577L23.0953 16.4121L23.8054 18.8142H23.8058Z" fill="#EA600E"/>
<path d="M25.4095 16.1666L24.6725 16.3839L25.2641 18.3853L24.7682 18.5312L24.1766 16.5298L23.4496 16.7441L23.3311 16.3431L25.2906 15.7656L25.4091 16.1666H25.4095Z" fill="#EA600E"/>
<path d="M26.9148 16.9419L26.5198 17.0585L26.7797 17.9377L26.2838 18.084L25.5737 15.6819L26.4675 15.4184C26.6063 15.3776 26.7355 15.3566 26.8548 15.3555C26.9741 15.3544 27.0808 15.3732 27.1751 15.4118C27.2693 15.4503 27.3499 15.5088 27.4173 15.5871C27.4847 15.6654 27.5358 15.7639 27.5712 15.8826C27.5973 15.9705 27.6106 16.0524 27.6113 16.1281C27.612 16.2039 27.6017 16.2744 27.5804 16.3399C27.559 16.4053 27.5281 16.4663 27.4873 16.5225C27.4464 16.5788 27.3974 16.6317 27.34 16.6806L28.1506 17.5087L28.1576 17.5319L27.6257 17.6888L26.9145 16.9423L26.9148 16.9419ZM26.4013 16.6574L26.8011 16.5394C26.8662 16.5203 26.9207 16.495 26.9645 16.4634C27.0083 16.4318 27.0422 16.3957 27.0654 16.3546C27.0886 16.3138 27.1022 16.2689 27.1059 16.2208C27.1096 16.1726 27.1033 16.1215 27.0875 16.0675C27.054 15.9543 26.9954 15.8745 26.9119 15.8286C26.8283 15.7826 26.7197 15.7793 26.5864 15.8186L26.1881 15.9359L26.4013 16.6571V16.6574Z" fill="#EA600E"/>
<path d="M29.6553 16.5514L28.7862 16.8076L28.7674 17.3512L28.2402 17.5067L28.4258 14.8403L28.8852 14.7051L30.4957 16.8417L29.9686 16.9972L29.6553 16.5514ZM28.8016 16.3672L29.4031 16.1901L28.8348 15.3799L28.8016 16.3672Z" fill="#EA600E"/>
<path d="M32.3381 15.4303C32.3653 15.5549 32.3709 15.6755 32.355 15.7913C32.3392 15.907 32.3009 16.0136 32.2413 16.111C32.1813 16.2081 32.0995 16.2945 31.9954 16.3702C31.8912 16.4455 31.7649 16.5054 31.6162 16.5492C31.4619 16.5948 31.3154 16.6087 31.177 16.5918C31.0386 16.5745 30.9116 16.5286 30.7967 16.4536C30.6819 16.3786 30.5803 16.2768 30.4927 16.1478C30.4047 16.0188 30.3347 15.8659 30.2825 15.6887L30.2357 15.5303C30.1834 15.3531 30.1599 15.1862 30.1647 15.0293C30.1698 14.8723 30.2007 14.7312 30.2578 14.6055C30.3149 14.4798 30.397 14.3721 30.5045 14.2817C30.6119 14.1916 30.7415 14.124 30.8936 14.0791C31.0434 14.035 31.1822 14.017 31.3099 14.0255C31.4377 14.0339 31.5525 14.0641 31.6552 14.1155C31.7579 14.1673 31.8474 14.2383 31.9232 14.3291C31.999 14.4199 32.0613 14.5243 32.1095 14.643L31.6136 14.7889C31.5871 14.7191 31.5558 14.6595 31.5205 14.6103C31.4848 14.561 31.4435 14.5232 31.3961 14.4963C31.3486 14.4695 31.2933 14.4552 31.2304 14.4526C31.1674 14.4504 31.0953 14.461 31.0136 14.4849C30.8461 14.5342 30.7393 14.632 30.6933 14.7775C30.6473 14.9234 30.662 15.1238 30.7371 15.3788L30.785 15.5406C30.8218 15.6648 30.863 15.771 30.9087 15.8593C30.9543 15.9475 31.0062 16.0169 31.064 16.068C31.1218 16.1191 31.1862 16.1515 31.2576 16.1643C31.3291 16.1772 31.4089 16.171 31.4969 16.1449C31.575 16.1217 31.6401 16.093 31.6917 16.0588C31.7432 16.0247 31.7826 15.9839 31.8102 15.9368C31.8378 15.8898 31.854 15.8365 31.8588 15.7762C31.8639 15.7163 31.8588 15.6494 31.843 15.5762L32.3388 15.4303H32.3381Z" fill="#EA600E"/>
<path d="M34.0716 13.612L33.3346 13.8292L33.9262 15.8306L33.4303 15.9765L32.8388 13.9751L32.1117 14.1894L31.9932 13.7884L33.9527 13.2109L34.0712 13.612H34.0716Z" fill="#EA600E"/>
<path d="M36.1245 30.0569L36.1422 32.4368L66.1401 33.6528L66.3025 27.8496L36.1245 30.0569Z" fill="#E45F10"/>
<path d="M34.5314 31.7011L35.98 32.4094L36.1243 30.0566L34.5141 30.937C34.2075 31.1046 34.2178 31.5475 34.5314 31.7011Z" fill="#EB9A6B"/>
<path d="M68.3989 30.8531C68.4786 29.2495 67.5953 27.9026 66.4261 27.8447C65.2569 27.7868 64.2444 29.0398 64.1648 30.6434C64.0851 32.2469 64.9684 33.5938 66.1376 33.6517C67.3068 33.7097 68.3192 32.4566 68.3989 30.8531Z" fill="#EA600E"/>
<path d="M65.6801 30.5794C65.6418 31.3505 66.0667 31.9986 66.6288 32.0261C67.1909 32.0541 67.678 31.4513 67.7162 30.6801C67.7545 29.9089 67.3297 29.2609 66.7676 29.2334C66.2055 29.2054 65.7184 29.8082 65.6801 30.5794Z" fill="#EB9A6B"/>
<path d="M35.316 31.2018C35.2832 31.8601 35.6503 32.4129 36.1354 32.4372C36.6206 32.4611 37.0407 31.9472 37.0734 31.2889C37.1062 30.6306 36.7392 30.0778 36.254 30.0535C35.7688 30.0296 35.3488 30.5435 35.316 31.2018Z" fill="#E45F10"/>
<path d="M69.176 29.2377L66.768 29.2344L66.6094 32.0235L69.0173 32.0268L69.176 29.2377Z" fill="#EB9A6B"/>
<path d="M68.2216 30.6087C68.1834 31.3798 68.6082 32.0279 69.1703 32.0554C69.7324 32.0834 70.2195 31.4806 70.2577 30.7094C70.296 29.9382 69.8712 29.2902 69.3091 29.2627C68.747 29.2347 68.2599 29.8375 68.2216 30.6087Z" fill="#E45F10"/>
<path d="M49.8781 32.1825L62.2918 32.5277C62.4736 32.5328 62.6242 32.3887 62.6275 32.2072L62.6385 31.568C62.6419 31.3827 62.4898 31.232 62.3043 31.2364L49.8796 31.5305C49.6889 31.5349 49.5428 31.701 49.5623 31.8903C49.5792 32.0532 49.7143 32.1781 49.8781 32.1825Z" fill="#EB9A6B"/>
<path d="M62.6287 32.2084L62.8488 31.041C62.8488 31.041 62.8047 30.611 62.4086 30.593C62.0125 30.575 61.7073 30.5371 61.6311 30.6514C61.5549 30.7657 61.5195 31.2561 61.5195 31.2561L62.6291 32.2084H62.6287Z" fill="#EB9A6B"/>
<path d="M37.1426 34.581C37.0365 34.6123 36.9537 34.577 36.9103 34.5505C36.8459 34.5108 36.7917 34.4454 36.7498 34.3649C36.664 34.488 36.5561 34.5924 36.4236 34.6516C36.1302 34.7835 35.8335 34.6854 35.6391 34.502C35.567 34.5656 35.4853 34.6284 35.3929 34.6891C35.0707 34.9015 34.5878 35.0265 34.287 34.6803C34.2708 34.6615 34.2557 34.642 34.2421 34.6225C34.1747 34.6791 34.1022 34.7376 34.0238 34.7979C33.4444 35.2426 32.8513 35.3055 32.4379 34.9659C31.9748 34.5854 31.772 33.6698 32.3635 32.4818C32.7114 31.7831 33.07 31.4317 33.4293 31.4376C33.8707 31.4446 34.1232 31.9845 34.1335 32.0077L33.98 32.0779L34.0566 32.043L33.98 32.0782C33.9778 32.0735 33.761 31.6114 33.426 31.6067C33.141 31.6022 32.8263 31.9312 32.5145 32.5575C31.9641 33.6625 32.1335 34.4983 32.545 34.8365C32.8936 35.1228 33.4079 35.0588 33.9207 34.6652C34.0102 34.5968 34.0908 34.5314 34.1637 34.4689C34.0728 34.2024 34.1714 33.9003 34.3522 33.6966C34.534 33.4919 34.721 33.3908 34.8536 33.4268C34.9209 33.4452 34.9677 33.4971 34.982 33.5691C35.0159 33.7411 34.8635 34.0679 34.3706 34.5119C34.3838 34.5332 34.3982 34.5531 34.414 34.5715C34.5642 34.7442 34.8756 34.8295 35.2994 34.5498C35.387 34.4921 35.4632 34.4332 35.5291 34.3752C35.528 34.3733 35.5265 34.3715 35.525 34.3693C35.3586 34.1193 35.3792 33.8385 35.5777 33.6536C35.7422 33.5004 35.8626 33.5129 35.9197 33.5338C35.997 33.5621 36.0478 33.6353 36.0595 33.7341C36.0791 33.9017 35.9885 34.1432 35.7595 34.3862C35.9093 34.5251 36.1343 34.5983 36.3537 34.4994C36.4914 34.4377 36.5974 34.309 36.6758 34.1635C36.6242 33.9436 36.639 33.6838 36.7391 33.4959C36.7649 33.4474 36.8252 33.3339 36.9206 33.3515C36.9592 33.3588 37.0078 33.3883 37.02 33.4871C37.0351 33.6132 36.9869 33.9128 36.8554 34.1837C36.8878 34.2877 36.9379 34.3708 36.9986 34.4083C37.1006 34.4711 37.2147 34.355 37.2924 34.2465C37.6414 33.7588 37.9005 33.5481 38.1604 33.543C38.3478 33.5393 38.5223 33.6444 38.6935 33.8646L38.5602 33.9679C38.424 33.7926 38.2944 33.7088 38.1641 33.7113C37.9664 33.7154 37.74 33.9106 37.4297 34.3443C37.3252 34.4906 37.2265 34.5575 37.1422 34.5821L37.1426 34.581ZM35.8206 33.6926C35.7908 33.7014 35.7477 33.7246 35.6936 33.7753C35.5383 33.9201 35.5685 34.1127 35.6528 34.2528C35.842 34.0447 35.9049 33.8551 35.8931 33.7518C35.8895 33.7187 35.8781 33.6955 35.8626 33.69C35.8545 33.6871 35.8405 33.6867 35.821 33.6926H35.8206ZM34.7612 33.5923C34.6997 33.6103 34.5984 33.672 34.4788 33.8069C34.3172 33.9889 34.2763 34.1818 34.3062 34.341C34.752 33.9275 34.8315 33.6735 34.8167 33.6C34.8145 33.5889 34.8123 33.5886 34.8094 33.5878C34.7983 33.5849 34.7821 33.586 34.7608 33.5923H34.7612Z" fill="#E45F10"/>
<path d="M28.9025 33.7757L18.8346 36.743C18.8257 36.7456 18.8161 36.7405 18.8136 36.7317L18.6188 36.073C18.6163 36.0641 18.6214 36.0546 18.6302 36.052L28.6981 33.0846C28.707 33.0821 28.7166 33.0872 28.7191 33.096L28.9139 33.7547C28.9164 33.7635 28.9113 33.7731 28.9025 33.7757Z" fill="#EAEAEA"/>
<path d="M26.8415 35.5028L19.1406 37.7732C19.1328 37.7755 19.1283 37.7837 19.1306 37.7914L19.3266 38.4542C19.3289 38.462 19.3371 38.4664 19.3449 38.4641L27.0458 36.1938C27.0536 36.1915 27.0581 36.1833 27.0558 36.1755L26.8598 35.5128C26.8575 35.505 26.8493 35.5005 26.8415 35.5028Z" fill="#EAEAEA"/>
</g>
</g>
<defs>
<filter id="filter0_d_814_4859" x="0.463379" y="0.966797" width="80.7969" height="68.1367" filterUnits="userSpaceOnUse" color-interpolation-filters="sRGB">
<feFlood flood-opacity="0" result="BackgroundImageFix"/>
<feColorMatrix in="SourceAlpha" type="matrix" values="0 0 0 0 0 0 0 0 0 0 0 0 0 0 0 0 0 0 127 0" result="hardAlpha"/>
<feOffset dx="2" dy="4"/>
<feGaussianBlur stdDeviation="4.5"/>
<feComposite in2="hardAlpha" operator="out"/>
<feColorMatrix type="matrix" values="0 0 0 0 0.227451 0 0 0 0 0.227451 0 0 0 0 0.227451 0 0 0 0.09 0"/>
<feBlend mode="normal" in2="BackgroundImageFix" result="effect1_dropShadow_814_4859"/>
<feBlend mode="normal" in="SourceGraphic" in2="effect1_dropShadow_814_4859" result="shape"/>
</filter>
<filter id="filter1_d_814_4859" x="0.463379" y="0.966797" width="80.7969" height="68.1367" filterUnits="userSpaceOnUse" color-interpolation-filters="sRGB">
<feFlood flood-opacity="0" result="BackgroundImageFix"/>
<feColorMatrix in="SourceAlpha" type="matrix" values="0 0 0 0 0 0 0 0 0 0 0 0 0 0 0 0 0 0 127 0" result="hardAlpha"/>
<feOffset dx="2" dy="4"/>
<feGaussianBlur stdDeviation="4.5"/>
<feComposite in2="hardAlpha" operator="out"/>
<feColorMatrix type="matrix" values="0 0 0 0 0.227451 0 0 0 0 0.227451 0 0 0 0 0.227451 0 0 0 0.09 0"/>
<feBlend mode="normal" in2="BackgroundImageFix" result="effect1_dropShadow_814_4859"/>
<feBlend mode="normal" in="SourceGraphic" in2="effect1_dropShadow_814_4859" result="shape"/>
</filter>
</defs>
</svg>
