<svg width="70" height="65" viewBox="0 0 70 65" fill="none" xmlns="http://www.w3.org/2000/svg">
<g filter="url(#filter0_d_814_4817)">
<path d="M58.3013 18.9407L33.5908 12.9551L26.1429 43.7421L50.8534 49.7277L58.3013 18.9407Z" fill="#DDDDDD"/>
<path d="M57.0056 15.6519L51.8883 42.3836L26.3487 37.4089L32.5078 5.23271L53.2437 9.27135L57.0056 15.6519Z" fill="#F7FBFC"/>
<path d="M35.635 19.0506C35.4872 19.2655 35.6192 19.5657 35.833 19.6383C36.0727 19.7195 36.2716 19.4719 36.2668 19.216C36.262 18.9417 36.0625 18.7438 35.8192 18.7639C35.5775 18.7837 35.402 19.0228 35.4492 19.2929C35.5779 20.0275 36.6723 19.4009 36.2773 18.8715C36.127 18.6701 35.8243 18.6724 35.6987 18.9078C35.5774 19.1347 35.6839 19.46 35.9222 19.5064C36.1579 19.5527 36.4022 19.3075 36.3462 19.0342C36.2996 18.8075 36.0658 18.7029 35.877 18.7582C35.6413 18.827 35.5558 19.1309 35.6898 19.3475C35.8152 19.5502 36.0853 19.6264 36.2625 19.453C36.4286 19.2905 36.4262 18.9837 36.2922 18.8022C36.1298 18.5821 35.8403 18.6114 35.6727 18.813C35.4927 19.0289 35.5077 19.3577 35.7127 19.5419C35.9052 19.7148 36.1862 19.695 36.3487 19.4779C36.5092 19.263 36.5067 18.9171 36.2946 18.7502C36.1182 18.6116 35.8549 18.6336 35.6877 18.7861C35.4915 18.9654 35.4921 19.2858 35.6589 19.4837C35.8327 19.6893 36.1093 19.7327 36.3178 19.5627C36.494 19.4187 36.277 19.1338 36.1017 19.2765C36.0312 19.3339 35.8956 19.2577 35.8742 19.1712C35.8487 19.0678 35.9651 19.0264 36.0372 19.0358C36.1397 19.0495 36.1588 19.1743 36.0819 19.2518C35.9887 19.3454 35.8293 19.2109 35.9024 19.0879C35.9614 18.9885 36.0997 19.0298 36.0526 19.1521C36.0388 19.1878 36.0203 19.1781 35.9881 19.1551C35.9818 19.1504 35.951 19.1075 35.9588 19.1239C35.9607 19.1276 35.9384 19.1155 35.9604 19.1213C35.9801 19.1267 36.002 19.1168 36.0216 19.1301C36.006 19.1197 36.0357 19.1105 36.0071 19.1281C35.9819 19.1434 35.9932 19.1437 35.9891 19.1371C35.9775 19.1185 35.979 19.0792 36.0022 19.1028C36.0437 19.145 35.9623 19.1995 35.9231 19.2215C35.8817 19.245 35.7584 19.2933 35.7779 19.1872C35.787 19.1373 35.8575 19.1209 35.8957 19.147C35.9342 19.1733 35.9385 19.2233 35.9257 19.2687C35.9206 19.2864 35.9467 19.2774 35.9246 19.2719C35.9226 19.2715 35.9123 19.2623 35.9122 19.2599C35.9106 19.2328 35.8931 19.2887 35.9098 19.2645C36.0431 19.0705 35.768 18.8573 35.6353 19.05L35.635 19.0506Z" fill="#DDDDDD"/>
<path d="M38.0663 19.5827C41.7565 20.5017 45.4696 21.3052 49.2006 21.9923C50.2766 22.1904 51.3538 22.3788 52.4326 22.5577C52.6141 22.5879 52.6389 22.2603 52.4582 22.2304C48.7191 21.6093 44.9953 20.875 41.2936 20.0231C40.2496 19.7827 39.2071 19.5329 38.1667 19.274C37.9897 19.23 37.8879 19.5388 38.0663 19.5831L38.0663 19.5827Z" fill="#DDDDDD"/>
<path d="M38.7097 18.8107C41.3425 19.3938 43.9698 19.9964 46.6303 20.4432C47.5303 20.5944 48.432 20.734 49.3342 20.8694C49.6856 20.9222 49.7288 20.378 49.3788 20.3253C46.728 19.9276 44.1003 19.4497 41.4837 18.8717C40.6218 18.6812 39.7606 18.4886 38.8987 18.2979C38.752 18.2653 38.6022 18.3096 38.5447 18.4604C38.4973 18.5843 38.5638 18.7786 38.7094 18.8107L38.7097 18.8107Z" fill="#F1F1F1"/>
<path d="M38.0157 20.627C39.2636 20.9777 40.5237 21.2665 41.7927 21.4952C41.9808 21.529 42.0073 21.1733 41.8201 21.1395C40.5769 20.9155 39.3428 20.6342 38.1206 20.2908C37.9374 20.2395 37.8313 20.5752 38.0157 20.627Z" fill="#DDDDDD"/>
<path d="M42.5407 21.7068C43.7961 21.915 45.0619 22.0925 46.3352 22.2401C46.5239 22.2619 46.5411 22.0842 46.3533 22.0624C45.1063 21.9179 43.8663 21.7449 42.6368 21.541C42.4525 21.5105 42.3552 21.6761 42.5407 21.7068Z" fill="#DDDDDD"/>
<path d="M34.3552 24.076C34.2074 24.2909 34.3394 24.5911 34.5532 24.6637C34.793 24.7449 34.9918 24.4973 34.987 24.2414C34.9822 23.9671 34.7827 23.7692 34.5394 23.7893C34.2977 23.809 34.1222 24.0482 34.1694 24.3183C34.2981 25.0529 35.3925 24.4263 34.9975 23.8968C34.8473 23.6955 34.5445 23.6977 34.4189 23.9332C34.2976 24.1601 34.4041 24.4854 34.6425 24.5318C34.8781 24.5781 35.1224 24.3329 35.0664 24.0596C35.0198 23.8329 34.786 23.7283 34.5972 23.7836C34.3615 23.8524 34.276 24.1563 34.41 24.3729C34.5354 24.5756 34.8055 24.6518 34.9827 24.4784C35.1489 24.3159 35.1464 24.0091 35.0124 23.8275C34.85 23.6075 34.5605 23.6368 34.3929 23.8384C34.2129 24.0543 34.2279 24.3831 34.4329 24.5673C34.6254 24.7402 34.9064 24.7204 35.0689 24.5033C35.2294 24.2884 35.2269 23.9425 35.0148 23.7756C34.8384 23.6369 34.5751 23.659 34.408 23.8114C34.2118 23.9908 34.2123 24.3112 34.3791 24.5091C34.5529 24.7147 34.8295 24.7581 35.038 24.5881C35.2142 24.4441 34.9972 24.1591 34.822 24.3019C34.7514 24.3593 34.6158 24.2831 34.5944 24.1966C34.5689 24.0931 34.6853 24.0518 34.7574 24.0612C34.8599 24.0749 34.879 24.1997 34.8021 24.2771C34.7089 24.3707 34.5495 24.2363 34.6226 24.1133C34.6816 24.0139 34.8199 24.0551 34.7728 24.1775C34.759 24.2132 34.7405 24.2035 34.7083 24.1805C34.702 24.1758 34.6713 24.1328 34.679 24.1493C34.6809 24.153 34.6586 24.1409 34.6806 24.1467C34.7003 24.152 34.7222 24.1422 34.7418 24.1555C34.7263 24.145 34.7559 24.1359 34.7273 24.1534C34.7021 24.1688 34.7134 24.1691 34.7093 24.1625C34.6978 24.1439 34.6992 24.1046 34.7224 24.1282C34.7639 24.1704 34.6825 24.2249 34.6433 24.2469C34.6019 24.2704 34.4786 24.3187 34.4981 24.2126C34.5072 24.1627 34.5777 24.1463 34.6159 24.1723C34.6544 24.1987 34.6587 24.2487 34.6459 24.294C34.6408 24.3118 34.6669 24.3028 34.6448 24.2973C34.6428 24.2969 34.6325 24.2877 34.6324 24.2853C34.6308 24.2582 34.6133 24.314 34.6301 24.2899C34.7633 24.0959 34.4882 23.8827 34.3555 24.0754L34.3552 24.076Z" fill="#DDDDDD"/>
<path d="M36.7635 25.0508C40.4612 25.8248 44.1806 26.5065 47.9167 27.0953C48.9942 27.2651 50.0727 27.4271 51.1528 27.5815C51.3346 27.6076 51.3559 27.3455 51.175 27.3198C47.4315 26.7837 43.7021 26.1572 39.9936 25.4369C38.9477 25.2336 37.9031 25.0227 36.8606 24.8047C36.6832 24.7677 36.5846 25.0138 36.7635 25.0511L36.7635 25.0508Z" fill="#DDDDDD"/>
<path d="M36.9313 23.8073C39.6849 24.3967 42.4327 25.0055 45.2149 25.4587C46.156 25.612 47.0989 25.7537 48.0424 25.8913C48.4098 25.9449 48.4537 25.4007 48.0877 25.3472C45.3158 24.9432 42.5678 24.459 39.8313 23.8748C38.9299 23.6823 38.0292 23.4876 37.1277 23.2948C36.9744 23.2619 36.8179 23.3058 36.758 23.4565C36.7089 23.5803 36.7788 23.7748 36.9311 23.8073L36.9313 23.8073Z" fill="#F1F1F1"/>
<path d="M36.723 25.6497C37.813 25.9922 38.9141 26.2728 40.0235 26.4932C40.1879 26.5258 40.2134 26.17 40.0498 26.1374C38.963 25.9215 37.8846 25.6484 36.817 25.313C36.6569 25.2629 36.5619 25.5992 36.723 25.6497Z" fill="#DDDDDD"/>
<path d="M41.252 26.9043C42.4999 27.255 43.76 27.5439 45.029 27.7726C45.2171 27.8064 45.2436 27.4506 45.0564 27.4168C43.8132 27.1928 42.5791 26.9116 41.3569 26.5681C41.1737 26.5168 41.0676 26.8526 41.252 26.9043Z" fill="#DDDDDD"/>
<path d="M33.0759 29.0995C32.9281 29.3144 33.0601 29.6146 33.2739 29.6871C33.5137 29.7683 33.7125 29.5207 33.7077 29.2648C33.7029 28.9906 33.5034 28.7926 33.2601 28.8127C33.0184 28.8325 32.8429 29.0716 32.8901 29.3418C33.0188 30.0763 34.1132 29.4498 33.7182 28.9203C33.568 28.7189 33.2652 28.7212 33.1396 28.9566C33.0183 29.1836 33.1248 29.5088 33.3632 29.5553C33.5988 29.6016 33.8431 29.3563 33.7871 29.0831C33.7405 28.8564 33.5067 28.7518 33.3179 28.807C33.0822 28.8759 32.9967 29.1798 33.1307 29.3963C33.2561 29.5991 33.5262 29.6752 33.7034 29.5019C33.8696 29.3393 33.8671 29.0325 33.7331 28.851C33.5707 28.631 33.2812 28.6603 33.1136 28.8618C32.9336 29.0777 32.9486 29.4065 33.1536 29.5907C33.3461 29.7636 33.6271 29.7439 33.7896 29.5267C33.9501 29.3118 33.9476 28.9659 33.7355 28.799C33.5591 28.6604 33.2958 28.6824 33.1287 28.8349C32.9325 29.0142 32.933 29.3346 33.0998 29.5325C33.2736 29.7381 33.5502 29.7816 33.7587 29.6115C33.9349 29.4675 33.7179 29.1826 33.5427 29.3253C33.4721 29.3827 33.3365 29.3066 33.3151 29.22C33.2896 29.1166 33.406 29.0752 33.4781 29.0847C33.5807 29.0984 33.5998 29.2232 33.5228 29.3006C33.4296 29.3942 33.2702 29.2597 33.3433 29.1367C33.4023 29.0373 33.5406 29.0786 33.4935 29.2009C33.4797 29.2366 33.4612 29.227 33.4291 29.2039C33.4227 29.1993 33.392 29.1563 33.3997 29.1727C33.4016 29.1765 33.3793 29.1643 33.4014 29.1701C33.421 29.1755 33.4429 29.1656 33.4625 29.179C33.447 29.1685 33.4766 29.1593 33.448 29.1769C33.4228 29.1923 33.4341 29.1925 33.43 29.186C33.4185 29.1673 33.4199 29.128 33.4431 29.1516C33.4846 29.1938 33.4032 29.2483 33.364 29.2703C33.3226 29.2938 33.1993 29.3422 33.2188 29.236C33.2279 29.1861 33.2984 29.1698 33.3366 29.1958C33.3751 29.2222 33.3794 29.2721 33.3666 29.3175C33.3615 29.3352 33.3876 29.3263 33.3655 29.3208C33.3635 29.3203 33.3532 29.3111 33.3531 29.3088C33.3515 29.2817 33.334 29.3375 33.3508 29.3133C33.484 29.1194 33.2089 28.9061 33.0762 29.0988L33.0759 29.0995Z" fill="#DDDDDD"/>
<path d="M35.4846 30.0879C37.8678 30.5999 40.246 31.1009 42.6586 31.4669C43.5483 31.6019 44.4389 31.7315 45.3294 31.8614C45.513 31.8883 45.535 31.6145 45.3523 31.588C42.9396 31.2356 40.5349 30.876 38.1495 30.3774C37.2932 30.1984 36.4383 30.0141 35.5831 29.8303C35.4041 29.7917 35.304 30.0492 35.4846 30.0879Z" fill="#DDDDDD"/>
<path d="M36.1431 28.9982C37.8968 29.4668 39.635 30.0152 41.4126 30.3444C42.1839 30.4873 42.9566 30.6213 43.7289 30.7574C44.08 30.8194 44.1308 30.1299 43.7811 30.068C42.6814 29.8743 41.5778 29.6977 40.484 29.4618C40.3378 29.4302 40.192 29.3968 40.0462 29.3613C39.9765 29.3444 39.9067 29.3268 39.837 29.3089C39.7622 29.2896 39.8368 29.3088 39.7916 29.2968C39.7473 29.2852 39.703 29.2732 39.6588 29.2613C39.289 29.1615 38.9204 29.0553 38.5514 28.9516C37.8151 28.7446 37.078 28.5433 36.3397 28.3463C36.1933 28.3072 36.0427 28.3652 35.983 28.5569C35.9339 28.7144 35.9978 28.9595 36.1431 28.9982Z" fill="#F1F1F1"/>
<path d="M35.4397 31.0095C36.695 31.2177 37.9609 31.3952 39.2341 31.5428C39.4228 31.5646 39.44 31.387 39.2522 31.3652C38.0049 31.2206 36.7652 31.0476 35.5357 30.8437C35.3514 30.8132 35.2542 30.9788 35.4397 31.0095Z" fill="#DDDDDD"/>
<path d="M40.4676 31.9544C41.5577 32.2969 42.6588 32.5775 43.7681 32.7979C43.9325 32.8305 43.958 32.4747 43.7944 32.4421C42.7076 32.2262 41.6292 31.9531 40.5616 31.6177C40.4016 31.5676 40.3065 31.9039 40.4676 31.9544Z" fill="#DDDDDD"/>
<path d="M53.092 9.42071C52.6412 11.1721 52.2644 12.9422 51.9635 14.7256C51.9578 14.7595 51.9861 14.8082 52.021 14.8159C53.6388 15.1769 55.272 15.4612 56.917 15.6659C57.0298 15.6799 57.044 15.5034 56.9315 15.4895C55.3027 15.2868 53.684 15.0072 52.0817 14.6495C52.1009 14.6797 52.1201 14.7096 52.1395 14.7398C52.438 12.9718 52.8111 11.2175 53.2579 9.48128C53.286 9.37183 53.1205 9.31016 53.0921 9.42043L53.092 9.42071Z" fill="#DDDDDD"/>
<path d="M34.1557 30.6217C34.6049 30.7685 35.0982 31.0012 35.2516 31.4887C35.4057 31.9789 35.1264 32.5377 34.7277 32.822C34.3291 33.1064 33.8412 33.1793 33.3708 33.2362C31.4447 33.4691 29.5052 33.5511 27.5715 33.4815L28.9687 30.2884C30.6943 29.9608 32.4841 30.076 34.1557 30.6217Z" fill="#FDBAA0"/>
<path d="M32.1644 34.9824C32.5591 35.2215 32.9786 35.5496 33.028 36.0324C33.0777 36.5179 32.7054 36.9653 32.2741 37.1333C31.843 37.3013 31.3687 37.2546 30.9141 37.1977C29.0535 36.9633 27.2091 36.5874 25.4002 36.0736L27.34 33.4706C29.0307 33.5717 30.6951 34.0935 32.164 34.9827L32.1644 34.9824Z" fill="#FDBAA0"/>
<path d="M28.7721 37.6736C29.0913 38.0073 29.4086 38.4281 29.3181 38.8724C29.2269 39.3196 28.732 39.6032 28.2601 39.6202C27.7879 39.6373 27.3354 39.4504 26.9054 39.2601C25.1443 38.4805 23.4404 37.5801 21.8108 36.5682L24.4675 34.848C26.0997 35.4567 27.585 36.4318 28.7721 37.6736Z" fill="#FDBAA0"/>
<path d="M45.1988 38.0376L46.4363 38.6092C47.7633 39.2219 48.5826 40.5709 48.5073 42.0188L48.0519 50.7723C48.0354 51.0892 47.7628 51.3325 47.443 51.3159L17.125 49.7387C16.8052 49.722 16.5594 49.4517 16.5759 49.1349L18.5234 11.6987C18.5399 11.3818 18.8125 11.1385 19.1322 11.1551L43.4767 12.4216C43.7965 12.4382 44.0424 12.7085 44.0259 13.0254L42.9199 34.2855C42.837 35.879 43.7385 37.3637 45.1988 38.0376Z" fill="#EA600E"/>
<path d="M39.6731 16.805L23.3575 15.9562C23.0964 15.9427 22.8734 16.1508 22.8593 16.4212L22.5141 23.0573C22.5 23.3276 22.7003 23.5578 22.9614 23.5714L39.2769 24.4202C39.538 24.4338 39.7611 24.2256 39.7751 23.9552L40.1204 17.3192C40.1344 17.0488 39.9342 16.8186 39.6731 16.805Z" fill="#FEFEFE"/>
<path d="M24.7877 20.4914C28.1407 20.8036 31.5019 20.9973 34.8664 21.0721C35.8365 21.0936 36.8072 21.1051 37.7781 21.1075C37.9416 21.108 37.9289 20.7778 37.7662 20.7773C34.4011 20.7697 31.038 20.6461 27.6817 20.4025C26.735 20.3337 25.7891 20.2552 24.8437 20.1669C24.6829 20.152 24.6252 20.476 24.7878 20.491L24.7877 20.4914Z" fill="#D9D9D9"/>
<path d="M25.0223 18.9998C28.0493 19.2139 31.0741 19.4436 34.1081 19.5518C35.1342 19.5884 36.1605 19.616 37.1866 19.6404C37.5863 19.6499 37.5377 19.2316 37.1398 19.2222C34.1254 19.1508 31.1228 19.0161 28.1142 18.8045C27.1232 18.7348 26.1327 18.6633 25.142 18.593C24.9735 18.5811 24.8148 18.6278 24.7777 18.7476C24.747 18.8461 24.8556 18.9882 25.0226 19L25.0223 18.9998Z" fill="#F1F1F1"/>
<path d="M24.7335 21.5544C25.8412 21.6983 26.9546 21.7649 28.0709 21.7555C28.2362 21.754 28.2301 21.3151 28.0654 21.3162C26.9721 21.3254 25.8815 21.2624 24.7964 21.1211C24.634 21.1001 24.5694 21.5324 24.7332 21.5539L24.7335 21.5544Z" fill="#D9D9D9"/>
<path d="M29.302 21.7927C30.4101 21.9366 31.5234 22.0032 32.6397 21.9938C32.805 21.9923 32.7989 21.5534 32.6342 21.5545C31.5409 21.5636 30.4502 21.5006 29.3653 21.3594C29.2028 21.3384 29.1382 21.7707 29.3021 21.7922L29.302 21.7927Z" fill="#D9D9D9"/>
</g>
<defs>
<filter id="filter0_d_814_4817" x="0" y="0.232422" width="69.3013" height="64.084" filterUnits="userSpaceOnUse" color-interpolation-filters="sRGB">
<feFlood flood-opacity="0" result="BackgroundImageFix"/>
<feColorMatrix in="SourceAlpha" type="matrix" values="0 0 0 0 0 0 0 0 0 0 0 0 0 0 0 0 0 0 127 0" result="hardAlpha"/>
<feOffset dx="2" dy="4"/>
<feGaussianBlur stdDeviation="4.5"/>
<feComposite in2="hardAlpha" operator="out"/>
<feColorMatrix type="matrix" values="0 0 0 0 0 0 0 0 0 0 0 0 0 0 0 0 0 0 0.09 0"/>
<feBlend mode="normal" in2="BackgroundImageFix" result="effect1_dropShadow_814_4817"/>
<feBlend mode="normal" in="SourceGraphic" in2="effect1_dropShadow_814_4817" result="shape"/>
</filter>
</defs>
</svg>
