<svg width="40" height="40" viewBox="0 0 40 40" fill="none" xmlns="http://www.w3.org/2000/svg">
<circle cx="20" cy="20" r="20" fill="#E2E2E2"/>
<path d="M36.114 13.9462L19.8066 9.99609L14.8915 30.3135L31.1988 34.2637L36.114 13.9462Z" fill="#DDDDDD"/>
<path d="M35.2596 11.7757L31.8825 29.4169L15.028 26.1339L19.0926 4.89966L32.777 7.56491L35.2596 11.7757Z" fill="#F7FBFC"/>
<path d="M21.1564 14.0198C21.0589 14.1616 21.146 14.3597 21.2871 14.4076C21.4453 14.4612 21.5766 14.2978 21.5734 14.1289C21.5702 13.9479 21.4386 13.8173 21.278 13.8305C21.1185 13.8436 21.0026 14.0014 21.0338 14.1797C21.1188 14.6645 21.841 14.251 21.5803 13.9016C21.4812 13.7687 21.2814 13.7702 21.1985 13.9255C21.1184 14.0753 21.1887 14.2899 21.346 14.3206C21.5015 14.3511 21.6627 14.1893 21.6258 14.009C21.5951 13.8594 21.4408 13.7903 21.3161 13.8268C21.1606 13.8722 21.1042 14.0728 21.1926 14.2157C21.2754 14.3495 21.4536 14.3997 21.5705 14.2854C21.6802 14.1781 21.6786 13.9756 21.5901 13.8558C21.483 13.7106 21.2919 13.73 21.1813 13.863C21.0625 14.0054 21.0725 14.2224 21.2077 14.344C21.3347 14.4581 21.5202 14.4451 21.6274 14.3018C21.7334 14.1599 21.7317 13.9317 21.5917 13.8215C21.4753 13.73 21.3015 13.7446 21.1912 13.8452C21.0618 13.9636 21.0622 14.175 21.1722 14.3056C21.2869 14.4413 21.4694 14.4699 21.607 14.3577C21.7233 14.2627 21.5801 14.0747 21.4645 14.1688C21.4179 14.2067 21.3284 14.1565 21.3143 14.0994C21.2974 14.0311 21.3743 14.0038 21.4219 14.01C21.4895 14.0191 21.5021 14.1014 21.4514 14.1525C21.3898 14.2143 21.2847 14.1256 21.3329 14.0444C21.3718 13.9788 21.4631 14.006 21.432 14.0868C21.4229 14.1103 21.4107 14.1039 21.3895 14.0887C21.3853 14.0857 21.365 14.0573 21.3701 14.0681C21.3714 14.0706 21.3567 14.0626 21.3712 14.0664C21.3842 14.07 21.3987 14.0634 21.4116 14.0723C21.4013 14.0653 21.4209 14.0593 21.402 14.0709C21.3854 14.081 21.3928 14.0812 21.3901 14.0769C21.3825 14.0646 21.3835 14.0387 21.3987 14.0542C21.4262 14.0821 21.3725 14.118 21.3466 14.1325C21.3192 14.1481 21.2379 14.18 21.2507 14.1099C21.2568 14.077 21.3033 14.0662 21.3285 14.0834C21.3539 14.1008 21.3567 14.1337 21.3483 14.1637C21.3449 14.1754 21.3621 14.1695 21.3476 14.1658C21.3462 14.1656 21.3395 14.1595 21.3393 14.1579C21.3383 14.14 21.3268 14.1769 21.3378 14.1609C21.4258 14.0329 21.2442 13.8922 21.1567 14.0194L21.1564 14.0198Z" fill="#DDDDDD"/>
<path d="M22.7611 14.3701C25.1964 14.9765 27.6468 15.5068 30.109 15.9602C30.8191 16.091 31.53 16.2153 32.2419 16.3334C32.3617 16.3533 32.3781 16.137 32.2588 16.1174C29.7912 15.7075 27.3338 15.2229 24.8909 14.6607C24.2019 14.502 23.5139 14.3371 22.8274 14.1663C22.7106 14.1373 22.6433 14.341 22.7611 14.3703L22.7611 14.3701Z" fill="#DDDDDD"/>
<path d="M23.1863 13.8585C24.9239 14.2433 26.6577 14.641 28.4135 14.9358C29.0074 15.0356 29.6025 15.1277 30.1979 15.2171C30.4298 15.2519 30.4583 14.8928 30.2273 14.858C28.4779 14.5955 26.7438 14.2801 25.017 13.8987C24.4482 13.773 23.8799 13.6459 23.3111 13.52C23.2143 13.4986 23.1155 13.5278 23.0775 13.6273C23.0462 13.709 23.0901 13.8373 23.1862 13.8585L23.1863 13.8585Z" fill="#F1F1F1"/>
<path d="M22.7273 15.0588C23.5509 15.2903 24.3824 15.4809 25.2199 15.6318C25.344 15.6542 25.3615 15.4194 25.238 15.3971C24.4176 15.2493 23.6032 15.0637 22.7965 14.837C22.6756 14.8031 22.6056 15.0247 22.7273 15.0588Z" fill="#DDDDDD"/>
<path d="M25.7132 15.7695C26.5417 15.9069 27.377 16.024 28.2173 16.1214C28.3418 16.1358 28.3532 16.0186 28.2293 16.0042C27.4063 15.9088 26.588 15.7946 25.7766 15.6601C25.655 15.6399 25.5908 15.7492 25.7132 15.7695Z" fill="#DDDDDD"/>
<path d="M20.3112 17.3342C20.2137 17.4761 20.3008 17.6742 20.4419 17.7221C20.6001 17.7757 20.7313 17.6122 20.7282 17.4434C20.725 17.2624 20.5933 17.1318 20.4328 17.145C20.2733 17.1581 20.1574 17.3159 20.1886 17.4941C20.2736 17.9789 20.9958 17.5654 20.7351 17.216C20.6359 17.0831 20.4361 17.0846 20.3532 17.24C20.2732 17.3898 20.3435 17.6044 20.5008 17.635C20.6563 17.6656 20.8175 17.5037 20.7805 17.3234C20.7498 17.1738 20.5955 17.1048 20.4709 17.1413C20.3154 17.1867 20.259 17.3872 20.3474 17.5302C20.4302 17.664 20.6084 17.7142 20.7253 17.5998C20.835 17.4925 20.8333 17.2901 20.7449 17.1703C20.6378 17.0251 20.4467 17.0444 20.3361 17.1774C20.2173 17.3199 20.2272 17.5369 20.3625 17.6585C20.4895 17.7725 20.675 17.7595 20.7822 17.6162C20.8882 17.4744 20.8865 17.2461 20.7465 17.136C20.6301 17.0445 20.4563 17.059 20.346 17.1596C20.2166 17.278 20.2169 17.4895 20.327 17.6201C20.4417 17.7557 20.6242 17.7844 20.7618 17.6722C20.8781 17.5771 20.7349 17.3891 20.6192 17.4833C20.5727 17.5212 20.4832 17.4709 20.4691 17.4138C20.4522 17.3455 20.5291 17.3183 20.5766 17.3245C20.6443 17.3335 20.6569 17.4159 20.6062 17.467C20.5446 17.5287 20.4395 17.44 20.4877 17.3588C20.5266 17.2933 20.6179 17.3205 20.5868 17.4012C20.5777 17.4248 20.5655 17.4184 20.5443 17.4032C20.5401 17.4001 20.5198 17.3717 20.5249 17.3826C20.5262 17.3851 20.5115 17.377 20.526 17.3809C20.539 17.3844 20.5534 17.3779 20.5663 17.3867C20.5561 17.3798 20.5757 17.3738 20.5568 17.3853C20.5402 17.3955 20.5476 17.3957 20.5449 17.3913C20.5373 17.379 20.5382 17.3531 20.5535 17.3687C20.581 17.3965 20.5272 17.4325 20.5013 17.447C20.474 17.4625 20.3926 17.4944 20.4055 17.4244C20.4115 17.3914 20.4581 17.3806 20.4833 17.3978C20.5087 17.4152 20.5115 17.4482 20.5031 17.4781C20.4997 17.4899 20.5169 17.4839 20.5024 17.4803C20.501 17.48 20.4942 17.4739 20.4941 17.4724C20.4931 17.4545 20.4816 17.4913 20.4926 17.4754C20.5806 17.3474 20.399 17.2067 20.3114 17.3338L20.3112 17.3342Z" fill="#DDDDDD"/>
<path d="M21.901 17.9788C24.3413 18.4895 26.7958 18.9394 29.2614 19.328C29.9725 19.44 30.6842 19.5469 31.397 19.6489C31.517 19.666 31.5311 19.4931 31.4117 19.4761C28.9412 19.1224 26.48 18.7089 24.0326 18.2335C23.3424 18.0994 22.653 17.9602 21.9651 17.8163C21.848 17.7919 21.783 17.9543 21.901 17.9789L21.901 17.9788Z" fill="#DDDDDD"/>
<path d="M22.012 17.1596C23.8292 17.5485 25.6425 17.9503 27.4786 18.2494C28.0997 18.3505 28.7219 18.4441 29.3445 18.5349C29.587 18.5703 29.616 18.2111 29.3745 18.1758C27.5452 17.9092 25.7317 17.5897 23.9258 17.2041C23.3309 17.0771 22.7365 16.9486 22.1416 16.8214C22.0404 16.7997 21.9371 16.8286 21.8976 16.9281C21.8652 17.0098 21.9113 17.1381 22.0118 17.1596L22.012 17.1596Z" fill="#F1F1F1"/>
<path d="M21.8746 18.3748C22.5939 18.6008 23.3206 18.786 24.0527 18.9315C24.1612 18.953 24.178 18.7181 24.07 18.6967C23.3528 18.5542 22.6412 18.3739 21.9366 18.1526C21.831 18.1195 21.7682 18.3415 21.8746 18.3748Z" fill="#DDDDDD"/>
<path d="M24.8631 19.2014C25.6866 19.4329 26.5182 19.6235 27.3556 19.7744C27.4798 19.7967 27.4973 19.562 27.3737 19.5397C26.5533 19.3918 25.7389 19.2062 24.9323 18.9796C24.8114 18.9457 24.7414 19.1673 24.8631 19.2014Z" fill="#DDDDDD"/>
<path d="M19.4675 20.6487C19.37 20.7905 19.4571 20.9886 19.5981 21.0365C19.7564 21.0901 19.8876 20.9267 19.8844 20.7578C19.8813 20.5768 19.7496 20.4462 19.5891 20.4595C19.4295 20.4725 19.3137 20.6303 19.3449 20.8086C19.4298 21.2934 20.152 20.8799 19.8913 20.5305C19.7922 20.3976 19.5924 20.3991 19.5095 20.5544C19.4294 20.7042 19.4998 20.9189 19.657 20.9495C19.8126 20.9801 19.9738 20.8182 19.9368 20.6379C19.9061 20.4883 19.7518 20.4192 19.6272 20.4557C19.4716 20.5011 19.4152 20.7017 19.5036 20.8446C19.5864 20.9784 19.7647 21.0287 19.8816 20.9143C19.9912 20.807 19.9896 20.6045 19.9012 20.4847C19.794 20.3395 19.6029 20.3589 19.4923 20.4919C19.3736 20.6343 19.3835 20.8514 19.5188 20.9729C19.6458 21.087 19.8312 21.074 19.9385 20.9307C20.0444 20.7888 20.0427 20.5606 19.9028 20.4504C19.7863 20.3589 19.6126 20.3735 19.5023 20.4741C19.3728 20.5925 19.3732 20.8039 19.4832 20.9345C19.5979 21.0702 19.7805 21.0989 19.9181 20.9866C20.0344 20.8916 19.8912 20.7036 19.7755 20.7977C19.7289 20.8356 19.6395 20.7854 19.6253 20.7283C19.6085 20.66 19.6853 20.6327 19.7329 20.6389C19.8006 20.648 19.8132 20.7303 19.7624 20.7814C19.7009 20.8432 19.5957 20.7545 19.6439 20.6733C19.6829 20.6077 19.7741 20.6349 19.743 20.7157C19.734 20.7392 19.7217 20.7328 19.7005 20.7176C19.6964 20.7146 19.676 20.6862 19.6812 20.697C19.6824 20.6995 19.6677 20.6915 19.6822 20.6953C19.6952 20.6989 19.7097 20.6924 19.7226 20.7012C19.7123 20.6943 19.7319 20.6882 19.713 20.6998C19.6964 20.7099 19.7039 20.7101 19.7011 20.7058C19.6935 20.6935 19.6945 20.6676 19.7098 20.6831C19.7372 20.711 19.6835 20.7469 19.6576 20.7614C19.6303 20.777 19.5489 20.8089 19.5618 20.7388C19.5678 20.7059 19.6143 20.6951 19.6395 20.7123C19.6649 20.7297 19.6677 20.7626 19.6593 20.7926C19.656 20.8043 19.6732 20.7984 19.6586 20.7948C19.6573 20.7945 19.6505 20.7884 19.6504 20.7868C19.6493 20.7689 19.6378 20.8058 19.6489 20.7898C19.7368 20.6618 19.5552 20.5211 19.4677 20.6483L19.4675 20.6487Z" fill="#DDDDDD"/>
<path d="M21.0575 21.3028C22.6303 21.6408 24.1997 21.9714 25.7919 22.2129C26.379 22.302 26.9668 22.3876 27.5545 22.4733C27.6756 22.491 27.6901 22.3104 27.5696 22.2928C25.9773 22.0603 24.3904 21.8229 22.8162 21.494C22.2511 21.3758 21.6869 21.2542 21.1225 21.1329C21.0044 21.1074 20.9383 21.2773 21.0575 21.3028Z" fill="#DDDDDD"/>
<path d="M21.4924 20.5841C22.6498 20.8933 23.7969 21.2552 24.97 21.4725C25.479 21.5668 25.9889 21.6552 26.4986 21.7451C26.7303 21.7859 26.7638 21.3309 26.533 21.2901C25.8073 21.1623 25.079 21.0457 24.3572 20.89C24.2607 20.8691 24.1644 20.8471 24.0683 20.8237C24.0222 20.8126 23.9762 20.8009 23.9302 20.7891C23.8809 20.7764 23.93 20.7891 23.9002 20.7812C23.871 20.7735 23.8418 20.7656 23.8126 20.7577C23.5685 20.6918 23.3253 20.6218 23.0818 20.5533C22.5959 20.4167 22.1094 20.2839 21.6222 20.1539C21.5256 20.1281 21.4262 20.1664 21.3868 20.2929C21.3544 20.3968 21.3966 20.5585 21.4924 20.5841Z" fill="#F1F1F1"/>
<path d="M21.0277 21.9101C21.8561 22.0475 22.6915 22.1646 23.5317 22.262C23.6563 22.2764 23.6677 22.1592 23.5437 22.1448C22.7206 22.0494 21.9024 21.9352 21.091 21.8007C20.9694 21.7806 20.9052 21.8898 21.0277 21.9101Z" fill="#DDDDDD"/>
<path d="M24.3457 22.533C25.0651 22.759 25.7918 22.9442 26.5239 23.0897C26.6324 23.1112 26.6492 22.8763 26.5412 22.8549C25.824 22.7124 25.1124 22.5321 24.4078 22.3108C24.3022 22.2777 24.2394 22.4997 24.3457 22.533Z" fill="#DDDDDD"/>
<path d="M32.6764 7.66192C32.3789 8.81773 32.1302 9.98591 31.9316 11.1628C31.9279 11.1852 31.9466 11.2173 31.9696 11.2224C33.0372 11.4607 34.1151 11.6483 35.2007 11.7833C35.2751 11.7926 35.2845 11.6761 35.2102 11.6669C34.1353 11.5332 33.0671 11.3486 32.0097 11.1126C32.0223 11.1325 32.035 11.1522 32.0478 11.1722C32.2448 10.0054 32.491 8.84765 32.7859 7.70189C32.8044 7.62966 32.6952 7.58896 32.6764 7.66173L32.6764 7.66192Z" fill="#DDDDDD"/>
<path d="M20.1812 21.6552C20.4776 21.7521 20.8031 21.9057 20.9044 22.2274C21.0061 22.5509 20.8218 22.9197 20.5587 23.1073C20.2956 23.295 19.9737 23.3431 19.6632 23.3807C18.3921 23.5343 17.1121 23.5885 15.836 23.5425L16.7581 21.4353C17.8969 21.2191 19.078 21.2951 20.1812 21.6552Z" fill="#FDBAA0"/>
<path d="M18.8654 24.5322C19.1259 24.6899 19.4028 24.9065 19.4354 25.2251C19.4682 25.5455 19.2225 25.8407 18.9378 25.9516C18.6534 26.0625 18.3404 26.0317 18.0404 25.9941C16.8125 25.8394 15.5953 25.5913 14.4016 25.2523L15.6817 23.5344C16.7974 23.6012 17.8958 23.9455 18.8652 24.5324L18.8654 24.5322Z" fill="#FDBAA0"/>
<path d="M16.6265 26.3081C16.8372 26.5283 17.0466 26.806 16.9869 27.0992C16.9267 27.3943 16.6001 27.5814 16.2887 27.5927C15.977 27.604 15.6785 27.4806 15.3946 27.355C14.2325 26.8406 13.108 26.2464 12.0326 25.5786L13.7858 24.4434C14.863 24.845 15.8431 25.4885 16.6265 26.3081Z" fill="#FDBAA0"/>
<path d="M27.4682 26.5477L28.2848 26.9249C29.1606 27.3293 29.7013 28.2195 29.6516 29.175L29.351 34.9518C29.3402 35.1609 29.1603 35.3215 28.9492 35.3105L8.94127 34.2697C8.73023 34.2587 8.56797 34.0803 8.57885 33.8712L9.86409 9.1657C9.87497 8.95661 10.0549 8.79601 10.2659 8.80699L26.3317 9.64277C26.5427 9.65375 26.705 9.83215 26.6941 10.0412L25.9642 24.0716C25.9095 25.1232 26.5045 26.103 27.4682 26.5477Z" fill="#EA600E"/>
<path d="M23.8204 12.5373L13.0532 11.9772C12.8809 11.9682 12.7337 12.1056 12.7244 12.284L12.4966 16.6634C12.4873 16.8418 12.6195 16.9937 12.7918 17.0027L23.559 17.5628C23.7313 17.5718 23.8785 17.4344 23.8878 17.256L24.1156 12.8766C24.1249 12.6982 23.9927 12.5463 23.8204 12.5373Z" fill="#FEFEFE"/>
<path d="M13.9981 14.9688C16.2108 15.1749 18.429 15.3027 20.6493 15.3521C21.2896 15.3663 21.9302 15.3738 22.5709 15.3754C22.6788 15.3758 22.6704 15.1579 22.563 15.1575C20.3423 15.1525 18.1228 15.071 15.9079 14.9101C15.2831 14.8647 14.6589 14.8129 14.035 14.7547C13.9289 14.7449 13.8908 14.9587 13.9981 14.9686L13.9981 14.9688Z" fill="#EA600E"/>
<path d="M14.1529 13.9859C16.1506 14.1272 18.1467 14.2788 20.1489 14.3502C20.8261 14.3744 21.5034 14.3926 22.1806 14.4087C22.4443 14.4149 22.4123 14.1389 22.1497 14.1327C20.1604 14.0856 18.1788 13.9967 16.1934 13.8571C15.5394 13.811 14.8857 13.7639 14.2319 13.7175C14.1207 13.7096 14.0159 13.7404 13.9915 13.8195C13.9712 13.8845 14.0429 13.9783 14.1531 13.9861L14.1529 13.9859Z" fill="#EA600E"/>
<path d="M13.9614 15.67C14.6924 15.765 15.4272 15.8089 16.1639 15.8027C16.273 15.8017 16.269 15.5121 16.1603 15.5128C15.4388 15.5189 14.7191 15.4773 14.0029 15.3841C13.8957 15.3702 13.8531 15.6555 13.9612 15.6697L13.9614 15.67Z" fill="#EA600E"/>
<path d="M16.9759 15.8263C17.7071 15.9212 18.4418 15.9652 19.1785 15.959C19.2876 15.958 19.2836 15.6684 19.1749 15.6691C18.4534 15.6751 17.7336 15.6335 17.0176 15.5403C16.9104 15.5265 16.8678 15.8117 16.9759 15.826L16.9759 15.8263Z" fill="#EA600E"/>
</svg>
