<svg width="59" height="67" viewBox="0 0 59 67" fill="none" xmlns="http://www.w3.org/2000/svg">
<g filter="url(#filter0_d_814_4860)">
<path d="M39.9191 7.028L38.716 7.2956L38.4766 6.22087C38.2924 5.39461 37.4727 4.87377 36.6458 5.05772L8.51617 11.3167C7.68934 11.5007 7.16818 12.3199 7.35229 13.1461L16.0831 52.3242C16.2672 53.1505 17.087 53.6713 17.9138 53.4874L46.0432 47.2286C46.8703 47.0447 47.3912 46.2255 47.2071 45.3992L41.1818 18.3626L42.385 18.095C43.4967 17.8477 44.197 16.7467 43.9496 15.6357L42.3799 8.59187C42.1325 7.48085 41.0306 6.781 39.9188 7.02826L39.9191 7.028Z" fill="#EA600E"/>
<path d="M39.7409 10.4549L12.4631 11.8257L14.3124 48.5415L41.5902 47.1708L39.7409 10.4549Z" fill="#ECECEC"/>
<path d="M38.3526 9.5978L11.2416 12.9036L15.6991 49.3953L42.8104 46.0895L38.3526 9.5978Z" fill="#F6F6F6"/>
<g style="mix-blend-mode:multiply">
<path d="M31.9789 10.4592L10.2987 14.5577L17.1382 50.6793L43.9744 45.6064L38.2692 15.4753L38.103 14.5969L31.9789 10.4592Z" fill="#DDDDDD"/>
</g>
<path d="M38.5153 13.9133L44.3867 44.9228L17.5505 49.9959L10.7113 13.8741L32.3915 9.77564L38.5153 13.9133Z" fill="white"/>
<g style="mix-blend-mode:multiply">
<path d="M44.706 11.0551L44.5398 10.1767L38.416 6.03906L39.3746 11.1024L44.706 11.0551Z" fill="#DFDFDF"/>
</g>
<path d="M44.5398 10.1767L38.416 6.03906L39.3746 11.1024L44.5398 10.1767Z" fill="#F7F7F7"/>
<path d="M38.6908 44.8994C36.5535 45.3034 34.4858 43.8944 34.0813 41.7587C33.6769 39.6228 35.0868 37.5567 37.2239 37.1526C39.3613 36.7485 41.429 38.1576 41.8334 40.2932C42.2379 42.4291 40.8279 44.4953 38.6908 44.8994ZM37.3293 37.709C35.499 38.0549 34.2918 39.8244 34.6381 41.6534C34.9844 43.4825 36.7551 44.689 38.5854 44.343C40.4157 43.997 41.623 42.2276 41.2767 40.3985C40.9304 38.5695 39.1597 37.363 37.3293 37.709Z" fill="#EA600E"/>
<path d="M37.8277 41.6083L36.5064 40.8157L36.087 41.5142L38.1073 42.7259L38.1169 42.71L38.5267 42.0274L40.075 39.4494L39.376 39.0302L37.8277 41.6083Z" fill="#EA600E"/>
<path d="M36.4474 17.412L14.8843 21.4883L15.025 22.2314L36.5881 18.155L36.4474 17.412Z" fill="#F7F7F7"/>
<path d="M36.901 19.8065L15.3379 23.8828L15.4786 24.6259L37.0417 20.5496L36.901 19.8065Z" fill="#F7F7F7"/>
<path d="M29.9276 23.6031L15.7915 26.2754L15.9322 27.0185L30.0683 24.3462L29.9276 23.6031Z" fill="#F7F7F7"/>
<path d="M32.9951 25.5033L16.2441 28.6699L16.3848 29.413L33.1358 26.2464L32.9951 25.5033Z" fill="#F7F7F7"/>
<path d="M38.2604 26.9881L16.6973 31.0645L16.838 31.8075L38.4011 27.7312L38.2604 26.9881Z" fill="#F7F7F7"/>
<path d="M38.714 29.3827L17.1509 33.459L17.2916 34.2021L38.8547 30.1258L38.714 29.3827Z" fill="#F7F7F7"/>
<path d="M35.8912 32.3945L17.604 35.8516L17.7447 36.5947L36.0319 33.1376L35.8912 32.3945Z" fill="#F7F7F7"/>
<path d="M39.6212 34.1698L18.0581 38.2461L18.1988 38.9892L39.7619 34.9129L39.6212 34.1698Z" fill="#F7F7F7"/>
<path d="M31.5265 38.1802L18.5112 40.6406L18.6519 41.3837L31.6672 38.9233L31.5265 38.1802Z" fill="#F7F7F7"/>
<path d="M20.4166 40.8543L21.416 41.4999C21.536 41.5775 21.6964 41.5438 21.7746 41.4242C21.9919 41.0919 22.3274 40.4132 21.9854 39.7699C21.5747 38.9971 20.4732 40.0202 20.3075 40.5662C20.2745 40.6751 20.321 40.7923 20.4166 40.8543Z" fill="#F5AB84"/>
</g>
<defs>
<filter id="filter0_d_814_4860" x="0.31543" y="0.0214844" width="57.9287" height="66.502" filterUnits="userSpaceOnUse" color-interpolation-filters="sRGB">
<feFlood flood-opacity="0" result="BackgroundImageFix"/>
<feColorMatrix in="SourceAlpha" type="matrix" values="0 0 0 0 0 0 0 0 0 0 0 0 0 0 0 0 0 0 127 0" result="hardAlpha"/>
<feOffset dx="2" dy="4"/>
<feGaussianBlur stdDeviation="4.5"/>
<feComposite in2="hardAlpha" operator="out"/>
<feColorMatrix type="matrix" values="0 0 0 0 0 0 0 0 0 0 0 0 0 0 0 0 0 0 0.09 0"/>
<feBlend mode="normal" in2="BackgroundImageFix" result="effect1_dropShadow_814_4860"/>
<feBlend mode="normal" in="SourceGraphic" in2="effect1_dropShadow_814_4860" result="shape"/>
</filter>
</defs>
</svg>
