<svg width="40" height="40" viewBox="0 0 40 40" fill="none" xmlns="http://www.w3.org/2000/svg">
<circle cx="20" cy="20" r="20" fill="#E2E2E2"/>
<path d="M28.644 5.71371L27.8518 5.91721L27.6697 5.20953C27.5298 4.66545 26.9748 4.33771 26.4303 4.47759L7.90733 9.2372C7.36287 9.37709 7.0349 9.93171 7.17488 10.4758L13.8128 36.2737C13.9528 36.8178 14.5078 37.1455 15.0523 37.0056L33.5751 32.2462C34.1197 32.1063 34.4475 31.5517 34.3075 31.0076L29.7266 13.2046L30.5188 13.0011C31.2509 12.8131 31.6916 12.0676 31.5035 11.336L30.3101 6.69783C30.1219 5.96624 29.3759 5.52585 28.6438 5.71389L28.644 5.71371Z" fill="#EA600E"/>
<path d="M28.5988 7.99023L10.5352 9.48908L12.5554 33.8025L30.619 32.3037L28.5988 7.99023Z" fill="#ECECEC"/>
<path d="M27.6621 7.45117L9.75098 10.2299L13.4964 34.3383L31.4077 31.5596L27.6621 7.45117Z" fill="#F6F6F6"/>
<g style="mix-blend-mode:multiply">
<path d="M23.4515 8.16016L9.15967 11.3473L14.4771 35.1587L32.1677 31.2138L27.7322 11.3513L27.603 10.7723L23.4515 8.16016Z" fill="#DDDDDD"/>
</g>
<path d="M27.8631 10.3094L32.4278 30.7509L14.7372 34.696L9.41992 10.8844L23.7117 7.69727L27.8631 10.3094Z" fill="white"/>
<g style="mix-blend-mode:multiply">
<path d="M27.9915 10.8884L27.8622 10.3094L23.7109 7.69727L24.4562 11.035L27.9915 10.8884Z" fill="#DFDFDF"/>
</g>
<path d="M27.8622 10.3094L23.7109 7.69727L24.4562 11.035L27.8622 10.3094Z" fill="#F7F7F7"/>
<path d="M28.647 30.8592C27.238 31.1735 25.8361 30.2835 25.5217 28.8757C25.2072 27.4677 26.0978 26.0668 27.5066 25.7526C28.9155 25.4383 30.3175 26.3283 30.6319 27.7361C30.9464 29.1441 30.0558 30.545 28.647 30.8592ZM27.5885 26.1193C26.3819 26.3884 25.6194 27.5881 25.8887 28.7938C26.1579 29.9996 27.3585 30.7615 28.5651 30.4925C29.7716 30.2234 30.5341 29.0237 30.2649 27.818C29.9957 26.6123 28.7951 25.8503 27.5885 26.1193Z" fill="#299F00"/>
<path d="M28.0043 28.6946L27.1107 28.1975L26.8477 28.6699L28.2139 29.4299L28.2199 29.4192L28.477 28.9575L29.4482 27.2141L28.9755 26.9512L28.0043 28.6946Z" fill="#299F00"/>
<path d="M26.5657 12.6738L12.3511 15.8438L12.4605 16.3336L26.675 13.1637L26.5657 12.6738Z" fill="#EA600E"/>
<path d="M26.9187 14.2539L12.7041 17.4238L12.8135 17.9137L27.0281 14.7438L26.9187 14.2539Z" fill="#EA600E"/>
<path d="M22.3743 16.9239L13.0557 19.002L13.1651 19.4918L22.4837 17.4137L22.3743 16.9239Z" fill="#EA600E"/>
<path d="M24.4511 18.1195L13.4087 20.582L13.5181 21.0719L24.5605 18.6094L24.4511 18.1195Z" fill="#EA600E"/>
<path d="M27.9763 18.9903L13.7617 22.1602L13.8711 22.65L28.0857 19.4801L27.9763 18.9903Z" fill="#EA600E"/>
<path d="M28.3293 20.5684L14.1147 23.7383L14.2241 24.2281L28.4387 21.0582L28.3293 20.5684Z" fill="#EA600E"/>
<path d="M26.5199 22.6281L14.4648 25.3164L14.5742 25.8063L26.6293 23.1179L26.5199 22.6281Z" fill="#EA600E"/>
<path d="M29.0324 23.7227L14.8179 26.8926L14.9273 27.3824L29.1418 24.2125L29.0324 23.7227Z" fill="#EA600E"/>
<path d="M23.7507 26.5593L15.1709 28.4727L15.2803 28.9625L23.86 27.0492L23.7507 26.5593Z" fill="#EA600E"/>
</svg>
