<svg width="33" height="33" viewBox="0 0 33 33" fill="none" xmlns="http://www.w3.org/2000/svg">
<rect width="33" height="33" rx="8" fill="#EA600E"/>
<mask id="mask0_809_369" style="mask-type:luminance" maskUnits="userSpaceOnUse" x="8" y="7" width="17" height="20">
<path d="M25 7H8V26.55H25V7Z" fill="white"/>
<path d="M23.3701 11.8792V22.7192C23.3701 23.2492 22.9201 23.6792 22.3701 23.6792H12.3901C11.8401 23.6792 11.3901 23.2492 11.3901 22.7192V8.90922C11.3901 8.37922 11.8401 7.94922 12.3901 7.94922H19.2801L23.3701 11.8692V11.8792Z" fill="black"/>
</mask>
<g mask="url(#mask0_809_369)">
<path d="M20.47 9.63086H10.48C9.92998 9.63086 9.47998 10.0609 9.47998 10.5909V24.4009C9.47998 24.9309 9.92998 25.3609 10.48 25.3609H20.46C21.01 25.3609 21.46 24.9309 21.46 24.4009V10.5909C21.46 10.0609 21.01 9.63086 20.46 9.63086H20.47Z" fill="#E2E2E2"/>
</g>
<g opacity="0.45">
<path d="M23.3701 11.8792V22.7192C23.3701 23.2492 22.9201 23.6792 22.3701 23.6792H12.3901C11.8401 23.6792 11.3901 23.2492 11.3901 22.7192V8.90922C11.3901 8.37922 11.8401 7.94922 12.3901 7.94922H19.2801L23.3701 11.8692V11.8792Z" fill="#797979"/>
</g>
<path d="M23.3701 11.8792V22.7192C23.3701 23.2492 22.9201 23.6792 22.3701 23.6792H12.3901C11.8401 23.6792 11.3901 23.2492 11.3901 22.7192V8.90922C11.3901 8.37922 11.8401 7.94922 12.3901 7.94922H19.2801L23.3701 11.8692V11.8792Z" fill="white"/>
<g opacity="0.5">
<path d="M23.1198 11.8795H20.2798C19.7298 11.8795 19.2798 11.4495 19.2798 10.9195V8.18945L23.1198 11.8795Z" fill="#E8E8E8"/>
</g>
<g opacity="0.5">
<path d="M19.46 8.36094L19.77 8.65094L22.96 11.7109H20.29C19.84 11.7109 19.47 11.3609 19.47 10.9209V8.36094H19.46ZM19.29 7.96094V10.9209C19.29 11.4509 19.74 11.8809 20.29 11.8809H23.38L19.9 8.54094L19.3 7.96094H19.29Z" fill="white"/>
</g>
<path d="M21.33 14.9298H13.44C13.2 14.9298 13 14.7398 13 14.5098C13 14.2798 13.2 14.0898 13.44 14.0898H21.33C21.57 14.0898 21.77 14.2798 21.77 14.5098C21.77 14.7398 21.57 14.9298 21.33 14.9298Z" fill="#EA600E"/>
<path d="M21.33 17.4494H13.44C13.2 17.4494 13 17.2594 13 17.0294C13 16.7994 13.2 16.6094 13.44 16.6094H21.33C21.57 16.6094 21.77 16.7994 21.77 17.0294C21.77 17.2594 21.57 17.4494 21.33 17.4494Z" fill="#EA600E"/>
<path d="M21.33 19.9806H13.44C13.2 19.9806 13 19.7906 13 19.5606C13 19.3306 13.2 19.1406 13.44 19.1406H21.33C21.57 19.1406 21.77 19.3306 21.77 19.5606C21.77 19.7906 21.57 19.9806 21.33 19.9806Z" fill="#EA600E"/>
<g opacity="0.5">
<path d="M19.2101 8.11922L23.1901 11.9392V22.7092C23.1901 23.1492 22.8201 23.4992 22.3701 23.4992H12.3901C11.9401 23.4992 11.5701 23.1492 11.5701 22.7092V8.90922C11.5701 8.46922 11.9401 8.11922 12.3901 8.11922H19.2101ZM19.2801 7.94922H12.3901C11.8401 7.94922 11.3901 8.37922 11.3901 8.90922V22.7192C11.3901 23.2492 11.8401 23.6792 12.3901 23.6792H22.3701C22.9201 23.6792 23.3701 23.2492 23.3701 22.7192V11.8792L19.2801 7.95922V7.94922Z" fill="url(#paint0_linear_809_369)"/>
</g>
<defs>
<linearGradient id="paint0_linear_809_369" x1="10.0301" y1="9.81922" x2="23.0601" y2="23.4092" gradientUnits="userSpaceOnUse">
<stop stop-color="white"/>
<stop offset="1" stop-color="white"/>
</linearGradient>
</defs>
</svg>
