<svg width="33" height="33" viewBox="0 0 33 33" fill="none" xmlns="http://www.w3.org/2000/svg">
<rect width="33" height="33" rx="8" fill="white"/>
<mask id="mask0_809_926" style="mask-type:luminance" maskUnits="userSpaceOnUse" x="7" y="6" width="18" height="21">
<path d="M24.5898 6.61914H7.58984V26.1691H24.5898V6.61914Z" fill="white"/>
<path d="M22.96 11.4984V22.3384C22.96 22.8684 22.51 23.2984 21.96 23.2984H11.98C11.43 23.2984 10.98 22.8684 10.98 22.3384V8.52836C10.98 7.99836 11.43 7.56836 11.98 7.56836H18.87L22.96 11.4884V11.4984Z" fill="black"/>
</mask>
<g mask="url(#mask0_809_926)">
<path d="M20.0598 9.25H10.0698C9.51982 9.25 9.06982 9.68 9.06982 10.21V24.02C9.06982 24.55 9.51982 24.98 10.0698 24.98H20.0498C20.5998 24.98 21.0498 24.55 21.0498 24.02V10.21C21.0498 9.68 20.5998 9.25 20.0498 9.25H20.0598Z" fill="url(#paint0_linear_809_926)"/>
</g>
<g opacity="0.45">
<path d="M22.96 11.4984V22.3384C22.96 22.8684 22.51 23.2984 21.96 23.2984H11.98C11.43 23.2984 10.98 22.8684 10.98 22.3384V8.52836C10.98 7.99836 11.43 7.56836 11.98 7.56836H18.87L22.96 11.4884V11.4984Z" fill="#797979"/>
</g>
<g opacity="0.5">
<path d="M22.96 11.4984V22.3384C22.96 22.8684 22.51 23.2984 21.96 23.2984H11.98C11.43 23.2984 10.98 22.8684 10.98 22.3384V8.52836C10.98 7.99836 11.43 7.56836 11.98 7.56836H18.87L22.96 11.4884V11.4984Z" fill="url(#paint1_linear_809_926)"/>
</g>
<g opacity="0.5">
<path d="M22.7096 11.4986H19.8696C19.3196 11.4986 18.8696 11.0686 18.8696 10.5386V7.80859L22.7096 11.4986Z" fill="url(#paint2_linear_809_926)"/>
</g>
<g opacity="0.5">
<path d="M19.0499 7.98008L19.3599 8.27008L22.5499 11.3301H19.8799C19.4299 11.3301 19.0599 10.9801 19.0599 10.5401V7.98008H19.0499ZM18.8799 7.58008V10.5401C18.8799 11.0701 19.3299 11.5001 19.8799 11.5001H22.9699L19.4899 8.16008L18.8899 7.58008H18.8799Z" fill="url(#paint3_linear_809_926)"/>
</g>
<path d="M20.9198 14.549H13.0298C12.7898 14.549 12.5898 14.359 12.5898 14.129C12.5898 13.899 12.7898 13.709 13.0298 13.709H20.9198C21.1598 13.709 21.3598 13.899 21.3598 14.129C21.3598 14.359 21.1598 14.549 20.9198 14.549Z" fill="white"/>
<path d="M20.9198 17.0685H13.0298C12.7898 17.0685 12.5898 16.8785 12.5898 16.6485C12.5898 16.4185 12.7898 16.2285 13.0298 16.2285H20.9198C21.1598 16.2285 21.3598 16.4185 21.3598 16.6485C21.3598 16.8785 21.1598 17.0685 20.9198 17.0685Z" fill="white"/>
<path d="M20.9198 19.5998H13.0298C12.7898 19.5998 12.5898 19.4098 12.5898 19.1798C12.5898 18.9498 12.7898 18.7598 13.0298 18.7598H20.9198C21.1598 18.7598 21.3598 18.9498 21.3598 19.1798C21.3598 19.4098 21.1598 19.5998 20.9198 19.5998Z" fill="white"/>
<g opacity="0.5">
<path d="M18.8 7.73836L22.78 11.5584V22.3284C22.78 22.7684 22.41 23.1184 21.96 23.1184H11.98C11.53 23.1184 11.16 22.7684 11.16 22.3284V8.52836C11.16 8.08836 11.53 7.73836 11.98 7.73836H18.8ZM18.87 7.56836H11.98C11.43 7.56836 10.98 7.99836 10.98 8.52836V22.3384C10.98 22.8684 11.43 23.2984 11.98 23.2984H21.96C22.51 23.2984 22.96 22.8684 22.96 22.3384V11.4984L18.87 7.57836V7.56836Z" fill="url(#paint4_linear_809_926)"/>
</g>
<defs>
<linearGradient id="paint0_linear_809_926" x1="8.54982" y1="10.31" x2="21.5798" y2="23.91" gradientUnits="userSpaceOnUse">
<stop stop-color="#757575"/>
<stop offset="1" stop-color="#CECFD1"/>
</linearGradient>
<linearGradient id="paint1_linear_809_926" x1="9.61998" y1="9.43836" x2="22.65" y2="23.0284" gradientUnits="userSpaceOnUse">
<stop stop-color="#8E8E8E"/>
<stop offset="0.442708" stop-color="#F0F0F1"/>
<stop offset="0.73" stop-color="#DEDFE0"/>
<stop offset="1" stop-color="#CECFD1"/>
</linearGradient>
<linearGradient id="paint2_linear_809_926" x1="19.2296" y1="11.2786" x2="20.7896" y2="9.64859" gradientUnits="userSpaceOnUse">
<stop stop-color="#767676"/>
<stop offset="0.09" stop-color="#FDFDFD"/>
<stop offset="0.23" stop-color="#F8F8F8"/>
<stop offset="0.42" stop-color="#F0F0F1"/>
<stop offset="0.63" stop-color="#E5E5E6"/>
<stop offset="0.87" stop-color="#D6D7D9"/>
<stop offset="1" stop-color="#CECFD1"/>
</linearGradient>
<linearGradient id="paint3_linear_809_926" x1="18.1299" y1="8.29008" x2="22.0399" y2="12.3801" gradientUnits="userSpaceOnUse">
<stop stop-color="#717171"/>
<stop offset="1" stop-color="#D0D1D3"/>
</linearGradient>
<linearGradient id="paint4_linear_809_926" x1="9.61998" y1="9.43836" x2="22.65" y2="23.0284" gradientUnits="userSpaceOnUse">
<stop stop-color="#A8A8A8"/>
<stop offset="1" stop-color="#D0D1D3"/>
</linearGradient>
</defs>
</svg>
