<svg width="64" height="64" viewBox="0 0 64 64" fill="none" xmlns="http://www.w3.org/2000/svg">
<path d="M50.7092 8.01122L46.0556 3.355C45.5756 2.87758 44.9258 2.61012 44.2488 2.61133H10.2778C9.60001 2.61133 8.94999 2.88058 8.47073 3.35984C7.99147 3.8391 7.72223 4.48911 7.72223 5.16689V50.9957L50.7092 8.01122Z" fill="#E6E5E5"/>
<path d="M25.6111 11.5557V21.7779L17.1011 27.4512C16.0738 25.9114 15.4838 24.1215 15.3942 22.2726C15.3047 20.4236 15.7188 18.5851 16.5925 16.9531C17.4662 15.3212 18.7666 13.9571 20.355 13.0065C21.9434 12.0559 23.76 11.5545 25.6111 11.5557Z" fill="#605F5F" fill-opacity="0.47" stroke="#4D4C4C" stroke-linecap="round" stroke-linejoin="round"/>
<path d="M35.8334 21.7779C35.8355 23.9734 35.1307 26.1112 33.8233 27.875C32.5159 29.6388 30.6754 30.9348 28.5742 31.5712C26.4729 32.2076 24.2226 32.1506 22.1563 31.4086C20.09 30.6665 18.3175 29.279 17.1011 27.4512L25.6111 21.7779V11.5557C28.3222 11.5557 30.9223 12.6326 32.8393 14.5497C34.7564 16.4667 35.8334 19.0668 35.8334 21.7779Z" fill="#605F5F" fill-opacity="0.47" stroke="#4D4C4C" stroke-linecap="round" stroke-linejoin="round"/>
<path d="M42.2222 15.3887H48.6111" stroke="#4D4C4C" stroke-linecap="round" stroke-linejoin="round"/>
<path d="M15.3889 38.3887H48.6111" stroke="#4D4C4C" stroke-linecap="round" stroke-linejoin="round"/>
<path d="M15.3889 46.0557H48.6111" stroke="#4D4C4C" stroke-linecap="round" stroke-linejoin="round"/>
<path d="M15.3889 53.7227H48.6111" stroke="#4D4C4C" stroke-linecap="round" stroke-linejoin="round"/>
<path d="M42.2222 23.0557H48.6111" stroke="#4D4C4C" stroke-linecap="round" stroke-linejoin="round"/>
<path d="M42.2222 30.7227H48.6111" stroke="#4D4C4C" stroke-linecap="round" stroke-linejoin="round"/>
<path d="M55.529 12.8336C56.0083 13.3127 56.2776 13.9626 56.2778 14.6403V58.8336C56.2778 59.5113 56.0085 60.1613 55.5293 60.6406C55.05 61.1199 54.4 61.3891 53.7222 61.3891H10.2778C9.94218 61.3891 9.60987 61.323 9.29982 61.1946C8.98976 61.0661 8.70804 60.8779 8.47073 60.6406C7.99147 60.1613 7.72223 59.5113 7.72223 58.8336V5.16689C7.72223 4.48911 7.99147 3.8391 8.47073 3.35984C8.94999 2.88058 9.60001 2.61133 10.2778 2.61133H44.2488C44.9258 2.61012 45.5756 2.87758 46.0556 3.355L55.529 12.8336Z" stroke="#4D4C4C" stroke-linecap="round" stroke-linejoin="round"/>
</svg>
