<svg width="33" height="33" viewBox="0 0 33 33" fill="none" xmlns="http://www.w3.org/2000/svg">
<rect width="33" height="33" rx="8" fill="white"/>
<g clip-path="url(#clip0_809_895)">
<mask id="mask0_809_895" style="mask-type:luminance" maskUnits="userSpaceOnUse" x="8" y="2" width="18" height="11">
<path d="M25.7373 2.3125H8.13184V12.9973H25.7373V2.3125Z" fill="white"/>
<path d="M21.9492 8.09766H11.2171C10.6095 8.09766 10.1123 8.57902 10.1123 9.17876V10.6386C10.1123 11.2384 10.6095 11.7198 11.2171 11.7198H21.9492C22.5568 11.7198 23.054 11.2384 23.054 10.6386V9.17876C23.054 8.57902 22.5568 8.09766 21.9492 8.09766Z" fill="black"/>
</mask>
<g mask="url(#mask0_809_895)">
<path d="M20.2136 7.03198H17.8541C17.8541 6.34544 17.2859 5.78516 16.5757 5.78516C15.8655 5.78516 15.2973 6.34544 15.2973 7.03198H12.9378C12.5196 7.03198 12.1724 7.36341 12.1724 7.78165V9.30467C12.1724 9.71501 12.5117 10.0543 12.9378 10.0543H20.2136C20.6318 10.0543 20.979 9.7229 20.979 9.30467V7.78165C20.979 7.3713 20.6397 7.03198 20.2136 7.03198Z" fill="url(#paint0_linear_809_895)"/>
</g>
<g opacity="0.66">
<path d="M21.9497 8.09774H11.2176C10.6099 8.09774 10.1128 8.5791 10.1128 9.17884V24.267C10.1128 24.8588 10.6099 25.3481 11.2176 25.3481H21.9497C22.5573 25.3481 23.0545 24.8667 23.0545 24.267V9.17095C23.0545 8.57121 22.5573 8.08984 21.9497 8.08984V8.09774Z" fill="#B9B9B9"/>
</g>
<path d="M21.9497 8.09774H11.2176C10.6099 8.09774 10.1128 8.5791 10.1128 9.17884V24.267C10.1128 24.8588 10.6099 25.3481 11.2176 25.3481H21.9497C22.5573 25.3481 23.0545 24.8667 23.0545 24.267V9.17095C23.0545 8.57121 22.5573 8.08984 21.9497 8.08984V8.09774Z" fill="url(#paint1_linear_809_895)"/>
<path d="M21.9497 8.27923C22.4547 8.27923 22.8651 8.68169 22.8651 9.17095V24.2591C22.8651 24.7562 22.4547 25.1508 21.9497 25.1508H11.2176C10.7125 25.1508 10.3022 24.7483 10.3022 24.2591V9.17095C10.3022 8.6738 10.7125 8.27923 11.2176 8.27923H21.9497ZM21.9497 8.09774H11.2176C10.6099 8.09774 10.1128 8.5791 10.1128 9.17884V24.267C10.1128 24.8588 10.6099 25.3481 11.2176 25.3481H21.9497C22.5573 25.3481 23.0545 24.8667 23.0545 24.267V9.17095C23.0545 8.5791 22.5573 8.08984 21.9497 8.08984V8.09774Z" fill="url(#paint2_linear_809_895)"/>
<path d="M19.3851 23.5092L17.8779 24.0853C17.6254 24.18 17.3807 23.9353 17.4754 23.6907L18.0594 22.215C18.1541 21.9783 18.2961 21.7652 18.4776 21.5837L25.2641 14.9393C25.5087 14.7025 25.9033 14.7025 26.14 14.9393L26.8108 15.6021C27.0554 15.8389 27.0554 16.2255 26.8108 16.4623L20.0243 23.1067C19.8428 23.2882 19.6218 23.4224 19.3772 23.5171L19.3851 23.5092Z" fill="url(#paint3_linear_809_895)"/>
<path d="M20.2768 13.5345H12.8748C12.6144 13.5345 12.4092 13.3294 12.4092 13.0768C12.4092 12.8243 12.6222 12.6191 12.8748 12.6191H20.2768C20.5372 12.6191 20.7424 12.8243 20.7424 13.0768C20.7424 13.3294 20.5293 13.5345 20.2768 13.5345Z" fill="white"/>
<path d="M20.2768 16.3919H12.8748C12.6144 16.3919 12.4092 16.1868 12.4092 15.9343C12.4092 15.6817 12.6222 15.4766 12.8748 15.4766H20.2768C20.5372 15.4766 20.7424 15.6817 20.7424 15.9343C20.7424 16.1868 20.5293 16.3919 20.2768 16.3919Z" fill="white"/>
<path d="M16.7573 19.2474H12.8748C12.6144 19.2474 12.4092 19.0422 12.4092 18.7897C12.4092 18.5372 12.6222 18.332 12.8748 18.332H16.7573C17.0177 18.332 17.2229 18.5372 17.2229 18.7897C17.2229 19.0422 17.0098 19.2474 16.7573 19.2474Z" fill="white"/>
</g>
<defs>
<linearGradient id="paint0_linear_809_895" x1="13.8927" y1="5.79305" x2="19.2666" y2="11.2854" gradientUnits="userSpaceOnUse">
<stop stop-color="#666666"/>
<stop offset="0.0001" stop-color="#CFD0D2"/>
<stop offset="0.947917" stop-color="#F5F5F5"/>
</linearGradient>
<linearGradient id="paint1_linear_809_895" x1="9.41836" y1="9.3998" x2="23.741" y2="24.0302" gradientUnits="userSpaceOnUse">
<stop stop-color="#ACACAC"/>
<stop offset="1" stop-color="#D9D9D9"/>
</linearGradient>
<linearGradient id="paint2_linear_809_895" x1="8.35304" y1="11.8619" x2="24.8142" y2="21.5681" gradientUnits="userSpaceOnUse">
<stop stop-color="#B6B6B6"/>
<stop offset="1" stop-color="#DADADA"/>
</linearGradient>
<linearGradient id="paint3_linear_809_895" x1="21.2553" y1="18.8612" x2="22.7784" y2="20.4079" gradientUnits="userSpaceOnUse">
<stop stop-color="#A2A2A2"/>
<stop offset="1" stop-color="#F0F0F0"/>
</linearGradient>
<clipPath id="clip0_809_895">
<rect width="18" height="22.8058" fill="white" transform="translate(9 3)"/>
</clipPath>
</defs>
</svg>
