<svg width="33" height="33" viewBox="0 0 33 33" fill="none" xmlns="http://www.w3.org/2000/svg">
<rect width="33" height="33" rx="8" fill="#EA600E"/>
<g clip-path="url(#clip0_809_998)">
<mask id="mask0_809_998" style="mask-type:luminance" maskUnits="userSpaceOnUse" x="7" y="3" width="18" height="11">
<path d="M24.7373 3.3125H7.13184L7.13184 13.9973H24.7373L24.7373 3.3125Z" fill="white"/>
<path d="M20.9492 9.09766H10.2171C9.60946 9.09766 9.1123 9.57902 9.1123 10.1788L9.1123 11.6386C9.1123 12.2384 9.60946 12.7198 10.2171 12.7198H20.9492C21.5568 12.7198 22.054 12.2384 22.054 11.6386L22.054 10.1788C22.054 9.57902 21.5568 9.09766 20.9492 9.09766Z" fill="black"/>
</mask>
<g mask="url(#mask0_809_998)">
<path d="M19.2136 8.03198H16.8541C16.8541 7.34544 16.2859 6.78516 15.5757 6.78516C14.8655 6.78516 14.2973 7.34544 14.2973 8.03198H11.9378C11.5196 8.03198 11.1724 8.36341 11.1724 8.78165L11.1724 10.3047C11.1724 10.715 11.5117 11.0543 11.9378 11.0543H19.2136C19.6318 11.0543 19.979 10.7229 19.979 10.3047L19.979 8.78165C19.979 8.3713 19.6397 8.03198 19.2136 8.03198Z" fill="white"/>
</g>
<g opacity="0.66">
<path d="M20.9497 9.09774H10.2176C9.60994 9.09774 9.11279 9.5791 9.11279 10.1788L9.11279 25.267C9.11279 25.8588 9.60994 26.3481 10.2176 26.3481H20.9497C21.5573 26.3481 22.0545 25.8667 22.0545 25.267L22.0545 10.1709C22.0545 9.57121 21.5573 9.08984 20.9497 9.08984V9.09774Z" fill="#6F6F6F"/>
</g>
<path d="M20.9497 9.09774H10.2176C9.60994 9.09774 9.11279 9.5791 9.11279 10.1788L9.11279 25.267C9.11279 25.8588 9.60994 26.3481 10.2176 26.3481H20.9497C21.5573 26.3481 22.0545 25.8667 22.0545 25.267L22.0545 10.1709C22.0545 9.57121 21.5573 9.08984 20.9497 9.08984V9.09774Z" fill="white"/>
<path d="M20.9497 9.27923C21.4547 9.27923 21.8651 9.68169 21.8651 10.1709L21.8651 25.2591C21.8651 25.7562 21.4547 26.1508 20.9497 26.1508H10.2176C9.71253 26.1508 9.30218 25.7483 9.30218 25.2591L9.30218 10.1709C9.30218 9.6738 9.71253 9.27923 10.2176 9.27923H20.9497ZM20.9497 9.09774H10.2176C9.60994 9.09774 9.11279 9.5791 9.11279 10.1788L9.11279 25.267C9.11279 25.8588 9.60994 26.3481 10.2176 26.3481H20.9497C21.5573 26.3481 22.0545 25.8667 22.0545 25.267L22.0545 10.1709C22.0545 9.5791 21.5573 9.08984 20.9497 9.08984V9.09774Z" fill="white"/>
<path d="M16.6153 24.7448L17.1986 23.2707C17.1987 23.2707 17.1987 23.2706 17.1987 23.2705C17.2856 23.0535 17.4159 22.8577 17.5831 22.6903L24.3684 16.0471C24.3685 16.047 24.3686 16.0469 24.3687 16.0468C24.5562 15.8657 24.8568 15.8682 25.034 16.0453L25.0346 16.046L25.7054 16.7088L25.7054 16.7088L25.7065 16.7099C25.8902 16.8877 25.8902 17.1767 25.7065 17.3545L25.7059 17.3551L18.9194 23.9996L18.9194 23.9996L18.9182 24.0007C18.7565 24.1624 18.5581 24.2848 18.334 24.3729L18.3316 24.3691L16.8252 24.9448C16.8251 24.9449 16.8249 24.9449 16.8248 24.945C16.6886 24.9956 16.5697 24.8637 16.6151 24.7453C16.6152 24.7451 16.6152 24.745 16.6153 24.7448Z" fill="#EA600E" stroke="white" stroke-width="0.3"/>
<path d="M19.2768 14.5345H11.8748C11.6144 14.5345 11.4092 14.3294 11.4092 14.0768C11.4092 13.8243 11.6222 13.6191 11.8748 13.6191H19.2768C19.5372 13.6191 19.7424 13.8243 19.7424 14.0768C19.7424 14.3294 19.5293 14.5345 19.2768 14.5345Z" fill="#EA600E"/>
<path d="M19.2768 17.3919H11.8748C11.6144 17.3919 11.4092 17.1868 11.4092 16.9343C11.4092 16.6817 11.6222 16.4766 11.8748 16.4766H19.2768C19.5372 16.4766 19.7424 16.6817 19.7424 16.9343C19.7424 17.1868 19.5293 17.3919 19.2768 17.3919Z" fill="#EA600E"/>
<path d="M15.7573 20.2474H11.8748C11.6144 20.2474 11.4092 20.0422 11.4092 19.7897C11.4092 19.5372 11.6222 19.332 11.8748 19.332H15.7573C16.0177 19.332 16.2229 19.5372 16.2229 19.7897C16.2229 20.0422 16.0098 20.2474 15.7573 20.2474Z" fill="#EA600E"/>
</g>
<defs>
<clipPath id="clip0_809_998">
<rect width="18" height="22.8058" fill="white" transform="translate(8 4)"/>
</clipPath>
</defs>
</svg>
