<svg width="64" height="64" viewBox="0 0 64 64" fill="none" xmlns="http://www.w3.org/2000/svg">
<path d="M43.6073 2.63177C43.569 2.63177 43.5383 2.61133 43.5 2.61133H5.16664C4.48886 2.61133 3.83885 2.88057 3.35959 3.35983C2.88033 3.83909 2.61108 4.48911 2.61108 5.16688V43.628L43.6073 2.63177Z" fill="#E6E5E5"/>
<path d="M29.4444 48.6113H5.16664C4.48886 48.6113 3.83885 48.3421 3.35959 47.8628C2.88033 47.3836 2.61108 46.7336 2.61108 46.0558V5.16688C2.61108 4.48911 2.88033 3.83909 3.35959 3.35983C3.83885 2.88057 4.48886 2.61133 5.16664 2.61133H43.5C44.1777 2.61133 44.8278 2.88057 45.307 3.35983C45.7863 3.83909 46.0555 4.48911 46.0555 5.16688V30.7224" stroke="#4D4C4C" stroke-linecap="round" stroke-linejoin="round"/>
<path d="M31.0667 50.9366L47.1155 34.8877L54.7822 42.5569L38.7333 58.6058L31.0667 50.9366Z" fill="#E6E5E5"/>
<path d="M31.0667 50.9365L38.7333 58.6032L28 61.6699L31.0667 50.9365Z" fill="#E6E5E5"/>
<path d="M57.0821 40.2545L54.7821 42.5545L47.1155 34.8878L49.4155 32.5878C49.9189 32.0844 50.5165 31.6851 51.1742 31.4127C51.8319 31.1402 52.5369 31 53.2488 31C53.9607 31 54.6657 31.1402 55.3234 31.4127C55.9811 31.6851 56.5787 32.0844 57.0821 32.5878C57.5855 33.0912 57.9849 33.6888 58.2573 34.3466C58.5297 35.0043 58.67 35.7092 58.67 36.4212C58.67 37.1331 58.5297 37.838 58.2573 38.4957C57.9849 39.1535 57.5855 39.7511 57.0821 40.2545Z" fill="#E6E5E5"/>
<path d="M16.6666 12.8335H34.5555" stroke="#4D4C4C" stroke-linecap="round" stroke-linejoin="round"/>
<path d="M11.5555 20.5H34.5555" stroke="#4D4C4C" stroke-linecap="round" stroke-linejoin="round"/>
<path d="M11.5555 28.1665H34.5555" stroke="#4D4C4C" stroke-linecap="round" stroke-linejoin="round"/>
<path d="M11.5555 35.8335H28.1667" stroke="#4D4C4C" stroke-linecap="round" stroke-linejoin="round"/>
<path d="M31.0667 50.9366L47.1155 34.8877L54.7822 42.5569L38.7333 58.6058L31.0667 50.9366Z" stroke="#4D4C4C" stroke-linecap="round" stroke-linejoin="round"/>
<path d="M31.0667 50.9365L38.7333 58.6032L28 61.6699L31.0667 50.9365Z" stroke="#4D4C4C" stroke-linecap="round" stroke-linejoin="round"/>
<path d="M57.0821 40.2545L54.7821 42.5545L47.1155 34.8878L49.4155 32.5878C49.9189 32.0844 50.5165 31.6851 51.1742 31.4127C51.8319 31.1402 52.5369 31 53.2488 31C53.9607 31 54.6657 31.1402 55.3234 31.4127C55.9811 31.6851 56.5787 32.0844 57.0821 32.5878C57.5855 33.0912 57.9849 33.6888 58.2573 34.3466C58.5297 35.0043 58.67 35.7092 58.67 36.4212C58.67 37.1331 58.5297 37.838 58.2573 38.4957C57.9849 39.1535 57.5855 39.7511 57.0821 40.2545Z" stroke="#4D4C4C" stroke-linecap="round" stroke-linejoin="round"/>
</svg>
