<svg width="281" height="265" viewBox="0 0 281 265" fill="none" xmlns="http://www.w3.org/2000/svg">
<path d="M259.327 145.096L248.253 203.334L241.038 241.265C240.814 242.437 240.339 243.537 239.657 244.539C237.439 247.812 233.032 250.008 228.121 250.008H56.7393C51.8257 250.008 47.1946 247.812 44.6357 244.539C43.853 243.537 43.2587 242.437 42.9156 241.265L32.6106 206.173L30.2177 198.039L14.6672 145.098C14.6111 144.916 14.5662 144.733 14.5303 144.551H14.4698L11.2583 133.267C9.09193 125.645 14.0998 118.892 22.0275 118.892H115.391L128.585 136.135H250.022C255.916 136.135 260.244 140.321 259.327 145.1V145.096Z" fill="#C84E06"/>
<path d="M243.911 67.3821H165.236C163.045 67.3821 161.011 68.5181 159.865 70.3823L151.554 83.8932H49.8159C45.2386 83.8932 41.5293 87.5992 41.5293 92.1723V237.364C43.7293 241.872 48.3559 244.917 53.6419 244.917H238.1C243.388 244.917 248.013 241.875 250.213 237.364V73.6805C250.213 70.2008 247.389 67.3821 243.909 67.3821H243.911Z" fill="#E86010"/>
<path d="M152.98 18.9332L173.772 128.723L82.9176 145.9L58.605 17.5216L130.857 3.86279L134.375 22.4487L152.98 18.9332Z" fill="#E1E1E1"/>
<path d="M152.98 18.9332L134.375 22.4487L130.856 3.86279L152.98 18.9332Z" fill="#E86010"/>
<path d="M142.918 35.6199L105.276 42.7327L105.849 45.7576L143.491 38.6448L142.918 35.6199Z" fill="#F3F3F3"/>
<path d="M144.389 43.4023L106.748 50.5151L107.32 53.5401L144.962 46.4273L144.389 43.4023Z" fill="#F3F3F3"/>
<path d="M145.864 51.1802L108.223 58.293L108.795 61.3179L146.437 54.2051L145.864 51.1802Z" fill="#F3F3F3"/>
<path d="M147.334 58.9641L82.0039 71.3088L82.5765 74.3338L147.906 61.989L147.334 58.9641Z" fill="#F3F3F3"/>
<path d="M148.807 66.7443L83.4775 79.0891L84.0502 82.1141L149.38 69.7693L148.807 66.7443Z" fill="#F3F3F3"/>
<path d="M150.28 74.5246L84.9502 86.8694L85.5228 89.8944L150.853 77.5496L150.28 74.5246Z" fill="#F3F3F3"/>
<path d="M151.756 82.3068L86.4258 94.6516L86.9984 97.6766L152.328 85.3318L151.756 82.3068Z" fill="#F3F3F3"/>
<path d="M153.229 90.0871L87.8989 102.432L88.4716 105.457L153.801 93.1121L153.229 90.0871Z" fill="#F3F3F3"/>
<path d="M154.701 97.8654L89.3716 110.21L89.9442 113.235L155.274 100.89L154.701 97.8654Z" fill="#F3F3F3"/>
<path d="M141.461 108.428L105.552 115.213L106.124 118.238L142.034 111.453L141.461 108.428Z" fill="#F3F3F3"/>
<path d="M99.65 43.797L77.5854 47.9663L81.1042 66.5543L103.169 62.385L99.65 43.797Z" fill="#F3F3F3"/>
<path d="M0 77.9084L70.2982 56.3582L75.8533 74.4422L93.9537 68.8922L126.764 175.716L38.3628 202.818L0 77.9084Z" fill="#E1E1E1"/>
<path d="M93.9539 68.8922L75.8534 74.4422L70.2983 56.3582L93.9539 68.8922Z" fill="#E86010"/>
<path d="M85.8006 86.5768L49.1772 97.8054L50.0812 100.749L86.7046 89.5199L85.8006 86.5768Z" fill="#F3F3F3"/>
<path d="M88.1248 94.1459L51.5015 105.375L52.4055 108.318L89.0288 97.089L88.1248 94.1459Z" fill="#F3F3F3"/>
<path d="M90.4519 101.717L53.8286 112.946L54.7326 115.889L91.3559 104.66L90.4519 101.717Z" fill="#F3F3F3"/>
<path d="M92.7738 109.289L29.2114 128.777L30.1154 131.72L93.6778 112.232L92.7738 109.289Z" fill="#F3F3F3"/>
<path d="M95.1004 116.856L31.5381 136.344L32.4421 139.287L96.0044 119.799L95.1004 116.856Z" fill="#F3F3F3"/>
<path d="M97.4252 124.427L33.8628 143.915L34.7668 146.858L98.3292 127.37L97.4252 124.427Z" fill="#F3F3F3"/>
<path d="M99.7518 131.996L36.1895 151.484L37.0935 154.427L100.656 134.939L99.7518 131.996Z" fill="#F3F3F3"/>
<path d="M102.075 139.568L38.5122 159.056L39.4162 161.999L102.979 142.511L102.075 139.568Z" fill="#F3F3F3"/>
<path d="M104.402 147.139L40.8394 166.627L41.7434 169.57L105.306 150.082L104.402 147.139Z" fill="#F3F3F3"/>
<path d="M92.4128 159.094L57.4746 169.806L58.3786 172.75L93.3168 162.038L92.4128 159.094Z" fill="#F3F3F3"/>
<path d="M43.7059 99.483L22.2383 106.065L27.7932 124.15L49.2608 117.568L43.7059 99.483Z" fill="#F3F3F3"/>
<path d="M240.22 36.6767L218.273 146.245L127.605 128.116L153.265 0L225.371 14.4161L221.655 32.9662L240.22 36.6767Z" fill="#E1E1E1"/>
<path d="M240.219 36.6765L221.655 32.9661L225.371 14.416L240.219 36.6765Z" fill="#E86010"/>
<path d="M224.627 48.3795L187.063 40.8667L186.459 43.8854L224.022 51.3982L224.627 48.3795Z" fill="#F3F3F3"/>
<path d="M223.074 56.1422L185.51 48.6294L184.905 51.6481L222.469 59.1609L223.074 56.1422Z" fill="#F3F3F3"/>
<path d="M221.516 63.9068L183.952 56.394L183.347 59.4128L220.911 66.9256L221.516 63.9068Z" fill="#F3F3F3"/>
<path d="M219.959 71.6713L154.765 58.6323L154.16 61.651L219.354 74.69L219.959 71.6713Z" fill="#F3F3F3"/>
<path d="M218.405 79.4362L153.211 66.3972L152.606 69.4159L217.801 82.4549L218.405 79.4362Z" fill="#F3F3F3"/>
<path d="M216.847 87.2008L151.653 74.1619L151.048 77.1806L216.242 90.2195L216.847 87.2008Z" fill="#F3F3F3"/>
<path d="M215.294 94.9635L150.1 81.9246L149.495 84.9433L214.689 97.9822L215.294 94.9635Z" fill="#F3F3F3"/>
<path d="M213.736 102.73L148.541 89.6914L147.936 92.7101L213.131 105.749L213.736 102.73Z" fill="#F3F3F3"/>
<path d="M212.182 110.493L146.988 97.4541L146.383 100.473L211.577 113.512L212.182 110.493Z" fill="#F3F3F3"/>
<path d="M195.946 115.322L160.111 108.155L159.506 111.174L195.341 118.341L195.946 115.322Z" fill="#F3F3F3"/>
<path d="M181.451 39.7444L159.433 35.3406L155.716 53.8901L177.735 58.2939L181.451 39.7444Z" fill="#F3F3F3"/>
<g style="mix-blend-mode:multiply" opacity="0.6">
<path d="M147.259 25.2972L127.561 123.61L129.388 123.975L149.086 25.6627L147.259 25.2972Z" fill="#E86010"/>
</g>
<g style="mix-blend-mode:multiply" opacity="0.6">
<path d="M98.1386 79.3375L96.3569 79.8838L110.769 126.805L112.551 126.259L98.1386 79.3375Z" fill="#E86010"/>
</g>
<g style="mix-blend-mode:multiply" opacity="0.6">
<path d="M176.775 123.725L174.974 123.241L194.864 49.8538L196.663 50.3377L176.775 123.725Z" fill="#E86010"/>
</g>
<path d="M281 92.4367L251.955 200.343L162.66 176.352L196.62 50.1787L267.632 69.2576L262.716 87.5253L281 92.4367Z" fill="#E1E1E1"/>
<path d="M281 92.4367L262.716 87.5253L267.632 69.2576L281 92.4367Z" fill="#E86010"/>
<path d="M264.688 103.081L227.693 93.1423L226.893 96.1153L263.888 106.054L264.688 103.081Z" fill="#F3F3F3"/>
<path d="M262.628 110.727L225.633 100.789L224.833 103.762L261.828 113.7L262.628 110.727Z" fill="#F3F3F3"/>
<path d="M260.57 118.375L223.575 108.437L222.775 111.41L259.77 121.348L260.57 118.375Z" fill="#F3F3F3"/>
<path d="M258.51 126.021L194.303 108.772L193.503 111.745L257.71 128.994L258.51 126.021Z" fill="#F3F3F3"/>
<path d="M256.454 133.668L192.247 116.419L191.446 119.392L255.654 136.641L256.454 133.668Z" fill="#F3F3F3"/>
<path d="M254.396 141.317L190.188 124.068L189.388 127.041L253.596 144.29L254.396 141.317Z" fill="#F3F3F3"/>
<path d="M252.338 148.963L188.13 131.714L187.33 134.687L251.538 151.936L252.338 148.963Z" fill="#F3F3F3"/>
<path d="M250.277 156.609L186.07 139.36L185.27 142.333L249.477 159.582L250.277 156.609Z" fill="#F3F3F3"/>
<path d="M248.221 164.258L184.014 147.009L183.214 149.982L247.421 167.231L248.221 164.258Z" fill="#F3F3F3"/>
<path d="M231.705 168.02L196.412 158.539L195.612 161.512L230.905 170.993L231.705 168.02Z" fill="#F3F3F3"/>
<mask id="mask0_1_88" style="mask-type:luminance" maskUnits="userSpaceOnUse" x="202" y="0" width="89" height="242">
<path d="M290.007 6.7293L264.893 0L202 234.72L227.114 241.449L290.007 6.7293Z" fill="white"/>
</mask>
<g mask="url(#mask0_1_88)">
<path d="M268.855 10.8596C268.989 10.5451 272.953 2.15966 273.708 2.36211C274.464 2.56455 274.058 12.197 274.058 12.197L268.855 10.8619V10.8596Z" fill="#87867B"/>
<path d="M237.15 169.719L235.648 175.326C235.648 175.326 238.977 182.529 237.736 191.31C236.494 200.092 226.029 214.544 226.029 214.544L224.289 221.035L227.328 221.849C227.328 221.849 239.062 201.081 240.038 192.527C241.015 183.973 237.516 175.523 237.516 175.523L238.973 169.704L237.148 169.716L237.15 169.719Z" fill="#A8A79B"/>
<path d="M272.195 35.6818L257.615 31.7749L206.271 223.394L220.851 227.3L272.195 35.6818Z" fill="#FEC84D"/>
<path d="M272.198 35.6824L268.26 34.6272L216.916 226.246L220.854 227.301L272.198 35.6824Z" fill="#E5B148"/>
<path d="M261.553 32.8301L257.615 31.7749L206.271 223.394L210.209 224.449L261.553 32.8301Z" fill="#E5B148"/>
<path d="M257.615 31.7748L265.747 18.704L272.658 20.5559L272.198 35.6823L257.615 31.7748Z" fill="#A8A79B"/>
<path opacity="0.67" d="M265.191 22.9063C264.383 24.4716 263.369 25.9324 262.18 27.2353C261.718 27.7409 261.209 28.2658 261.086 28.9387C260.963 29.6116 261.464 30.437 262.148 30.3586C262.721 30.2926 263.037 29.691 263.304 29.1852C264.567 26.8086 266.832 24.9922 267.697 22.4425C267.815 22.0988 267.895 21.6883 267.677 21.3955C266.646 20.0138 265.536 22.2336 265.189 22.9057L265.191 22.9063Z" fill="#E1E1E1"/>
<path d="M274.281 12.3135L272.071 11.7211L270.831 11.3891L268.623 10.7973L267.098 13.2909L266.112 18.9674L268.621 19.6395L269.86 19.9715L272.368 20.6436L274.353 15.235L274.281 12.3135Z" fill="#A8A79B"/>
<path d="M271.757 11.6369L271.361 11.531L269.193 19.6249L269.588 19.7308L271.757 11.6369Z" fill="#595853"/>
<path d="M272.819 20.1031L265.871 18.2412L265.747 18.704L272.695 20.5659L272.819 20.1031Z" fill="#595853"/>
<path d="M227.022 210.839L209.646 206.183L206.529 217.818L223.904 222.474L227.022 210.839Z" fill="#A8A79B"/>
<path d="M218.645 226.709L209.098 224.151L205.98 235.787L215.528 238.345L218.645 226.709Z" fill="#A8A79B"/>
<path opacity="0.31" d="M209.837 228.199C209.453 229.483 209.131 230.784 208.867 232.098C208.76 232.637 208.661 233.2 208.804 233.735C208.948 234.267 209.399 234.76 209.957 234.772C210.425 234.781 210.846 234.447 211.072 234.039C211.298 233.633 211.368 233.16 211.432 232.699C211.606 231.462 212.576 228.541 211.953 227.387C211.099 225.803 210.199 226.988 209.836 228.202L209.837 228.199Z" fill="#E1E1E1"/>
<path opacity="0.31" d="M210.417 211.259L209.527 214.579C209.391 215.086 209.257 215.635 209.452 216.126C209.677 216.697 210.277 217.016 210.831 217.29C211.789 217.762 213.058 218.196 213.819 217.457C214.243 217.045 214.329 216.409 214.38 215.82C214.512 214.247 215.206 210.523 214.294 209.092C212.772 206.7 210.833 209.704 210.416 211.261L210.417 211.259Z" fill="#E1E1E1"/>
</g>
<path d="M222.163 91.6564L200.478 85.8308L195.561 104.099L217.246 109.925L222.163 91.6564Z" fill="#F3F3F3"/>
<path d="M266.423 132.795L258.979 194.777L253.637 239.246C253.465 240.676 253.018 242.025 252.343 243.253C250.143 247.286 245.517 250.006 240.231 250.006H55.7725C50.4843 250.006 45.8599 247.283 43.6576 243.253C42.9871 242.025 42.5341 240.678 42.3636 239.246L37.4096 197.985L36.3085 188.839L29.5783 132.795C29.5536 132.611 29.5401 132.427 29.5357 132.243H29.4773L28.2304 121.038C27.4051 113.604 33.2271 107.106 40.713 107.106H128.881L140.374 123.864H256.93C262.586 123.864 267.006 128.015 266.425 132.795H266.423Z" fill="url(#paint0_linear_1_88)"/>
<g style="mix-blend-mode:multiply">
<path d="M258.977 194.777L253.635 239.246C253.463 240.676 253.016 242.025 252.341 243.253C250.141 247.286 245.515 250.006 240.229 250.006H208.529C203.972 243.716 201.283 235.986 201.283 227.629C201.283 206.542 218.392 189.451 239.495 189.451C246.609 189.451 253.274 191.394 258.977 194.777Z" fill="#F7F7F7" fill-opacity="0.44"/>
</g>
<path d="M264.02 255.795C276.304 243.522 276.304 223.624 264.02 211.351C251.736 199.078 231.819 199.078 219.535 211.351C207.251 223.624 207.251 243.522 219.535 255.795C231.819 268.068 251.736 268.068 264.02 255.795Z" fill="url(#paint1_radial_1_88)"/>
<g opacity="0.91">
<path d="M223 226.789L237.464 249.112C238.375 250.519 240.492 250.411 241.253 248.918L261.1 210L239.944 233.282C239.117 234.19 237.771 234.431 236.676 233.864L223 226.789Z" fill="url(#paint2_linear_1_88)"/>
</g>
<defs>
<linearGradient id="paint0_linear_1_88" x1="149.52" y1="249.909" x2="147.306" y2="125.23" gradientUnits="userSpaceOnUse">
<stop stop-color="#E86010"/>
<stop offset="1" stop-color="#E86010"/>
</linearGradient>
<radialGradient id="paint1_radial_1_88" cx="0" cy="0" r="1" gradientUnits="userSpaceOnUse" gradientTransform="translate(240.832 235.575) rotate(-64.7789) scale(37.723 37.7448)">
<stop stop-color="white"/>
<stop offset="1" stop-color="#F2F2F2"/>
</radialGradient>
<linearGradient id="paint2_linear_1_88" x1="223" y1="230.054" x2="261.1" y2="230.054" gradientUnits="userSpaceOnUse">
<stop stop-color="white"/>
<stop offset="0.0001" stop-color="#AFD3BB"/>
<stop offset="0.223958" stop-color="#328E50" stop-opacity="0.71"/>
<stop offset="0.53125" stop-color="#007326"/>
<stop offset="0.739583" stop-color="#05793C"/>
<stop offset="0.91" stop-color="#067A40"/>
<stop offset="1" stop-color="#007739"/>
</linearGradient>
</defs>
</svg>
