<svg width="163" height="159" viewBox="0 0 163 159" fill="none" xmlns="http://www.w3.org/2000/svg">
<path d="M87.5 159C129.197 159 163 124.974 163 83C163 41.0264 129.197 7 87.5 7C45.8025 7 12 41.0264 12 83C12 124.974 45.8025 159 87.5 159Z" fill="#C7D5BA"/>
<path d="M79 155.5C121.25 155.5 155.5 121.25 155.5 79C155.5 36.7502 121.25 2.5 79 2.5C36.7502 2.5 2.5 36.7502 2.5 79C2.5 121.25 36.7502 155.5 79 155.5Z" stroke="#4D4D4D" stroke-width="5"/>
<path d="M57 98C59.7842 101.92 67.4561 109.806 75.8705 109.994C86.3885 110.229 96.9065 103.644 100 100.822" stroke="#4D4D4D" stroke-width="3"/>
<path d="M52 91C55.3137 91 58 88.3137 58 85C58 81.6863 55.3137 79 52 79C48.6863 79 46 81.6863 46 85C46 88.3137 48.6863 91 52 91Z" fill="#4D4D4D"/>
<path d="M106 93C109.314 93 112 90.3137 112 87C112 83.6863 109.314 81 106 81C102.686 81 100 83.6863 100 87C100 90.3137 102.686 93 106 93Z" fill="#4D4D4D"/>
</svg>
