<svg width="441" height="593" viewBox="0 0 441 593" fill="none" xmlns="http://www.w3.org/2000/svg">
<g clip-path="url(#clip0_852_21971)">
<path d="M129.37 301.811L125.838 305.258L125.805 305.209L129.37 301.811Z" fill="#ABBAC2"/>
<path d="M117.921 311.496C115.128 313.384 112.221 315.091 109.182 316.569L109.051 316.29C112.09 314.845 115.013 313.203 117.822 311.348L117.921 311.496Z" fill="#ABBAC2"/>
<path d="M99.8032 320.328C96.5837 321.346 93.2986 322.134 89.9641 322.659L89.8984 322.199C93.2164 321.674 96.4852 320.919 99.6882 319.917L99.8196 320.311L99.8032 320.328Z" fill="#ABBAC2"/>
<path d="M79.8784 323.513C76.5111 323.546 73.1274 323.299 69.793 322.791L69.8751 322.249C73.1767 322.758 76.5275 323.02 79.8784 323.004V323.513Z" fill="#ABBAC2"/>
<path d="M59.9541 320.443C56.751 319.392 53.6301 318.062 50.6406 316.454L50.9363 315.896C53.8765 317.488 56.9481 318.818 60.1347 319.885L59.9541 320.443Z" fill="#ABBAC2"/>
<path d="M42.1978 310.856C39.5697 308.722 37.1387 306.358 34.9048 303.83L35.4468 303.354C37.6479 305.865 40.0461 308.229 42.6249 310.331L42.1978 310.856Z" fill="#ABBAC2"/>
<path d="M28.7779 295.77C26.9218 292.946 25.2464 290.007 23.7681 286.97L24.4908 286.626C25.9363 289.63 27.5789 292.552 29.4021 295.359L28.7615 295.77H28.7779Z" fill="#ABBAC2"/>
<path d="M19.9571 277.58C18.9059 274.363 18.0846 271.08 17.5918 267.731L18.3474 267.616C18.8402 270.915 19.6779 274.166 20.7291 277.334L19.9735 277.58H19.9571Z" fill="#ABBAC2"/>
<path d="M17.5264 257.569C17.8385 255.895 18.3641 254.22 19.2839 252.743C20.1873 251.233 21.6328 250.1 23.1604 249.345L23.4725 249.936C22.0106 250.674 20.713 251.725 19.8753 253.104C19.0211 254.483 18.5283 256.075 18.2327 257.701L17.5264 257.569Z" fill="#ABBAC2"/>
<path d="M33.1963 248.081C34.0176 248.376 34.8389 248.934 35.2988 249.755C35.7587 250.559 35.9065 251.462 35.9065 252.332C35.8901 254.089 35.2988 255.796 34.3132 257.224L33.8369 256.88C34.7403 255.55 35.2988 253.925 35.2988 252.316C35.2988 251.512 35.1509 250.707 34.7567 250.051C34.3954 249.378 33.7219 248.934 32.9663 248.655L33.1798 248.064L33.1963 248.081Z" fill="#ABBAC2"/>
<path d="M25.1148 261.131C21.7147 261.213 18.3145 260.606 15.1279 259.473L15.2922 258.997C18.4295 260.097 21.7804 260.688 25.0984 260.573V261.115L25.1148 261.131Z" fill="#ABBAC2"/>
<path d="M6.6029 254.04C4.31971 251.512 2.74283 248.425 1.70801 245.208L2.10223 245.076C3.13705 248.245 4.6975 251.265 6.93141 253.728L6.58647 254.04H6.6029Z" fill="#ABBAC2"/>
<path d="M0.0491681 235.243C-0.0986641 231.878 0.114871 228.496 0.59122 225.164H0.771903C0.344833 228.512 0.180575 231.878 0.361258 235.227H0.0491681V235.243Z" fill="#ABBAC2"/>
<path d="M2.70996 215.331L4.23756 210.635L2.77566 215.347L2.70996 215.331Z" fill="#ABBAC2"/>
<path d="M344.482 5.92619L349.065 4.104L349.098 4.16967L344.482 5.92619Z" fill="#ABBAC2"/>
<path d="M358.772 1.36254C362.074 0.673061 365.425 0.21341 368.776 0V0.311907C365.441 0.492484 362.107 0.902887 358.805 1.54312L358.772 1.36254Z" fill="#ABBAC2"/>
<path d="M378.894 0.0820312C382.261 0.361106 385.595 0.902838 388.881 1.6744L388.782 2.11763C385.53 1.32966 382.212 0.787925 378.861 0.492435L378.894 0.0820312Z" fill="#ABBAC2"/>
<path d="M398.523 4.74414C401.66 6.00818 404.682 7.51847 407.573 9.25858L407.294 9.71823C404.436 7.97812 401.43 6.46783 398.326 5.20379L398.506 4.74414H398.523Z" fill="#ABBAC2"/>
<path d="M415.786 15.1685C418.349 17.3682 420.73 19.7814 422.866 22.408L422.373 22.802C420.271 20.2082 417.922 17.795 415.392 15.6117L415.77 15.1685H415.786Z" fill="#ABBAC2"/>
<path d="M428.533 30.7967C430.159 33.768 431.489 36.8871 432.59 40.0718L431.916 40.3016C430.849 37.1333 429.535 34.0471 427.941 31.1086L428.533 30.7803V30.7967Z" fill="#ABBAC2"/>
<path d="M435.185 49.8557C435.826 53.1718 436.236 56.5207 436.45 59.9024L435.645 59.9516C435.448 56.6192 435.054 53.2867 434.43 50.0035L435.169 49.8557H435.185Z" fill="#ABBAC2"/>
<path d="M436.401 70.0312C436.138 73.3965 435.661 76.7618 434.824 80.045L434.084 79.8644C434.889 76.6305 435.349 73.3144 435.596 69.9819L436.401 70.0476V70.0312Z" fill="#ABBAC2"/>
<path d="M431.013 89.4679C430.076 90.8961 428.96 92.2422 427.547 93.26C426.134 94.3107 424.377 94.8031 422.668 94.9345L422.619 94.2614C424.262 94.1301 425.855 93.6704 427.153 92.7019C428.467 91.7497 429.534 90.4693 430.421 89.0903L431.029 89.4843L431.013 89.4679Z" fill="#ABBAC2"/>
<path d="M412.895 92.2586C412.255 91.6677 411.696 90.8468 411.598 89.9111C411.466 88.9918 411.68 88.1053 412.025 87.2845C412.715 85.6593 413.914 84.3132 415.376 83.3611L415.688 83.8536C414.341 84.74 413.207 86.0205 412.6 87.5144C412.288 88.2531 412.123 89.0575 412.222 89.8126C412.304 90.5678 412.764 91.2408 413.339 91.7826L412.912 92.2422L412.895 92.2586Z" fill="#ABBAC2"/>
<path d="M425.362 83.2791C428.549 84.4938 431.44 86.3653 433.969 88.6143L433.641 88.9919C431.144 86.7757 428.286 84.9699 425.182 83.788L425.379 83.2791H425.362Z" fill="#ABBAC2"/>
<path d="M439.751 96.888C440.901 100.106 441.18 103.553 440.901 106.918L440.49 106.885C440.737 103.569 440.458 100.171 439.324 97.0357L439.751 96.8716V96.888Z" fill="#ABBAC2"/>
<path d="M438.651 116.768C437.501 119.936 436.023 122.973 434.315 125.879L434.15 125.78C435.809 122.875 437.255 119.821 438.355 116.653L438.651 116.752V116.768Z" fill="#ABBAC2"/>
<path d="M428.582 134.153L425.379 137.912L428.533 134.12L428.582 134.153Z" fill="#ABBAC2"/>
<path d="M383.558 212.446C397.613 198.4 397.613 175.626 383.558 161.58C369.504 147.534 346.717 147.534 332.662 161.58C318.608 175.626 318.608 198.4 332.662 212.446C346.717 226.492 369.504 226.492 383.558 212.446Z" fill="white"/>
<path d="M376.414 151.127C356.571 141.031 332.31 148.911 322.192 168.725C312.09 188.556 319.975 212.802 339.801 222.915C359.643 233.011 383.904 225.131 394.022 205.317C404.14 185.502 396.24 161.239 376.414 151.127ZM341.772 219.057C324.065 210.044 317.018 188.375 326.052 170.679C335.07 152.982 356.752 145.939 374.459 154.968C392.166 163.981 399.213 185.65 390.178 203.347C381.161 221.043 359.479 228.086 341.772 219.057Z" fill="white"/>
<g style="mix-blend-mode:multiply" opacity="0.23">
<path d="M356.44 187.374L357.343 189.59L382.885 177.902L356.44 187.374Z" fill="#94C8E3"/>
</g>
<path d="M356.358 186.783L357.245 188.982L382.787 177.294L356.358 186.783Z" fill="#27211D"/>
<path d="M359.725 189.196C358.97 190.657 357.179 191.248 355.717 190.493C354.255 189.738 353.664 187.948 354.42 186.487C355.175 185.026 356.966 184.435 358.428 185.19C359.889 185.946 360.481 187.735 359.725 189.196Z" fill="#27211D"/>
<g style="mix-blend-mode:multiply" opacity="0.23">
<path d="M355.471 188.047C355.323 188.835 355.898 189.557 356.571 189.688C357.475 189.869 358.427 188.9 358.279 188.014C358.181 187.439 357.622 186.947 356.982 186.898C356.276 186.848 355.602 187.341 355.487 188.063L355.471 188.047Z" fill="#94C8E3"/>
</g>
<path d="M373.605 156.643C374.147 157.234 374.36 157.677 374.492 158.055C374.607 158.432 374.574 158.744 374.459 159.007C374.327 159.269 374.097 159.466 373.72 159.598C373.342 159.729 372.865 159.795 372.044 159.713C371.502 159.105 371.272 158.678 371.157 158.301C371.042 157.923 371.075 157.611 371.206 157.365C371.338 157.119 371.584 156.905 371.946 156.774C372.323 156.643 372.8 156.577 373.605 156.659V156.643Z" fill="#27211D"/>
<path d="M356.341 152.966C357.113 153.212 357.524 153.474 357.82 153.754C358.099 154.033 358.247 154.312 358.263 154.591C358.28 154.87 358.165 155.165 357.918 155.477C357.655 155.773 357.278 156.085 356.522 156.413C355.75 156.167 355.339 155.904 355.044 155.625C354.765 155.346 354.617 155.067 354.617 154.788C354.617 154.509 354.715 154.213 354.962 153.901C355.224 153.606 355.602 153.294 356.341 152.966Z" fill="#27211D"/>
<path d="M339.538 158.416C340.326 158.252 340.819 158.268 341.213 158.35C341.591 158.448 341.854 158.613 342.018 158.859C342.182 159.105 342.231 159.401 342.166 159.795C342.083 160.189 341.919 160.648 341.426 161.288C340.638 161.469 340.145 161.436 339.751 161.354C339.373 161.256 339.11 161.091 338.963 160.845C338.815 160.599 338.749 160.304 338.831 159.91C338.913 159.516 339.078 159.056 339.57 158.416H339.538Z" fill="#27211D"/>
<path d="M327.727 171.532C328.319 170.99 328.762 170.777 329.14 170.646C329.518 170.531 329.83 170.564 330.093 170.679C330.355 170.81 330.553 171.04 330.684 171.417C330.815 171.795 330.881 172.271 330.799 173.092C330.191 173.633 329.764 173.863 329.386 173.978C329.009 174.093 328.696 174.06 328.45 173.929C328.204 173.798 327.99 173.551 327.859 173.19C327.727 172.813 327.662 172.337 327.744 171.532H327.727Z" fill="#27211D"/>
<path d="M324.048 188.802C324.295 188.03 324.558 187.62 324.837 187.324C325.116 187.045 325.395 186.898 325.675 186.881C325.954 186.865 326.249 186.98 326.561 187.226C326.857 187.489 327.169 187.866 327.498 188.621C327.251 189.393 326.989 189.803 326.709 190.099C326.43 190.378 326.151 190.526 325.872 190.526C325.592 190.526 325.297 190.427 324.985 190.181C324.689 189.918 324.377 189.541 324.048 188.802Z" fill="#27211D"/>
<path d="M329.518 205.579C329.354 204.791 329.37 204.299 329.452 203.905C329.551 203.527 329.715 203.265 329.961 203.1C330.208 202.936 330.503 202.887 330.898 202.953C331.292 203.035 331.752 203.199 332.392 203.691C332.573 204.479 332.54 204.972 332.458 205.366C332.359 205.743 332.195 206.006 331.949 206.154C331.702 206.302 331.407 206.367 331.013 206.285C330.618 206.203 330.158 206.039 329.518 205.546V205.579Z" fill="#27211D"/>
<path d="M342.626 217.382C342.083 216.791 341.87 216.348 341.739 215.971C341.624 215.593 341.656 215.281 341.771 215.018C341.903 214.756 342.133 214.559 342.511 214.427C342.888 214.296 343.365 214.23 344.186 214.313C344.728 214.92 344.958 215.347 345.073 215.724C345.188 216.102 345.155 216.414 345.024 216.66C344.892 216.906 344.646 217.12 344.285 217.251C343.907 217.382 343.43 217.448 342.626 217.366V217.382Z" fill="#27211D"/>
<path d="M359.906 221.06C359.134 220.813 358.723 220.551 358.427 220.272C358.148 219.993 358 219.714 357.984 219.434C357.968 219.155 358.083 218.86 358.329 218.548C358.592 218.253 358.97 217.941 359.725 217.612C360.497 217.859 360.908 218.121 361.203 218.4C361.483 218.679 361.63 218.958 361.63 219.238C361.63 219.517 361.532 219.812 361.286 220.124C361.023 220.419 360.645 220.731 359.906 221.06Z" fill="#27211D"/>
<path d="M376.693 215.61C375.904 215.774 375.412 215.757 375.017 215.675C374.64 215.577 374.377 215.413 374.213 215.166C374.048 214.92 373.999 214.625 374.065 214.231C374.147 213.837 374.311 213.377 374.804 212.737C375.592 212.556 376.085 212.589 376.479 212.671C376.857 212.77 377.12 212.934 377.268 213.18C377.416 213.426 377.481 213.722 377.399 214.116C377.317 214.51 377.153 214.969 376.66 215.61H376.693Z" fill="#27211D"/>
<path d="M388.519 202.493C387.928 203.035 387.485 203.248 387.107 203.38C386.729 203.494 386.417 203.462 386.154 203.347C385.891 203.215 385.694 202.986 385.563 202.608C385.431 202.23 385.366 201.754 385.448 200.934C386.056 200.392 386.483 200.162 386.86 200.047C387.238 199.932 387.55 199.965 387.797 200.096C388.043 200.228 388.257 200.474 388.388 200.835C388.519 201.213 388.585 201.689 388.503 202.493H388.519Z" fill="#27211D"/>
<path d="M392.182 185.223C391.936 185.995 391.673 186.405 391.394 186.701C391.115 186.98 390.835 187.127 390.556 187.144C390.277 187.16 389.981 187.045 389.669 186.799C389.374 186.536 389.061 186.159 388.733 185.404C388.979 184.632 389.242 184.222 389.521 183.926C389.801 183.647 390.08 183.5 390.359 183.5C390.638 183.5 390.934 183.598 391.246 183.844C391.542 184.107 391.854 184.484 392.182 185.223Z" fill="#27211D"/>
<path d="M386.729 168.446C386.893 169.234 386.877 169.726 386.795 170.12C386.696 170.498 386.532 170.761 386.285 170.925C386.039 171.089 385.743 171.138 385.349 171.073C384.955 170.99 384.495 170.826 383.854 170.334C383.674 169.546 383.707 169.053 383.789 168.659C383.887 168.282 384.052 168.019 384.298 167.871C384.544 167.724 384.84 167.658 385.234 167.74C385.628 167.822 386.088 167.986 386.729 168.479V168.446Z" fill="#27211D"/>
<g style="mix-blend-mode:multiply" opacity="0.23">
<path d="M373.605 156.626C391.016 165.491 398.112 186.602 389.751 204.135C389.899 203.872 390.03 203.609 390.178 203.347C399.196 185.65 392.166 163.997 374.459 154.968C356.752 145.956 335.086 152.982 326.052 170.679C325.921 170.941 325.789 171.22 325.658 171.483C334.938 154.427 356.193 147.762 373.605 156.626Z" fill="#94C8E3"/>
</g>
<path d="M355.684 187.604C355.536 188.392 356.111 189.114 356.785 189.245C357.688 189.426 358.641 188.457 358.493 187.571C358.394 186.996 357.836 186.504 357.195 186.455C356.489 186.405 355.815 186.898 355.7 187.62L355.684 187.604Z" fill="white"/>
<path d="M351.402 142.018L341.229 143.727L342.446 150.963L352.619 149.255L351.402 142.018Z" fill="white"/>
<path d="M335.448 146.711C334.051 146.35 334.199 133.365 344.088 131.362C351.808 129.802 358.723 140.9 357.064 142.87C355.536 144.675 344.991 149.141 335.448 146.711Z" fill="#EA600E"/>
<path d="M344.794 133.677C347.011 132.987 349.459 133.972 351.167 135.417C352.465 136.549 353.401 137.994 353.976 139.586C354.502 141.359 354.419 141.458 353.27 139.98C350.921 137.19 348.473 134.793 344.794 133.677Z" fill="white"/>
<path d="M401.551 168.22L396.354 159.314L390.012 163.011L395.209 171.916L401.551 168.22Z" fill="white"/>
<path d="M391.476 154.952C391.312 153.507 403.516 149.058 408.888 157.595C413.076 164.26 405.126 174.651 402.711 173.798C400.478 173.01 392.56 164.736 391.476 154.952Z" fill="#EA600E"/>
<path d="M406.982 159.072C408.411 160.894 408.345 163.537 407.606 165.639C406.998 167.248 405.98 168.626 404.699 169.743C403.22 170.859 403.105 170.826 404.075 169.217C405.865 166.033 407.228 162.897 406.982 159.072Z" fill="white"/>
<path d="M290.802 311.48C290.802 311.48 309.446 281.422 300.543 271.851C291.624 262.281 292.659 248.442 277.662 238.165C262.649 227.889 259.626 231.287 237.189 234.422C214.751 237.558 207.113 229.153 194.038 246.406C181.226 263.331 188.552 269.339 212.369 264.168C226.627 261.066 242.051 252.759 253.302 272.836C267.084 297.427 290.819 311.48 290.819 311.48H290.802Z" fill="#EA600E" fill-opacity="0.52"/>
<path d="M312.928 313.63C303.91 311.956 304.041 292.929 313.158 280.634C319.449 272.147 330.29 275.381 339.817 264.004C346.535 255.977 344.104 250.806 350.674 247.851C358.444 244.354 364.209 250.494 378.22 249.443C391.722 248.425 392.872 242.253 401.709 242.959C417.921 244.272 437.435 266.959 431.44 276.809C427.76 282.833 409.281 271.851 396.683 280.223C390.408 284.393 392.215 288.727 385.595 291.944C376.331 296.459 368.43 290.073 357.359 291.189C335.973 293.356 323.013 315.518 312.928 313.63Z" fill="#EA600E" fill-opacity="0.52"/>
<path d="M304.288 443.498C300.444 417.511 298.506 391.131 299.377 364.849C300.198 347.415 301.397 329.258 309.183 313.302C312.928 305.34 317.478 297.674 323.211 290.959C334.61 277.548 349.558 266.976 366.312 261.739C358.017 264.562 350.33 268.896 343.201 273.936C321.979 289.121 306.883 312.924 303.27 338.845C298.391 373.467 300.674 408.827 304.272 443.498H304.288Z" fill="#406352"/>
<path d="M301.052 419.646C297.997 394.512 294.531 357.757 292.034 332.148C290.687 317.554 289.291 302.96 287.418 288.448C285.727 277.777 284.889 266.335 279.156 256.929C277.185 253.859 274.114 251.626 270.713 250.28C272.438 250.904 274.114 251.692 275.625 252.759C285.365 260.327 286.499 276.891 288.667 288.267C290.802 302.795 292.182 317.406 293.66 331.983C296.338 361.188 298.884 390.392 301.052 419.629V419.646Z" fill="#406352"/>
<path d="M304.353 388.504C304.353 388.504 291.821 362.058 300.444 355.048C309.068 348.022 310.037 336.465 323.785 329.472C337.534 322.479 339.587 325.598 357.704 330.457C375.822 335.316 383.247 329.111 391.772 344.722C400.132 360.022 393.283 364.258 374.295 357.576C362.928 353.587 351.282 345.149 339.34 360.63C324.721 379.59 304.353 388.521 304.353 388.521V388.504Z" fill="#EA600E" fill-opacity="0.52"/>
<path d="M308.822 442.858C302.58 414.277 298.933 377.489 316.082 352.044C317.297 350.369 318.694 348.81 320.008 347.218C317.56 350.55 315.228 353.965 313.487 357.707C301.512 383.596 304.962 415.377 308.805 442.858H308.822Z" fill="#406352"/>
<path d="M326.331 301.039C332.967 294.292 340.474 287.085 350.05 285.066C354.978 284.426 359.741 285.854 364.472 286.806C371.207 288.284 378.894 289.482 384.15 284.262C387.32 281.372 391.558 277.186 395.123 274.855C401.282 270.85 409.232 269.898 416.246 271.818C420.156 272.491 428.04 276.71 426.545 269.192C428.5 276.842 420.09 273.066 416.098 272.491C406.67 270.111 397.094 273.575 390.408 280.486L385.185 285.394C379.764 291.14 370.895 289.958 364.127 288.284C359.462 287.266 354.781 285.936 350.198 286.347C340.852 288.07 333.279 294.949 326.315 301.055L326.331 301.039Z" fill="#406352"/>
<path d="M316.41 376.586C320.648 370.627 325.313 364.963 330.323 359.612C335.497 354.441 340.802 348.564 348.03 346.364C355.668 345.198 362.698 348.597 369.613 351.125C376.364 353.571 383.099 357.346 390.458 356.952C383.115 358.052 375.987 354.49 369.17 352.307C362.55 350.156 355.389 346.758 348.391 347.973C341.525 349.992 336.384 355.754 331.226 360.498C326.052 365.62 321.174 371.07 316.41 376.603V376.586Z" fill="#406352"/>
<path d="M251.578 263.315C261.466 276.004 271.174 290.089 283.263 300.76C284.134 301.4 285.004 302.057 285.891 302.73C278.04 298.642 272.011 291.764 266.41 285.083C260.891 278.237 255.865 270.997 251.594 263.315H251.578Z" fill="#406352"/>
<path d="M94.2018 235.178L49.5401 244.387L45.2529 216.677L89.192 211.177L94.2018 235.178Z" fill="#EA600E"/>
<path d="M89.2247 211.423L45.2856 216.923L64.6024 193.087L89.2247 211.423Z" fill="#EA600E"/>
<path d="M45.2856 216.923C53.7614 220.534 62.0728 224.474 70.3843 228.463L69.7108 228.562C72.4539 225.984 76.5111 222.406 79.3363 219.845C82.5886 217.005 85.8574 214.148 89.2247 211.423C86.2187 214.559 83.1143 217.563 80.0098 220.567C77.0696 223.292 73.1767 227.084 70.22 229.711C61.8429 225.574 53.4821 221.421 45.3021 216.923H45.2856Z" fill="#666666"/>
<path d="M50 237.968C52.7431 233.897 56.094 230.4 60.0526 227.511C57.3259 231.582 53.9586 235.063 50 237.968Z" fill="#666666"/>
<path d="M89.5534 234.783C85.102 232.288 81.1762 229.12 77.7925 225.295C82.2439 227.79 86.1696 230.975 89.5534 234.783Z" fill="#666666"/>
<path d="M48.062 215.412C60.7592 212.983 73.6206 211.374 86.5148 210.603C73.8177 213.049 60.9563 214.641 48.062 215.412Z" fill="#666666"/>
<g style="mix-blend-mode:multiply" opacity="0.31">
<path d="M277.645 238.165C262.632 227.889 259.61 231.287 237.172 234.422C214.734 237.558 207.096 229.153 194.021 246.406C181.209 263.331 188.535 269.339 212.353 264.168C226.61 261.066 242.034 252.759 253.286 272.836C253.844 273.837 254.419 274.806 255.01 275.758C257.277 267.993 262.517 261.657 269.498 258.767C275.953 256.092 282.162 252.808 288.076 249.016C285.694 245.208 282.524 241.498 277.662 238.165H277.645Z" fill="#AE988B"/>
<path d="M292.034 332.148L296.305 375.913C297.783 390.491 299.311 405.084 301.052 419.646C299.984 405.019 298.769 390.408 297.553 375.798C296.338 361.188 294.991 346.594 293.66 331.983C293.332 328.832 293.02 325.663 292.708 322.511C292.133 322.117 291.574 321.723 290.983 321.329C291.328 324.924 291.689 328.536 292.018 332.131L292.034 332.148Z" fill="#AE988B"/>
<path d="M344.088 131.378C334.199 133.381 334.051 146.366 335.448 146.727C337.567 147.269 339.751 147.466 341.854 147.417L342.281 149.978C333.887 153.556 326.66 159.975 322.208 168.725C314.915 183.007 316.985 199.604 326.134 211.538C340.885 189.82 350.346 163.16 352.301 134.071C349.984 132.101 347.094 130.771 344.071 131.378H344.088Z" fill="#AE988B"/>
<path d="M305.881 387.782C310.086 385.697 322.324 379.049 333.411 367.492C327.465 357.051 320.352 347.546 312.32 339.207C308.427 344.378 306.062 349.877 301.545 354.063C301.956 348.974 302.514 343.885 303.286 338.829C303.664 336.482 304.091 334.134 304.584 331.803C304.124 331.393 303.68 330.999 303.22 330.588C302.613 333.231 302.103 335.907 301.66 338.566C300.806 344.214 300.247 349.894 299.869 355.573C296.239 359.349 297.209 367.278 299.163 374.419C299.114 380.001 299.196 385.582 299.426 391.147C300.067 408.68 301.676 426.163 304.288 443.482C303.302 434.781 302.481 426.064 301.923 417.331C301.299 408.598 300.855 399.864 300.691 391.114C300.609 387.076 300.559 383.021 300.576 378.966C302.169 383.694 303.861 387.421 304.255 388.291C304.091 390.015 303.96 391.738 303.845 393.462C303.5 401.785 303.779 410.108 304.666 418.349C305.553 426.606 306.933 434.781 308.805 442.858L307.918 436.718L307.146 430.562L306.456 424.406L305.914 418.234C305.306 410.009 304.994 401.752 305.487 393.544C305.569 391.623 305.701 389.703 305.881 387.782Z" fill="#AE988B"/>
</g>
<path d="M245.221 281.832C245.221 270.341 251.512 260.13 260.94 256.223C309.445 236.13 344.137 182.843 344.137 120.232V80.3076H92.1978V120.232C92.1978 181.497 125.394 233.831 172.274 254.893C181.373 258.981 187.369 269.027 187.369 280.24V284.459C187.369 295.589 181.456 305.57 172.454 309.723C126.101 331.064 93.364 383.12 93.364 443.941V483.865H345.303V443.941C345.303 380.903 310.152 327.305 261.121 307.523C251.61 303.682 245.221 293.405 245.221 281.832Z" fill="#F6F6F6"/>
<path d="M84.445 511.921L353.056 511.921C361.221 511.921 367.839 505.306 367.839 497.146V481.009C367.839 472.849 361.221 466.235 353.056 466.235L84.445 466.235C76.2804 466.235 69.6617 472.849 69.6617 481.009V497.146C69.6617 505.306 76.2804 511.921 84.445 511.921Z" fill="#9D9D9D"/>
<path d="M104.714 445.189C104.714 445.189 105.536 416.625 112.172 394.266C118.808 371.891 140.375 340.963 162.763 329.538C185.152 318.112 185.579 319.54 198.424 321.92C211.285 324.301 215.424 313.351 229.534 314.779C243.627 316.208 287.599 317.16 309.577 363.322C331.555 409.484 332.803 447.093 332.803 447.093C332.803 447.093 136.646 460.899 104.714 445.189Z" fill="#EA600E"/>
<path d="M316.41 175.981C316.41 175.981 273.276 167.412 251.709 182.646C230.142 197.88 153.844 154.082 122.323 175.981C122.323 175.981 137.434 225.935 184.33 244.502C212.993 260.869 220.286 289.794 226.413 273.082C231.85 258.275 255.552 243.386 263.995 238.461C264.915 237.968 265.802 237.443 266.706 236.918C266.886 236.819 267.001 236.754 267.001 236.754H266.985C291.87 222.143 310.513 198.389 316.426 175.965L316.41 175.981Z" fill="#EA600E"/>
<path d="M216.804 300.202C218.906 301.761 221.682 300.973 223.029 299.135C225.115 296.278 223.768 290.894 220.845 289.86C218.644 289.072 215.753 290.845 214.931 293.783C214.324 295.983 214.882 298.774 216.804 300.202Z" fill="#EA600E"/>
<path d="M209.692 285.099C210.989 286.067 212.73 285.575 213.568 284.426C214.866 282.653 214.028 279.304 212.221 278.647C210.858 278.155 209.051 279.255 208.542 281.093C208.164 282.456 208.509 284.196 209.708 285.083L209.692 285.099Z" fill="#EA600E"/>
<path d="M260.021 115.044C272.011 119.936 288.536 124.008 306.473 118.853C316.016 116.111 320.747 112.254 323.884 115.044C331.473 121.759 320.697 158.777 302.317 185.486C277.268 221.881 238.568 238.461 235.135 233.076C233.115 229.908 244.564 220.912 253.385 202.608C267.741 172.846 264.998 139.504 260.021 115.028V115.044Z" fill="white"/>
<path d="M260.021 442.71C272.011 437.818 288.536 433.747 306.473 438.902C316.016 441.643 320.747 445.501 323.884 442.71C331.473 435.996 320.697 398.978 302.317 372.269C277.268 335.874 238.568 319.294 235.135 324.678C233.115 327.847 244.564 336.843 253.385 355.147C267.741 384.909 264.998 418.25 260.021 442.727V442.71Z" fill="white"/>
<path d="M240.112 263.315C240.704 263.627 233.936 274.1 235.973 287.824C237.533 298.33 243.332 304.569 242.198 305.668C241.131 306.703 234.56 302.599 231.834 295.671C226.315 281.635 239.324 262.888 240.129 263.298L240.112 263.315Z" fill="white"/>
<path d="M76.6099 483.061C168.2 483.455 268.381 483.997 359.643 483.061C265.835 486.213 170.45 485.655 76.6099 483.061Z" fill="#EA600E"/>
<g style="mix-blend-mode:multiply" opacity="0.31">
<path d="M344.137 80.3076H92.1978V105.999H344.137V80.3076Z" fill="#AE988B"/>
</g>
<path d="M353.056 52.2197H84.4448C76.2803 52.2197 69.6616 58.8345 69.6616 66.9943V83.1313C69.6616 91.291 76.2803 97.9058 84.4448 97.9058H353.056C361.221 97.9058 367.839 91.291 367.839 83.1313V66.9943C367.839 58.8345 361.221 52.2197 353.056 52.2197Z" fill="#9D9D9D"/>
<path d="M359.643 61.6426C268.053 61.2486 167.872 60.7069 76.6099 61.6426C170.418 58.4907 265.802 59.0488 359.643 61.6426Z" fill="#EA600E"/>
<g style="mix-blend-mode:multiply" opacity="0.2">
<path d="M219.761 566.997C298.821 566.997 362.912 564.41 362.912 561.218C362.912 558.027 298.821 555.44 219.761 555.44C140.701 555.44 76.6099 558.027 76.6099 561.218C76.6099 564.41 140.701 566.997 219.761 566.997Z" fill="#AE988B"/>
</g>
<g style="mix-blend-mode:multiply" opacity="0.31">
<path d="M108.64 477.201C125.904 477.201 139.898 474.746 139.898 471.718C139.898 468.689 125.904 466.235 108.64 466.235C91.3767 466.235 77.3818 468.689 77.3818 471.718C77.3818 474.746 91.3767 477.201 108.64 477.201Z" fill="#AE988B"/>
</g>
<g style="mix-blend-mode:multiply" opacity="0.31">
<path d="M176.626 348.35C172.931 366.047 167.412 379.869 164.291 379.213C161.17 378.556 161.63 363.683 165.326 345.986C169.021 328.29 174.54 314.467 177.661 315.124C180.782 315.781 180.322 330.654 176.626 348.35Z" fill="#AE988B"/>
</g>
<g style="mix-blend-mode:multiply" opacity="0.2">
<path d="M155.043 585.826C155.043 587.419 138.782 588.715 118.726 588.715C98.6697 588.715 82.4082 587.419 82.4082 585.826C82.4082 584.234 98.6697 582.937 118.726 582.937C138.782 582.937 155.043 584.234 155.043 585.826Z" fill="#AE988B"/>
</g>
<path d="M180.651 323.841C179.353 324.514 177.793 326.451 176.725 327.354C175.279 328.602 175.049 327.6 174.934 327.633L175.838 325.532L167.674 325.778L166.393 338.32L172.553 338.714L174.491 337.187C176.38 335.693 178.466 333.658 178.712 330.9C178.712 330.9 179.879 327.436 180.897 326.484C182.835 324.662 181.948 323.152 180.651 323.825V323.841Z" fill="#EDBDA3"/>
<path d="M167.083 330.867L168.134 321.986C168.134 321.986 171.633 313.532 172.109 315.091C173.013 318.128 171.403 322.938 171.403 322.938C170.417 327.436 169.005 333.231 169.005 333.231L167.083 330.867Z" fill="#EDBDA3"/>
<path d="M168.02 326.96L172.274 316.29C172.274 316.29 177.497 310.446 178.154 311.923C178.828 313.466 174.721 318.539 174.721 318.539C172.865 322.692 169.794 327.699 169.794 327.699L168.036 326.96H168.02Z" fill="#EDBDA3"/>
<path d="M167.904 329.603L171.452 318.555C171.452 318.555 180.092 310.396 180.371 311.989C180.897 315.075 175.345 321.001 175.345 321.001C173.785 325.286 171.961 329.045 171.961 329.045L167.904 329.603Z" fill="#EDBDA3"/>
<path d="M171.14 329.472L173.9 320.87C173.9 320.87 179.862 314.714 180.47 315.813C181.472 317.636 176.922 322.79 176.922 322.79C175.707 326.123 174.294 329.061 174.294 329.061L171.14 329.488V329.472Z" fill="#EDBDA3"/>
<path d="M172.274 316.29C171.19 318.112 170.795 320.213 169.662 322.002C170.171 319.967 170.861 317.882 172.274 316.29Z" fill="#AB6F6A"/>
<path d="M178.434 312.645C176.955 314.451 175.329 315.994 173.637 317.521C173.309 318.178 172.816 319.442 172.52 320.131L171.272 323.152C171.814 321.182 172.438 319.228 173.276 317.357C173.358 317.242 173.342 317.078 173.621 316.946C175.231 315.699 176.824 314.008 178.417 312.662L178.434 312.645Z" fill="#AB6F6A"/>
<path d="M179.074 316.224L176.938 317.521C176.61 317.751 176.183 317.948 175.969 318.194C174.869 319.934 174.064 321.855 173.013 323.644C173.735 321.674 174.491 319.704 175.674 317.948C176.676 317.094 177.875 316.733 179.074 316.224Z" fill="#AB6F6A"/>
<path d="M175.838 325.548C175.592 326.894 175.017 328.126 174.672 329.439C174.458 328.06 175.082 326.681 175.838 325.548Z" fill="#AB6F6A"/>
<path d="M129.944 302.73C134.856 311.824 138.436 321.559 144.793 329.734C140.555 326.615 137.812 321.887 135.414 317.307C133.082 312.645 131.16 307.786 129.944 302.713V302.73Z" fill="#27211D"/>
<path d="M104.353 289.121C97.4213 302.615 95.9594 318.013 94.2019 332.886C94.0869 330.998 94.0869 329.094 94.0376 327.19C94.4482 314.073 96.3701 299.956 104.353 289.137V289.121Z" fill="#27211D"/>
<path d="M170.286 459.323C171.551 455.515 172.619 451.591 173.424 447.553C172.964 432.023 152.169 426.901 152.169 426.901L145.795 410.682L131.308 415.492C126.446 417.118 121.272 417.643 116.18 417.035L93.8077 414.376C93.8077 414.376 88.9621 423.109 85.8412 431.892C85.7919 431.958 70.3188 452.839 87.6152 467.909C93.7749 473.277 111.318 475.526 127.76 476.445C121.781 490.908 117.362 505.83 110.151 513.858C110.151 513.858 103.433 530.668 110.02 533.721C110.02 533.721 114.274 531.029 120.598 525.973C119.629 541.371 120.04 553.683 120.04 553.683C126.035 556.819 135.464 554.783 135.464 554.783C142.001 523.428 166.278 475.395 169.679 468.746C169.826 468.5 169.941 468.237 170.073 467.991L170.089 467.958C171.403 465.184 171.387 462.065 170.303 459.34L170.286 459.323Z" fill="#21366A"/>
<path d="M114.389 287.84C114.389 287.84 98.9818 282.653 96.6493 306.358C94.3168 330.046 97.6677 336.892 97.6677 336.892C97.6677 336.892 126.462 342.326 143.414 332.23C143.414 332.23 136.613 321.789 135.611 314.911C134.609 308.032 133.213 299.89 133.213 299.89L114.389 287.824V287.84Z" fill="#27211D"/>
<path d="M137.041 315.945C136.055 318.571 133.805 320.18 132.031 319.507C130.24 318.834 129.6 316.158 130.585 313.532C131.571 310.905 133.821 309.296 135.595 309.969C137.386 310.642 138.026 313.318 137.041 315.945Z" fill="#EDBDA3"/>
<path d="M136.597 320.049C136.597 321.214 135.644 322.167 134.478 322.167C133.312 322.167 132.359 321.214 132.359 320.049C132.359 318.883 133.312 317.931 134.478 317.931C135.644 317.931 136.597 318.883 136.597 320.049Z" fill="white"/>
<path d="M132.063 347.168C129.435 346.216 125.723 345.313 125.263 340.947C124.442 333.264 123.916 326.993 125.723 320.985L107.605 293.816C107.605 293.816 108.18 316.208 107.343 337.713C107.063 344.722 101.216 347.382 98.3413 347.168C98.3413 347.168 107.375 383.924 129.517 367.902C129.616 367.836 129.698 367.771 129.797 367.689C134.232 364.405 136.548 348.794 132.08 347.152L132.063 347.168Z" fill="#EDBDA3"/>
<path d="M124.984 333.838C124.557 329.176 124.606 324.728 125.723 320.985L107.605 293.816C107.605 293.816 108.148 314.664 107.425 335.447C109.774 338.238 112.615 339.863 115.884 339.617C120.106 339.305 122.996 337.023 124.968 333.822L124.984 333.838Z" fill="#AB6F6A"/>
<path d="M133.624 307.343C133.624 307.343 138.009 336.826 118.709 336.892C106.718 336.925 97.996 321.215 99.7207 305.209C101.215 291.321 109.56 289.236 118.282 289.203C124.622 289.17 130.355 291.074 133.624 307.343Z" fill="#EDBDA3"/>
<path d="M82.4575 363.158L98.3413 347.168C98.3413 347.168 118.446 353.8 129.928 346.446L150.115 360.088L146.994 404.625L152.169 423.618C152.169 423.618 121.288 441.463 90.6211 425.194L94.5633 411.799L82.4575 363.158Z" fill="white"/>
<path d="M98.3414 347.168C98.3414 347.168 80.6836 346.889 77.6284 371.694C74.6553 395.875 74.7539 416.773 75.6737 420.138L82.0141 418.579C82.0141 418.579 90.5391 418.693 90.9662 407.727H91.0319L98.3414 347.168Z" fill="white"/>
<path d="M129.928 346.446C129.928 346.446 145.45 344.23 155.93 366.917L156.834 376.603H144.777L129.912 346.446H129.928Z" fill="white"/>
<path d="M142.904 350.32L156.85 360.646L166.36 333.313L176.249 336.892L161.597 389.243L145.795 375.815L142.904 350.32Z" fill="white"/>
<path d="M95.2695 318.161C96.9942 321.05 100.181 322.331 102.382 321.018C104.599 319.704 104.994 316.29 103.285 313.4C101.561 310.511 98.374 309.231 96.1729 310.544C93.9554 311.857 93.5612 315.272 95.2695 318.161Z" fill="#EDBDA3"/>
<path d="M127.415 310.232C127.612 309.854 127.957 309.575 128.335 309.378C128.713 309.181 129.156 309.083 129.567 309.066C129.994 309.05 130.421 309.116 130.815 309.231C131.012 309.296 131.209 309.378 131.39 309.46C131.571 309.575 131.751 309.657 131.916 309.789C131.505 309.756 131.111 309.707 130.716 309.674C130.322 309.674 129.944 309.625 129.583 309.641C128.827 309.674 128.105 309.822 127.398 310.232H127.415Z" fill="#27211D"/>
<path d="M110.233 311.118C110.398 310.724 110.726 310.429 111.088 310.199C111.449 309.969 111.876 309.854 112.303 309.789C112.73 309.739 113.157 309.772 113.568 309.871C113.765 309.92 113.962 309.986 114.159 310.051C114.34 310.15 114.537 310.232 114.718 310.347C114.291 310.347 113.913 310.314 113.519 310.314C113.124 310.314 112.747 310.314 112.385 310.363C111.646 310.445 110.923 310.659 110.25 311.118H110.233Z" fill="#27211D"/>
<path d="M112.927 316.306C113.289 315.896 113.929 315.797 114.455 315.929C114.718 316.011 114.964 316.142 115.178 316.306C115.391 316.47 115.572 316.667 115.72 316.897C115.276 316.618 114.849 316.339 114.373 316.224C113.913 316.093 113.404 316.126 112.927 316.323V316.306Z" fill="#27211D"/>
<path d="M115.786 314.976C115.786 315.682 115.358 316.24 114.8 316.24C114.258 316.24 113.814 315.682 113.814 314.976C113.814 314.271 114.242 313.712 114.8 313.712C115.342 313.712 115.786 314.271 115.786 314.976Z" fill="#27211D"/>
<path d="M128.022 315.961C128.203 315.452 128.762 315.124 129.304 315.042C129.583 315.026 129.862 315.042 130.109 315.124C130.371 315.19 130.601 315.321 130.831 315.469C130.306 315.37 129.813 315.272 129.337 315.338C128.86 315.387 128.4 315.6 128.022 315.961Z" fill="#27211D"/>
<path d="M129.912 314.024C130.027 314.648 129.715 315.239 129.238 315.321C128.745 315.403 128.253 314.976 128.138 314.353C128.023 313.729 128.335 313.138 128.811 313.056C129.304 312.974 129.797 313.4 129.912 314.024Z" fill="#27211D"/>
<path d="M114.356 323.513C115.407 324.629 116.689 325.401 118.052 325.893C118.742 326.123 119.465 326.303 120.187 326.418C120.926 326.55 121.666 326.566 122.438 326.648C122.06 326.747 121.682 326.812 121.304 326.862C120.926 326.862 120.532 326.927 120.138 326.894C119.35 326.894 118.578 326.714 117.822 326.484C117.083 326.205 116.376 325.844 115.769 325.335C115.161 324.842 114.635 324.235 114.323 323.513H114.356Z" fill="#AB6F6A"/>
<path d="M122.586 415.837C122.586 415.837 69.744 401.67 76.068 422.141C79.5831 433.517 125.115 422.141 125.115 422.141L122.586 415.837Z" fill="white"/>
<path d="M143.003 377.456C143.988 379.672 144.843 381.938 145.664 384.203C146.502 386.469 147.241 388.767 147.914 391.098C148.193 392.263 148.604 393.445 148.588 394.759C148.571 396.006 148.423 397.221 148.21 398.419C147.799 400.816 147.257 403.18 146.534 405.495C146.847 403.098 147.192 400.701 147.438 398.321C147.536 397.123 147.668 395.941 147.619 394.775C147.619 393.659 147.224 392.526 146.929 391.361L144.925 384.433C144.251 382.118 143.578 379.804 143.003 377.456Z" fill="#802D2D"/>
<path d="M91.9514 403.262C91.4587 394.118 91.4915 384.958 92.0993 375.814C92.6085 384.958 92.5428 394.118 91.9514 403.262Z" fill="#802D2D"/>
<path d="M116.426 415L135.184 377.374C135.513 376.701 136.186 376.258 136.942 376.208L198.029 371.694C198.292 371.678 198.555 371.694 198.818 371.793C200.05 372.187 200.641 373.598 200.066 374.747L181.866 411.24L118.019 415.525L116.426 415Z" fill="#8C8C8C"/>
<path d="M198.998 372.696L138.453 376.767C137.697 376.816 137.04 377.259 136.695 377.932L117.937 415.558L181.784 411.273L200.148 374.436C200.559 373.615 199.918 372.646 198.998 372.712V372.696Z" fill="#F0F0F0"/>
<path d="M155.175 398.042C155.766 399.618 158.558 400.045 161.416 398.978C164.274 397.911 166.114 395.777 165.523 394.184C164.931 392.608 162.139 392.182 159.281 393.249C156.423 394.316 154.583 396.45 155.175 398.042Z" fill="#8C8C8C"/>
<path d="M122.586 415.837C122.586 415.837 125.592 410.65 133.492 411.733C136.958 412.209 139.521 413.982 145.089 417.61L144.219 420.893C143.594 420.975 130.519 420.483 123.834 422.453L122.569 415.837H122.586Z" fill="#EDBDA3"/>
<path d="M138.338 417.971C138.338 417.971 151.544 415.936 153.285 420.762C153.417 421.139 153.105 421.533 152.71 421.501L139.948 420.581L138.338 417.971Z" fill="#EDBDA3"/>
<path d="M130.174 411.733C130.174 411.733 132.572 410.305 135.776 408.302C141.935 404.461 142.198 405.79 140.506 408.466C138.322 411.914 138.995 412.587 138.995 412.587C138.995 412.587 152.119 412.619 156.718 418.349C157.014 418.71 156.751 419.252 156.291 419.252H140.44L130.191 411.717L130.174 411.733Z" fill="#EDBDA3"/>
<path d="M152.169 419.284C148.276 419.317 144.301 418.628 140.424 418.808C144.186 417.495 148.424 418.201 152.169 419.284Z" fill="#AB6F6A"/>
<path d="M155.125 417.544C151.085 417.315 147.192 416.395 143.151 416.674C146.995 415.263 151.38 416.215 155.125 417.544Z" fill="#AB6F6A"/>
<path d="M139.012 412.603C137.993 413.851 136.482 414.622 134.856 414.557C136.088 413.555 137.418 412.882 139.012 412.603Z" fill="#AB6F6A"/>
<path d="M139.521 412.882C139.521 412.882 152.595 410.042 154.484 413.325C155.519 415.148 143.085 414.573 143.085 414.573L139.521 412.882Z" fill="#EDBDA3"/>
<path d="M90.5224 411.159C89.8325 410.781 88.847 411.848 88.2064 412.176C87.4015 412.685 86.6295 413.227 85.7261 413.588C86.6623 412.16 88.1078 410.847 89.8654 410.732C90.1118 410.748 90.4896 410.863 90.506 411.159H90.5224Z" fill="#802D2D"/>
<path d="M120.023 553.683L119.925 571.758C119.925 571.758 149.836 594.363 150 582.97C150.033 580.212 133.493 567.703 133.493 567.703L135.464 554.783L120.04 553.683H120.023Z" fill="#EDBDA3"/>
<path d="M119.924 571.758C119.924 571.758 141.065 582.592 147.733 582.395C151.478 582.28 141.951 574.483 141.951 574.483C141.951 574.483 153.055 583.331 159.166 585.908C170.746 590.8 143.972 596.234 136.104 590.653C124.902 582.74 121.074 583.643 121.074 583.643C121.074 583.643 116.623 576.633 119.924 571.774V571.758Z" fill="#434343"/>
<path d="M101.331 379.672C106.948 383.875 116.853 393.265 124.195 391.426C116.853 394.414 106.11 384.679 101.331 379.672Z" fill="#802D2D"/>
<path d="M136.4 360.646C136.137 365.013 134.264 379.245 128.811 379.525C133.312 378.786 135.102 364.766 136.4 360.646Z" fill="#802D2D"/>
<path d="M104.353 306.194C104.353 306.194 100.887 312.596 101.971 315.994C101.971 315.994 98.2753 310.955 98.6531 307.803C99.0145 304.634 104.353 306.194 104.353 306.194Z" fill="#27211D"/>
<path d="M109.363 286.445C109.363 286.445 96.4031 283.474 96.3867 309.395C96.3867 309.395 105.207 314.517 110.25 297.772C110.25 297.772 118.792 312.53 135.907 307.08C135.907 307.08 139.849 276.907 109.38 286.445H109.363Z" fill="#27211D"/>
<path d="M95.8281 314.188C97.3064 311.824 99.5568 314.188 100.247 315.879C99.6553 316.306 98.949 316.881 98.7519 317.521C98.5712 318.177 99.2447 318.67 99.7375 319.031C98.9655 318.9 98.0785 318.374 98.177 317.439C98.2756 316.569 98.8669 315.961 99.5075 315.452L99.3761 315.961C98.6534 314.599 97.4707 312.826 95.8281 314.205V314.188Z" fill="#AB6F6A"/>
<path d="M133.805 312.169C134.79 314.09 134.396 316.437 133.887 318.44C133.838 316.339 134.248 314.238 133.805 312.169Z" fill="#AB6F6A"/>
<path d="M101.051 523.215C101.051 523.215 103.417 530.668 110.003 533.721C110.003 533.721 115.687 530.799 123.9 523.626C116.245 522.05 112.319 517.469 110.151 513.858C107.342 517.272 104.32 520.441 101.051 523.215Z" fill="#EDBDA3"/>
<path d="M101.051 523.215C101.051 523.215 94.1853 559.265 104.517 554.439C107.014 553.273 111.055 532.933 111.055 532.933" fill="#EDBDA3"/>
<path d="M101.051 523.215C101.051 523.215 100.936 546.23 104.041 552.157C105.782 555.473 108.64 543.489 108.64 543.489C108.64 543.489 105.536 557.328 105.881 563.96C106.538 576.502 87.9273 559.757 91.5245 550.81C94.744 542.799 91.2946 528.731 91.2946 528.731C91.2946 528.731 95.2367 522.378 101.068 523.215H101.051Z" fill="#434343"/>
<path d="M121.813 432.565C128.679 434.732 135.628 437.966 140.424 443.498C134.527 439.279 128.022 436.308 121.813 432.565Z" fill="#607097"/>
<path d="M142.904 435.143C138.979 449.441 133.936 463.477 127.809 476.971C132.228 463.313 137.582 448.472 142.904 435.143Z" fill="#607097"/>
<path d="M170.089 461.835C159.281 485.212 144.679 507.931 123.9 523.609C143.562 506.651 157.786 484.456 170.089 461.835Z" fill="#607097"/>
<path d="M118.414 315.502C118.414 317.603 116.59 319.31 114.356 319.31C112.123 319.31 110.299 317.603 110.299 315.502C110.299 313.4 112.123 311.693 114.356 311.693C116.59 311.693 118.414 313.4 118.414 315.502Z" stroke="white" stroke-width="0.25" stroke-miterlimit="10"/>
<path d="M132.605 314.648C132.605 316.503 131.094 318.013 129.238 318.013C127.382 318.013 125.871 316.503 125.871 314.648C125.871 312.793 127.382 311.283 129.238 311.283C131.094 311.283 132.605 312.793 132.605 314.648Z" stroke="white" stroke-width="0.25" stroke-miterlimit="10"/>
<path d="M118.414 315.502C118.414 315.502 121.699 312.103 125.871 314.943" stroke="white" stroke-width="0.25" stroke-miterlimit="10"/>
<path d="M102.053 312.169L110.283 315.502" stroke="white" stroke-width="0.25" stroke-miterlimit="10"/>
<path d="M133.804 308.952L132.458 313.844" stroke="white" stroke-width="0.25" stroke-miterlimit="10"/>
<path d="M102.875 322.298C102.875 323.463 101.922 324.416 100.756 324.416C99.5894 324.416 98.6367 323.463 98.6367 322.298C98.6367 321.132 99.5894 320.18 100.756 320.18C101.922 320.18 102.875 321.132 102.875 322.298Z" fill="white"/>
<path d="M109.363 286.445C123.44 277.679 134.33 283.326 135.644 299.857C135.644 301.614 135.513 303.534 134.494 305.012C135.151 303.386 135.036 301.614 134.79 299.939C131.718 284.262 124.08 280.338 109.379 286.461L109.363 286.445Z" fill="#27211D"/>
<path d="M109.609 286.757C108.032 286.051 106.603 285.706 105.256 284.475C106.981 283.983 109.297 284.885 109.609 286.757Z" fill="#27211D"/>
<path d="M109.084 287.365C108.147 287.184 107.014 287.135 106.094 287.053C105.125 286.954 104.14 286.888 103.039 286.56C104.862 285.411 107.819 285.46 109.084 287.365Z" fill="#27211D"/>
<path d="M110.233 294.965C111.909 299.923 114.422 304.716 119.005 307.556C113.519 306.309 110.151 300.3 110.233 294.965Z" fill="#27211D"/>
<path d="M156.85 360.646C155.174 362.911 154.764 365.341 155.125 368.099C153.532 365.719 154.287 362.009 156.85 360.646Z" fill="#802D2D"/>
<path d="M184.643 1.72363C156.637 22.1125 120.385 35.7707 120.385 35.7707C129.977 63.9572 153.204 82.5238 153.204 82.5238C180.7 80.1107 222.175 45.9979 222.175 45.9979C208.378 43.9623 184.643 1.74005 184.643 1.74005V1.72363ZM133.608 39.727C132.343 40.4 130.733 39.8255 130.01 38.4465C129.288 37.0676 129.715 35.426 130.979 34.7529C132.244 34.0798 133.854 34.6544 134.577 36.0169C135.299 37.3795 134.872 39.0375 133.608 39.7106V39.727ZM145.106 34.1783C143.841 34.8514 142.231 34.2768 141.508 32.9143C140.786 31.5517 141.213 29.8937 142.477 29.2207C143.742 28.5476 145.352 29.1222 146.075 30.4847C146.797 31.8472 146.37 33.5053 145.106 34.1783ZM156.604 28.6297C155.339 29.3027 153.729 28.7282 153.006 27.3656C152.284 26.0031 152.711 24.3451 153.976 23.672C155.24 22.9989 156.85 23.5735 157.573 24.936C158.296 26.2986 157.868 27.9566 156.604 28.6297ZM167.888 22.6542C166.623 23.3273 165.014 22.7527 164.291 21.3902C163.568 20.0276 163.995 18.3696 165.26 17.6965C166.525 17.0235 168.135 17.598 168.857 18.9606C169.58 20.3231 169.153 21.9811 167.888 22.6542ZM178.943 16.2519C177.678 16.925 176.068 16.3504 175.346 14.9879C174.623 13.6253 175.05 11.9673 176.315 11.2942C177.579 10.6212 179.189 11.1957 179.912 12.5583C180.635 13.9208 180.208 15.5788 178.943 16.2519Z" fill="#EA600E"/>
<path d="M136.416 43.7161C142.362 56.2416 149.524 69.4237 161.81 76.6961C148.883 70.3923 141.327 56.6848 136.416 43.7161Z" fill="black"/>
<path d="M150.329 36.3452C156.275 48.8707 163.436 62.0529 175.723 69.3252C162.796 63.0214 155.24 49.314 150.329 36.3452Z" fill="black"/>
<path d="M165.621 27.7268C171.567 40.2523 178.729 53.4345 191.015 60.7068C178.088 54.403 170.532 40.6956 165.621 27.7268Z" fill="black"/>
<path d="M180.799 18.665C186.745 31.1905 193.907 44.3727 206.193 51.6451C193.266 45.3413 185.71 31.6338 180.799 18.665Z" fill="black"/>
<path d="M137.747 57.7849C156.883 47.295 176.988 36.7066 194.876 24.2795C177.349 37.7736 157.605 48.165 137.747 57.7849Z" fill="black"/>
<path d="M147.537 72.1653C168.069 63.2677 188.01 51.7929 203.565 35.5081C188.798 52.5973 168.512 64.2855 147.537 72.1653Z" fill="black"/>
<path d="M151.38 61.4291C152.743 61.3634 154.09 61.4455 155.404 61.6425L154.731 62.2499C154.484 59.771 154.665 57.0788 156.127 54.9775C155.963 56.2252 155.93 57.4071 155.897 58.5891C155.864 60.0337 155.864 61.4947 155.897 62.9229C154.369 62.5618 152.858 62.1186 151.396 61.4291H151.38Z" fill="white"/>
<path d="M190.95 54.3866C192.313 54.3209 193.66 54.403 194.974 54.6L194.301 55.2074C194.054 52.7286 194.235 50.0363 195.697 47.9351C195.533 49.1827 195.5 50.3646 195.467 51.5466C195.434 52.9912 195.434 54.4523 195.467 55.8805C193.939 55.5193 192.428 55.0761 190.966 54.3866H190.95Z" fill="white"/>
</g>
<defs>
<clipPath id="clip0_852_21971">
<rect width="441" height="593" fill="white"/>
</clipPath>
</defs>
</svg>
